<svg height='100px' width='100px'  fill="#000000" xmlns="http://www.w3.org/2000/svg" data-name="Layer 1" viewBox="0 0 102.13 102.13" x="0px" y="0px"><defs><style>.cls-1{fill:#000000;}</style></defs><title>Hand_DRAFT2</title><path class="cls-1" d="M68.12,67.88a8.28,8.28,0,0,1-8.28,8.27,2,2,0,0,1,0-4,4.28,4.28,0,0,0,4.28-4.27,2,2,0,0,1,4,0Z"></path><path d="M73.43,39.33v-12A7.32,7.32,0,0,0,66.12,20a7.24,7.24,0,0,0-3.37.83,7.31,7.31,0,0,0-14.56.89V22a7.22,7.22,0,0,0-3.31-.8,7.32,7.32,0,0,0-7.31,7.31V30a7.22,7.22,0,0,0-3.31-.8,7.32,7.32,0,0,0-7.31,7.31v25.4a25.62,25.62,0,0,0,51.2,1.58c0-.53,0-1,0-1.58V45.79A6.77,6.77,0,0,0,73.43,39.33Zm.77,22.54c0,.43,0,.85,0,1.31a21.62,21.62,0,0,1-43.21-1.31V36.47a3.31,3.31,0,0,1,6.62,0V54.22a2,2,0,0,0,4,0V28.5a3.31,3.31,0,1,1,6.62,0V50.34a2,2,0,0,0,4,0V21.69a3.31,3.31,0,0,1,6.62,0V46.52a2,2,0,0,0,4,0V27.28a3.31,3.31,0,1,1,6.62,0v12a6.78,6.78,0,0,0-4.78,6.47v6.53a10.34,10.34,0,0,0-8.92,9.37,1.09,1.09,0,0,0,0,.18,2,2,0,0,0,4,.18,6.4,6.4,0,0,1,6.41-5.83,2.08,2.08,0,0,1,.25,0,2,2,0,0,0,2.28-2V45.79a2.77,2.77,0,0,1,5.55,0Z"></path><path d="M68.12,67.88a8.28,8.28,0,0,1-8.28,8.27,2,2,0,0,1,0-4,4.28,4.28,0,0,0,4.28-4.27,2,2,0,0,1,4,0Z"></path><path d="M82.5,48a1.82,1.82,0,0,1-1.29-3.11,4.46,4.46,0,0,0,0-6.3A1.82,1.82,0,0,1,83.78,36a8.11,8.11,0,0,1,0,11.46A1.82,1.82,0,0,1,82.5,48Z"></path><path d="M87.17,52.14A1.82,1.82,0,0,1,85.88,49a10.32,10.32,0,0,0,0-14.58,1.82,1.82,0,1,1,2.58-2.58,14,14,0,0,1,0,19.74A1.82,1.82,0,0,1,87.17,52.14Z"></path><path d="M19.64,48a1.82,1.82,0,0,1-1.29-.53,8.11,8.11,0,0,1,0-11.46,1.82,1.82,0,0,1,2.58,2.58,4.46,4.46,0,0,0,0,6.3A1.82,1.82,0,0,1,19.64,48Z"></path><path d="M15,52.14a1.82,1.82,0,0,1-1.29-.53,14,14,0,0,1,0-19.74,1.82,1.82,0,1,1,2.58,2.58,10.32,10.32,0,0,0,0,14.58A1.82,1.82,0,0,1,15,52.14Z"></path></svg>