<svg width="90" height="91" viewBox="0 0 90 91" fill="none" xmlns="http://www.w3.org/2000/svg">
<path d="M51.3663 66.3035C50.5597 68.2949 48.9956 69.8846 47.0176 70.7235C45.0397 71.5624 42.8096 71.5819 40.8173 70.7776C40.3357 70.5832 39.951 70.2054 39.748 69.7274C39.5449 69.2494 39.54 68.7103 39.7344 68.2287C39.9288 67.7471 40.3066 67.3624 40.7846 67.1593C41.2626 66.9562 41.8018 66.9514 42.2834 67.1458C43.3124 67.5612 44.4643 67.5515 45.4862 67.1187C46.5081 66.686 47.3166 65.8656 47.7345 64.8375C47.9289 64.3559 48.3066 63.9712 48.7847 63.7681C49.2627 63.5651 49.8018 63.5602 50.2834 63.7546C50.765 63.949 51.1497 64.3268 51.3527 64.8048C51.5558 65.2828 51.5607 65.8219 51.3663 66.3035Z" fill="black"/>
<path d="M66.6517 42.3275L71.0499 31.432C71.4034 30.5597 71.5816 29.6263 71.5744 28.6851C71.5672 27.7439 71.3747 26.8133 71.0078 25.9465C70.641 25.0797 70.107 24.2937 69.4364 23.6333C68.7657 22.9728 67.9716 22.451 67.0993 22.0975C66.0336 21.6666 64.879 21.5013 63.7352 21.6159C64.1942 19.8596 63.9686 17.9944 63.1042 16.3981C62.2398 14.8018 60.8012 13.5936 59.0795 13.0181C57.3578 12.4425 55.4818 12.5426 53.8312 13.2982C52.1806 14.0538 50.8787 15.4083 50.1892 17.0875L50.0865 17.3417C49.3501 16.4882 48.4202 15.8232 47.3744 15.4022C45.6139 14.6943 43.6445 14.7135 41.8981 15.4554C40.1516 16.1974 38.7707 17.6016 38.058 19.3602L37.5119 20.713C36.7754 19.8595 35.8455 19.1945 34.7997 18.7735C33.0392 18.0656 31.0698 18.0847 29.3234 18.8267C27.577 19.5686 26.196 20.9729 25.4833 22.7314L16.1738 45.7936C13.6863 51.8484 13.6639 58.6357 16.1116 64.7067C18.5592 70.7777 23.2829 75.6515 29.2744 78.2879C35.2659 80.9242 42.0505 81.1141 48.1801 78.8172C54.3098 76.5202 59.2988 71.9183 62.0823 65.9938C62.2765 65.5126 62.4488 65.0858 62.6613 64.5592L68.5696 49.9229C69.0983 48.6174 69.1975 47.1773 68.8526 45.8116C68.5078 44.4459 67.7369 43.2256 66.6517 42.3275ZM59.0896 63.0751C58.932 63.4656 58.778 63.8469 58.6094 64.2646C56.2737 69.2826 52.0656 73.1862 46.8866 75.1391C41.7076 77.092 35.9697 76.9388 30.9022 74.7124C25.8348 72.4859 21.8409 68.3633 19.7763 63.2278C17.7117 58.0924 17.7405 52.3525 19.8567 47.238L29.1662 24.1758C29.4879 23.3788 30.1131 22.7422 30.9042 22.4061C31.6954 22.07 32.5876 22.0619 33.3847 22.3837C34.1817 22.7054 34.8183 23.3306 35.1544 24.1218C35.4905 24.9129 35.4986 25.8051 35.1768 26.6022L28.6712 42.7185C28.4768 43.2001 28.4816 43.7392 28.6847 44.2172C28.8878 44.6952 29.2725 45.073 29.7541 45.2674C30.2357 45.4618 30.7748 45.4569 31.2528 45.2539C31.7308 45.0508 32.1086 44.6661 32.303 44.1845L41.7298 20.8318C42.0516 20.0347 42.6768 19.3981 43.4679 19.062C44.259 18.7259 45.1513 18.7179 45.9483 19.0396C46.7454 19.3614 47.382 19.9866 47.7181 20.7777C48.0542 21.5688 48.0622 22.4611 47.7405 23.2581L39.7358 43.088C39.5414 43.5696 39.5463 44.1087 39.7493 44.5867C39.9524 45.0647 40.3371 45.4425 40.8187 45.6369C41.3003 45.8313 41.8394 45.8265 42.3174 45.6234C42.7955 45.4203 43.1732 45.0356 43.3676 44.554L53.8683 18.541C54.1901 17.7439 54.8153 17.1073 55.6064 16.7712C56.3975 16.4351 57.2898 16.4271 58.0868 16.7488C58.8839 17.0706 59.5205 17.6958 59.8566 18.4869C60.1927 19.278 60.2007 20.1703 59.879 20.9673L50.7784 43.512C50.584 43.9936 50.5889 44.5327 50.792 45.0107C50.995 45.4887 51.3797 45.8665 51.8613 46.0609C52.3429 46.2553 52.882 46.2504 53.36 46.0474C53.8381 45.8443 54.2158 45.4596 54.4102 44.978L61.462 27.5089C61.7838 26.7118 62.409 26.0752 63.2001 25.7391C63.9912 25.403 64.8835 25.395 65.6805 25.7167C66.4776 26.0385 67.1142 26.6637 67.4503 27.4548C67.7864 28.2459 67.7944 29.1382 67.4727 29.9352L63.0745 40.8307C61.6623 40.7115 60.249 41.0474 59.0414 41.7891C57.8338 42.5309 56.8952 43.6397 56.3631 44.9533L53.9698 50.8823C51.7382 50.3135 49.3795 50.5226 47.2827 51.4749C45.186 52.4272 43.4766 54.0659 42.4365 56.1205C42.4101 56.1731 42.388 56.2277 42.3705 56.2839C42.1545 56.7568 42.1351 57.2961 42.3166 57.7833C42.4982 58.2705 42.8659 58.6655 43.3387 58.8816C43.8116 59.0977 44.3509 59.1171 44.8381 58.9355C45.3252 58.754 45.7203 58.3863 45.9364 57.9134C46.652 56.5145 47.8671 55.4354 49.3408 54.8901C50.8146 54.3449 52.4394 54.3731 53.8932 54.9694C53.9706 54.9954 54.0464 55.026 54.1202 55.061C54.3643 55.2022 54.636 55.2889 54.9167 55.3153C55.1975 55.3418 55.4806 55.3073 55.7467 55.2142C56.0129 55.1211 56.2558 54.9717 56.4589 54.776C56.662 54.5804 56.8204 54.3433 56.9234 54.0808L59.9984 46.463C60.2682 45.7948 60.7923 45.261 61.4556 44.9793C62.1189 44.6975 62.8669 44.6907 63.5351 44.9605C64.2033 45.2302 64.7371 45.7544 65.0188 46.4176C65.3006 47.0809 65.3074 47.8289 65.0376 48.4972L59.0896 63.0751Z" fill="black"/>
<path d="M51.3663 66.3035C50.5597 68.2949 48.9956 69.8846 47.0176 70.7235C45.0397 71.5624 42.8096 71.5819 40.8173 70.7776C40.3357 70.5832 39.951 70.2054 39.748 69.7274C39.5449 69.2494 39.54 68.7103 39.7344 68.2287C39.9288 67.7471 40.3066 67.3624 40.7846 67.1593C41.2626 66.9562 41.8018 66.9514 42.2834 67.1458C43.3124 67.5612 44.4643 67.5515 45.4862 67.1187C46.5081 66.686 47.3166 65.8656 47.7345 64.8375C47.9289 64.3559 48.3066 63.9712 48.7847 63.7681C49.2627 63.5651 49.8018 63.5602 50.2834 63.7546C50.765 63.949 51.1497 64.3268 51.3527 64.8048C51.5558 65.2828 51.5607 65.8219 51.3663 66.3035Z" fill="black"/>
<path d="M71.7092 53.5238C71.3811 53.3927 71.0994 53.167 70.8999 52.8753C70.7003 52.5837 70.592 52.2394 70.5887 51.8861C70.5853 51.5328 70.687 51.1864 70.881 50.8911C71.0749 50.5957 71.3522 50.3646 71.6778 50.2273C72.7416 49.7738 73.5821 48.917 74.015 47.8446C74.4479 46.7723 74.4377 45.572 73.9868 44.5071C73.8942 44.2916 73.845 44.0599 73.842 43.8254C73.839 43.5908 73.8822 43.3579 73.9691 43.1401C74.0561 42.9222 74.1851 42.7236 74.3489 42.5556C74.5126 42.3876 74.7078 42.2535 74.9233 42.1609C75.1389 42.0684 75.3705 42.0192 75.6051 42.0161C75.8397 42.0131 76.0725 42.0563 76.2904 42.1433C76.7304 42.3189 77.0826 42.6621 77.2695 43.0975C78.0906 45.0344 78.1094 47.2181 77.3219 49.169C76.5344 51.1198 75.0049 52.6785 73.0693 53.5027C72.6365 53.6893 72.1475 53.6969 71.7092 53.5238V53.5238Z" fill="black"/>
<path d="M74.4321 58.9944C74.0959 58.8667 73.8063 58.6403 73.6012 58.3449C73.3961 58.0496 73.2852 57.6991 73.283 57.3395C73.2808 56.9799 73.3874 56.6281 73.5888 56.3303C73.7903 56.0324 74.0771 55.8024 74.4116 55.6706C76.8739 54.6216 78.8195 52.6386 79.8213 50.1568C80.8232 47.6749 80.7995 44.897 79.7554 42.4326C79.5702 41.9965 79.5658 41.5048 79.7431 41.0655C79.9204 40.6261 80.265 40.2753 80.7011 40.09C81.1371 39.9048 81.6289 39.9003 82.0682 40.0777C82.5075 40.255 82.8583 40.5996 83.0436 41.0356C84.4497 44.373 84.4781 48.1311 83.1225 51.4893C81.7669 54.8475 79.1375 57.5328 75.8086 58.9588C75.593 59.0557 75.3602 59.1088 75.1239 59.1149C74.8876 59.121 74.6524 59.0801 74.4321 58.9944Z" fill="black"/>
<path d="M14.6349 30.4847C14.4173 30.3977 14.2191 30.2686 14.0514 30.1049C13.8838 29.9412 13.75 29.7461 13.6579 29.5306C12.8368 27.5936 12.818 25.41 13.6055 23.4591C14.393 21.5082 15.9225 19.9496 17.8582 19.1254C18.2942 18.9402 18.786 18.9357 19.2253 19.1131C19.6646 19.2904 20.0155 19.635 20.2007 20.071C20.386 20.5071 20.3904 20.9988 20.2131 21.4381C20.0357 21.8774 19.6911 22.2283 19.2551 22.4136C18.1913 22.867 17.3507 23.7239 16.9179 24.7962C16.485 25.8686 16.4951 27.0688 16.9461 28.1337C17.085 28.4586 17.1242 28.8174 17.0587 29.1646C16.9933 29.5118 16.8261 29.8318 16.5784 30.0837C16.3307 30.3357 16.0137 30.5083 15.6676 30.5797C15.3216 30.6511 14.9621 30.618 14.6349 30.4847V30.4847Z" fill="black"/>
<path d="M8.90453 32.543C8.68695 32.456 8.48867 32.327 8.32102 32.1633C8.15337 31.9996 8.01965 31.8044 7.92752 31.589C6.5214 28.2516 6.49304 24.4935 7.84864 21.1353C9.20423 17.7771 11.8336 15.0918 15.1625 13.6658C15.3784 13.5741 15.6103 13.5258 15.8449 13.5237C16.0794 13.5216 16.3121 13.5657 16.5296 13.6535C16.7472 13.7413 16.9453 13.8711 17.1126 14.0355C17.28 14.1998 17.4133 14.3956 17.5051 14.6115C17.5968 14.8274 17.6451 15.0592 17.6472 15.2938C17.6493 15.5283 17.6052 15.761 17.5174 15.9786C17.4296 16.1961 17.2998 16.3942 17.1355 16.5616C16.9711 16.7289 16.7754 16.8623 16.5595 16.954C14.0972 18.003 12.1516 19.986 11.1498 22.4678C10.1479 24.9497 10.1716 27.7276 11.2157 30.192C11.3546 30.5169 11.3938 30.8757 11.3284 31.223C11.2629 31.5702 11.0957 31.8901 10.848 32.142C10.6003 32.394 10.2833 32.5667 9.93723 32.638C9.59118 32.7094 9.23173 32.6763 8.90453 32.543V32.543Z" fill="black"/>
</svg>
