<svg width="62" height="62" viewBox="0 0 62 62" fill="none" xmlns="http://www.w3.org/2000/svg">
<path d="M44.3771 37.0591V42.4074L32.4909 30.5116L33.4719 29.5306C34.7621 28.2403 35.5071 26.5328 35.5728 24.7365L35.5729 24.7342C35.6276 22.9157 34.9807 21.2067 33.7213 19.958C33.721 19.9577 33.7208 19.9575 33.7206 19.9573L30.0367 16.2734C28.8335 15.0702 27.2129 14.422 25.4796 14.422C23.6254 14.422 21.7985 15.1891 20.4644 16.5232L19.3483 17.6394L18.5837 16.8748L19.6998 15.7586C20.9901 14.4683 21.7351 12.7608 21.8008 10.9645L21.8008 10.9622C21.8556 9.14369 21.2087 7.43466 19.9492 6.18588C19.949 6.18568 19.9488 6.18548 19.9486 6.18528L16.2646 2.50134L16.2635 2.5002C15.0615 1.30925 13.442 0.65 11.6971 0.65C9.84294 0.65 8.01611 1.41708 6.68201 2.75117L5.70116 3.73203L3.03393 1.0648C2.49127 0.522142 1.61385 0.522142 1.07119 1.0648C0.528531 1.60746 0.528531 2.48488 1.07119 3.02754L3.73842 5.69477L2.75756 6.67562C0.0627913 9.37039 -0.0775696 13.6625 2.50773 16.2478L6.19276 19.9329C7.39488 21.135 9.01491 21.7946 10.7499 21.7946C12.604 21.7946 14.4309 21.0275 15.765 19.6934L16.6209 18.8375L17.3855 19.6021L16.54 20.4476C13.8452 23.1424 13.7049 27.4346 16.2901 30.0199L19.9752 33.7049C21.1773 34.907 22.7973 35.5666 24.5323 35.5666C26.3865 35.5666 28.2133 34.7996 29.5474 33.4655L30.5283 32.4846L33.7118 35.6682H33.2764C32.5106 35.6682 31.8854 36.2933 31.8854 37.0591C31.8854 37.825 32.5106 38.4501 33.2764 38.4501H36.3993C36.4271 38.4501 36.4535 38.4479 36.4778 38.4445L51.3979 53.3646H47.85C47.0841 53.3646 46.459 53.9898 46.459 54.7556C46.459 55.5214 47.0841 56.1466 47.85 56.1466H54.0958C54.1236 56.1466 54.15 56.1443 54.1742 56.141L58.9699 60.9366C59.2492 61.216 59.6011 61.341 59.9564 61.341C60.3198 61.341 60.6655 61.2004 60.9366 60.9429L60.9367 60.943L60.943 60.9366C61.4857 60.394 61.4857 59.5165 60.943 58.9739L47.159 45.1899V37.0591C47.159 36.2933 46.5339 35.6682 45.768 35.6682C45.0022 35.6682 44.3771 36.2933 44.3771 37.0591ZM7.3163 7.34341L7.31638 7.3435L7.32272 7.33715C7.75112 6.90875 7.8225 6.29383 7.58839 5.79109L8.64475 4.73473L8.64476 4.73474L8.6465 4.73297C9.13916 4.23327 9.73577 3.8771 10.3724 3.66919C8.87585 6.40776 6.56431 8.65351 3.7677 10.0641C3.98209 9.55257 4.29945 9.06962 4.7203 8.64877L5.76581 7.60326C5.93428 7.6858 6.12508 7.74155 6.33615 7.74155C6.69951 7.74155 7.04526 7.6009 7.3163 7.34341ZM13.8026 17.72L13.8022 17.7203C12.9813 18.5412 11.8725 19.0023 10.7603 19.0023C9.75503 19.0023 8.83587 18.6297 8.16591 17.9597L8.16556 17.9594L4.48088 14.2851C4.48079 14.285 4.48071 14.2849 4.48062 14.2848C4.15357 13.9577 3.90703 13.5697 3.73811 13.1521C8.01922 11.3981 11.4891 8.02847 13.4041 3.82724C13.7331 3.99392 14.0326 4.20517 14.2915 4.46408L17.9765 8.14911C18.6738 8.84642 19.0477 9.81257 19.0192 10.8783C18.9805 11.9628 18.5297 12.9931 17.7365 13.7965C17.7362 13.7968 17.7359 13.7971 17.7356 13.7974L13.8026 17.72ZM20.9218 21.1883L20.9218 21.1884L20.9282 21.182C21.3341 20.7762 21.4215 20.1934 21.2237 19.6998L22.4272 18.4963C22.9153 18.0082 23.5135 17.6495 24.1564 17.4401C22.6601 20.1863 20.348 22.4262 17.55 23.8363C17.7644 23.3247 18.0818 22.8417 18.5027 22.4208L19.4437 21.4798C19.5955 21.5448 19.762 21.5864 19.9416 21.5864C20.305 21.5864 20.6507 21.4458 20.9218 21.1883ZM27.5742 31.4923C26.7533 32.3133 25.6445 32.7743 24.5323 32.7743C23.527 32.7743 22.6079 32.4017 21.9379 31.7317L18.2529 28.0467C17.9257 27.7195 17.6791 27.3314 17.5101 26.9137C21.7912 25.1597 25.2611 21.7901 27.1762 17.5888C27.5052 17.7555 27.8046 17.9668 28.0635 18.2257L31.7485 21.9107C32.4458 22.608 32.8197 23.5742 32.7913 24.6399C32.7525 25.7244 32.3017 26.7548 31.5084 27.5582C31.5081 27.5584 31.5079 27.5587 31.5076 27.559L29.603 29.4636C29.5913 29.4706 29.5797 29.4786 29.5683 29.4875C29.5289 29.5181 29.5012 29.5526 29.4817 29.5849L27.5742 31.4923ZM29.7892 29.412C29.7887 29.412 29.7882 29.412 29.7878 29.412C29.7919 29.4119 29.7931 29.412 29.7892 29.412Z" fill="black" stroke="black" stroke-width="0.7"/>
</svg>
