<svg width="42" height="53" viewBox="0 0 42 53" fill="none" xmlns="http://www.w3.org/2000/svg">
<path d="M11.4717 23.3854C13.5128 23.3854 15.1675 21.7307 15.1675 19.6896C15.1675 17.6484 13.5128 15.9938 11.4717 15.9938C9.43055 15.9938 7.77588 17.6484 7.77588 19.6896C7.77588 21.7307 9.43055 23.3854 11.4717 23.3854Z" fill="black" stroke="black"/>
<path d="M40.8327 19.6896C40.8327 16.4044 39.3133 13.4786 36.9418 11.5588C36.87 11.3945 36.7981 11.2303 36.7263 11.066V2.03178C36.7263 1.7238 36.5825 1.42608 36.3464 1.23102C36.1 1.03597 35.7818 0.964103 35.4841 1.0257L28.2875 2.62722C25.9878 1.55954 23.4829 1.00517 20.9164 1.00517C18.3498 1.00517 15.8449 1.55954 13.5555 2.62722L6.35894 1.0257C6.05095 0.953837 5.7327 1.03597 5.49658 1.23102C5.25019 1.42608 5.11673 1.7238 5.11673 2.03178V11.066C5.04487 11.2303 4.97301 11.3945 4.90114 11.5588C2.51939 13.4786 1 16.4044 1 19.6896C1 22.2561 1.92395 24.6071 3.46388 26.4242V27.8512V34.8835C3.46388 35.0683 3.46388 35.2634 3.47415 35.4482C3.47415 35.4995 3.47415 35.5508 3.48441 35.6021C3.49468 35.7561 3.49468 35.9101 3.50494 36.0641C3.50494 36.1052 3.50494 36.136 3.51521 36.1771C3.52548 36.3618 3.54601 36.5466 3.56654 36.7314C3.56654 36.7725 3.57681 36.8238 3.58707 36.8649C3.60761 37.0086 3.61787 37.1523 3.6384 37.2961C3.64867 37.3474 3.64867 37.409 3.65894 37.4603C3.68974 37.6348 3.71027 37.8094 3.74107 37.9839C3.75133 38.0352 3.7616 38.0866 3.77186 38.1379C3.7924 38.2611 3.8232 38.3843 3.84373 38.5075C3.86426 38.5896 3.87453 38.6615 3.89506 38.7436C3.91559 38.8463 3.94639 38.9489 3.96692 39.0413C4.00799 39.1953 4.03879 39.339 4.07985 39.493C4.10038 39.5546 4.12091 39.6265 4.13118 39.6881C4.16198 39.801 4.19278 39.9139 4.23384 40.0269C4.24411 40.0679 4.25437 40.0987 4.26464 40.1398C4.73688 41.6284 5.40418 43.0554 6.25628 44.3695C8.04259 47.1208 10.5475 49.3075 13.5145 50.6934C13.5453 50.7037 13.5658 50.7139 13.5966 50.7242C15.8243 51.7611 18.2985 52.336 20.9164 52.336C23.5342 52.336 26.0084 51.7611 28.2361 50.7242C28.2669 50.7139 28.2875 50.7037 28.3183 50.6934C31.2749 49.3075 33.7901 47.1208 35.5764 44.3695C36.4388 43.0451 37.0958 41.6181 37.5681 40.1398C37.5784 40.0987 37.5886 40.0679 37.5989 40.0269C37.6297 39.9139 37.6707 39.801 37.7015 39.6881C37.7221 39.6265 37.7426 39.5546 37.7529 39.493C37.7939 39.339 37.835 39.1953 37.8658 39.0413C37.8863 38.9387 37.9171 38.836 37.9377 38.7436C37.9582 38.6615 37.9685 38.5896 37.989 38.5075C38.0198 38.3843 38.0403 38.2611 38.0609 38.1379C38.0711 38.0866 38.0814 38.0352 38.0917 37.9839C38.1225 37.8094 38.1533 37.6348 38.1738 37.4603C38.1841 37.409 38.1841 37.3474 38.1943 37.2961C38.2149 37.1523 38.2354 37.0086 38.2456 36.8649C38.2559 36.8238 38.2559 36.7725 38.2662 36.7314C38.2867 36.5466 38.3072 36.3618 38.3175 36.1771C38.3175 36.136 38.3175 36.1052 38.3278 36.0641C38.338 35.9101 38.3483 35.7561 38.3483 35.6021C38.3483 35.5508 38.3483 35.4995 38.3586 35.4482C38.3688 35.2634 38.3688 35.0683 38.3688 34.8835V27.8615V26.4345C39.9088 24.6071 40.8327 22.2561 40.8327 19.6896ZM36.3053 35.3866C36.3053 35.4276 36.3053 35.479 36.2951 35.52C36.2848 35.6535 36.2848 35.7869 36.2745 35.9204C36.2745 35.9512 36.2745 35.9923 36.2643 36.0231C36.254 36.1873 36.2335 36.3516 36.2232 36.5056C36.2232 36.5466 36.2129 36.5877 36.2129 36.6288C36.2027 36.752 36.1822 36.8752 36.1616 36.9983C36.1514 37.0497 36.1514 37.101 36.1411 37.1523C36.1206 37.3063 36.0898 37.4501 36.0692 37.604C36.059 37.6554 36.0487 37.7067 36.0384 37.758C36.0179 37.8607 35.9974 37.9634 35.9768 38.0558C35.9563 38.1276 35.946 38.2098 35.9255 38.2816C35.905 38.3535 35.8947 38.4356 35.8742 38.5075C35.8331 38.6717 35.792 38.8257 35.751 38.99C35.7407 39.031 35.7304 39.0618 35.7202 39.1029C35.6894 39.2158 35.6586 39.3185 35.6278 39.4314C35.6175 39.452 35.6175 39.4622 35.6072 39.4828C34.4061 43.3018 31.7574 46.4843 28.2977 48.3835C27.3532 46.4945 26.8605 44.4003 26.8605 42.2649C26.8605 39.1234 27.9487 36.0539 29.9095 33.6208C31.5726 31.5573 33.8107 30.0174 36.3053 29.1961V34.8835C36.3156 35.0478 36.3156 35.212 36.3053 35.3866ZM38.7795 19.6896C38.7795 22.8618 37.0137 25.6234 34.4164 27.0607C34.3856 27.0812 34.3548 27.0915 34.324 27.112C34.2418 27.1531 34.17 27.1942 34.0879 27.2352C34.016 27.2763 33.9339 27.3071 33.862 27.3481C33.8209 27.3687 33.7799 27.3892 33.7388 27.3995C33.2871 27.6048 32.8046 27.7588 32.3221 27.882C32.3015 27.882 32.2913 27.8923 32.2707 27.8923C32.1578 27.9231 32.0449 27.9436 31.932 27.9641C31.8806 27.9744 31.819 27.9847 31.7677 27.9949C31.6958 28.0052 31.624 28.0155 31.5418 28.0257C31.4494 28.036 31.3673 28.0462 31.2749 28.0565C31.2339 28.0565 31.1928 28.0668 31.162 28.0668C31.0491 28.077 30.9259 28.0873 30.8027 28.0976C30.7924 28.0976 30.7821 28.0976 30.7719 28.0976C30.6384 28.1078 30.505 28.1078 30.3612 28.1078C25.7209 28.1078 21.943 24.3299 21.943 19.6896C21.943 15.0493 25.7209 11.2713 30.3612 11.2713C30.4947 11.2713 30.6282 11.2713 30.7616 11.2816C30.7924 11.2816 30.8232 11.2816 30.8643 11.2919C30.9669 11.3021 31.0799 11.3021 31.1825 11.3124C31.2133 11.3124 31.2339 11.3227 31.2647 11.3227C31.3879 11.3329 31.5213 11.3535 31.6445 11.374C35.6791 11.99 38.7795 15.4805 38.7795 19.6896ZM18.7707 27.1839C18.7913 27.1634 18.8118 27.1428 18.8323 27.1223C18.9042 27.0504 18.9761 26.9786 19.0479 26.8964C19.0582 26.8862 19.0787 26.8656 19.089 26.8554C19.1506 26.7938 19.2122 26.7322 19.2635 26.6603C19.284 26.6398 19.3046 26.609 19.3251 26.5885C19.3867 26.5166 19.4586 26.4345 19.5202 26.3626C19.5304 26.3523 19.5304 26.3523 19.5407 26.3421C19.6023 26.2599 19.6742 26.1778 19.7358 26.0957C19.7563 26.0751 19.7768 26.0443 19.7974 26.0238C19.8487 25.952 19.9 25.8801 19.9513 25.8082C19.9616 25.7877 19.9719 25.7774 19.9924 25.7569C20.054 25.6748 20.1156 25.5824 20.1772 25.5002C20.1977 25.4797 20.208 25.4489 20.2285 25.4284C20.2799 25.3565 20.3209 25.2847 20.362 25.2128C20.3723 25.1923 20.3928 25.1717 20.4031 25.1512C20.4544 25.0588 20.516 24.9664 20.5673 24.874C20.5776 24.8535 20.5878 24.8329 20.5981 24.8124C20.6392 24.7303 20.6802 24.6584 20.7213 24.5763C20.7316 24.5558 20.7521 24.525 20.7624 24.5044C20.8137 24.412 20.865 24.3094 20.9061 24.217C20.9061 24.217 20.9061 24.217 20.9061 24.2067C20.9061 24.2067 20.9061 24.2067 20.9061 24.217C20.9574 24.3094 20.9985 24.412 21.0498 24.5044C21.0601 24.525 21.0806 24.5558 21.0909 24.5763C21.132 24.6584 21.173 24.7303 21.2141 24.8124C21.2243 24.8329 21.2346 24.8535 21.2449 24.874C21.2962 24.9664 21.3475 25.0588 21.4091 25.1512C21.4194 25.1717 21.4399 25.1923 21.4502 25.2128C21.4913 25.2847 21.5426 25.3565 21.5837 25.4284C21.6042 25.4489 21.6145 25.4797 21.635 25.5002C21.6966 25.5926 21.7582 25.6748 21.8198 25.7569C21.83 25.7774 21.8403 25.7877 21.8609 25.8082C21.9122 25.8801 21.9635 25.952 22.0148 26.0238C22.0354 26.0443 22.0559 26.0751 22.0764 26.0957C22.138 26.1778 22.1996 26.2599 22.2715 26.3421C22.2818 26.3523 22.2818 26.3523 22.292 26.3626C22.3536 26.4345 22.4255 26.5166 22.4871 26.5885C22.5076 26.609 22.5281 26.6398 22.5487 26.6603C22.6103 26.7219 22.6616 26.7938 22.7232 26.8554C22.7335 26.8656 22.754 26.8862 22.7643 26.8964C22.8361 26.9683 22.908 27.0504 22.9799 27.1223C23.0004 27.1428 23.0209 27.1634 23.0415 27.1839C23.062 27.2044 23.0825 27.225 23.1031 27.2455L20.9164 30.5717L18.7091 27.2558C18.7297 27.2352 18.7502 27.2147 18.7707 27.1839ZM34.673 7.71924C33.6053 6.35384 32.3426 5.1527 30.9053 4.14661L34.673 3.30479V7.71924ZM33.6053 9.73141C32.9894 9.53635 32.3631 9.39263 31.7164 9.3105C31.7061 9.3105 31.6958 9.3105 31.6856 9.3105C31.624 9.30023 31.5624 9.30023 31.4905 9.28996C31.4289 9.2797 31.3571 9.2797 31.2955 9.26943C31.2544 9.26943 31.2031 9.25916 31.162 9.25916C31.0491 9.2489 30.9361 9.2489 30.8232 9.23863C30.7924 9.23863 30.7513 9.23863 30.7206 9.23863C30.5974 9.23863 30.4742 9.22837 30.351 9.22837C30.238 9.22837 30.1251 9.22837 30.0019 9.23863C29.9711 9.23863 29.9403 9.23863 29.9095 9.23863C29.8069 9.23863 29.7145 9.2489 29.6221 9.25916C29.6015 9.25916 29.581 9.25916 29.5707 9.25916C29.4578 9.26943 29.3449 9.2797 29.232 9.28996C29.2012 9.28996 29.1704 9.30023 29.1498 9.30023C29.0574 9.3105 28.965 9.32076 28.8829 9.33103C28.8521 9.33103 28.8316 9.34129 28.8008 9.34129C28.6878 9.36183 28.5852 9.37209 28.4723 9.39262C28.4517 9.39262 28.4209 9.40289 28.4004 9.40289C28.308 9.42342 28.2259 9.43369 28.1335 9.45422C28.1027 9.46449 28.0719 9.46449 28.0411 9.47475C27.9384 9.49529 27.8255 9.52608 27.7228 9.54662C27.7126 9.54662 27.692 9.55688 27.6818 9.55688C27.5894 9.57742 27.497 9.60821 27.4046 9.63901C27.3738 9.64928 27.343 9.65955 27.3122 9.66981C27.2198 9.70061 27.1274 9.73141 27.035 9.76221C27.0247 9.76221 27.0145 9.77247 27.0042 9.77247C26.9015 9.80327 26.7989 9.84434 26.6962 9.8854C26.6654 9.89567 26.6346 9.90593 26.6038 9.9162C26.5217 9.947 26.4396 9.9778 26.3574 10.0086C26.3369 10.0189 26.3164 10.0291 26.2856 10.0394C26.1829 10.0805 26.0905 10.1215 25.9981 10.1626C25.9673 10.1729 25.9468 10.1831 25.916 10.2037C25.8441 10.2345 25.762 10.2755 25.6901 10.3166C25.6593 10.3268 25.6388 10.3474 25.608 10.3576C25.5156 10.409 25.4232 10.45 25.3308 10.5014C25.3103 10.5116 25.2897 10.5219 25.2692 10.5424C25.1974 10.5835 25.1255 10.6246 25.0434 10.6656C25.0126 10.6862 24.992 10.6964 24.9612 10.717C24.8688 10.7683 24.7867 10.8299 24.6943 10.8812C24.684 10.8915 24.6738 10.8915 24.6635 10.9018C24.5814 10.9531 24.5095 11.0044 24.4274 11.0557C24.3966 11.0763 24.3761 11.0968 24.3453 11.1173C24.2734 11.1687 24.2015 11.22 24.1297 11.2713C24.1091 11.2816 24.0989 11.2919 24.0783 11.3021C23.9962 11.3637 23.9141 11.4253 23.832 11.4972C23.8114 11.5177 23.7806 11.5383 23.7601 11.5588C23.6985 11.6101 23.6369 11.6614 23.5753 11.7128C23.5548 11.7333 23.5342 11.7436 23.5137 11.7641C23.4316 11.836 23.3597 11.8976 23.2776 11.9694C23.257 11.99 23.2365 12.0105 23.216 12.031C23.1544 12.0824 23.0928 12.144 23.0415 12.1953C23.0209 12.2158 23.0004 12.2364 22.9799 12.2569C22.908 12.3287 22.8361 12.4006 22.7643 12.4827C22.754 12.493 22.7335 12.5135 22.7232 12.5238C22.6616 12.5854 22.6 12.647 22.5487 12.7189C22.5281 12.7394 22.5076 12.7702 22.4871 12.7907C22.4255 12.8626 22.3536 12.9447 22.292 13.0166C22.2818 13.0268 22.2818 13.0268 22.2715 13.0371C22.2099 13.1192 22.138 13.2014 22.0764 13.2835C22.0559 13.304 22.0354 13.3348 22.0148 13.3554C21.9635 13.4272 21.9122 13.4991 21.8609 13.571C21.8506 13.5915 21.8403 13.6018 21.8198 13.6223C21.7582 13.7044 21.6966 13.7968 21.635 13.8789C21.6145 13.8995 21.6042 13.9303 21.5837 13.9508C21.5323 14.0227 21.4913 14.0945 21.4502 14.1664C21.4399 14.1869 21.4194 14.2075 21.4091 14.228C21.3578 14.3204 21.2962 14.4128 21.2449 14.5052C21.2346 14.5257 21.2243 14.5462 21.2141 14.5668C21.173 14.6489 21.132 14.7208 21.0909 14.8029C21.0806 14.8234 21.0601 14.8542 21.0498 14.8748C20.9985 14.9672 20.9472 15.0698 20.9061 15.1622C20.9061 15.1622 20.9061 15.1622 20.9061 15.1725C20.9061 15.1725 20.9061 15.1725 20.9061 15.1622C20.8548 15.0698 20.8137 14.9672 20.7624 14.8748C20.7521 14.8542 20.7316 14.8234 20.7213 14.8029C20.6802 14.7208 20.6392 14.6489 20.5981 14.5668C20.5878 14.5462 20.5776 14.5257 20.5673 14.5052C20.516 14.4128 20.4647 14.3204 20.4031 14.228C20.3928 14.2075 20.3723 14.1869 20.362 14.1664C20.3209 14.0945 20.2696 14.0227 20.2285 13.9508C20.208 13.9303 20.1977 13.8995 20.1772 13.8789C20.1156 13.7865 20.054 13.7044 19.9924 13.6223C19.9821 13.6018 19.9719 13.5915 19.9513 13.571C19.9 13.4991 19.8487 13.4272 19.7974 13.3554C19.7768 13.3348 19.7563 13.304 19.7358 13.2835C19.6742 13.2014 19.6126 13.1192 19.5407 13.0371C19.5304 13.0268 19.5304 13.0268 19.5202 13.0166C19.4586 12.9447 19.3867 12.8626 19.3251 12.7907C19.3046 12.7702 19.284 12.7394 19.2635 12.7189C19.2019 12.6573 19.1506 12.5854 19.089 12.5238C19.0787 12.5135 19.0582 12.493 19.0479 12.4827C18.9761 12.4109 18.9042 12.3287 18.8323 12.2569C18.8118 12.2364 18.7913 12.2158 18.7707 12.1953C18.7091 12.1337 18.6578 12.0824 18.5962 12.031C18.5757 12.0105 18.5551 11.99 18.5346 11.9694C18.4627 11.8976 18.3806 11.8257 18.2985 11.7641C18.278 11.7436 18.2574 11.7333 18.2369 11.7128C18.1753 11.6614 18.1137 11.6101 18.0521 11.5588C18.0316 11.5383 18.0008 11.5177 17.9802 11.4972C17.8981 11.4356 17.816 11.3637 17.7339 11.3021C17.7133 11.2919 17.7031 11.2816 17.6825 11.2713C17.6107 11.22 17.5388 11.1687 17.4669 11.1173C17.4361 11.0968 17.4156 11.0763 17.3848 11.0557C17.3027 11.0044 17.2308 10.9531 17.1487 10.9018C17.1384 10.8915 17.1281 10.8915 17.1179 10.8812C17.0255 10.8196 16.9434 10.7683 16.851 10.717C16.8202 10.6964 16.7996 10.6862 16.7688 10.6656C16.697 10.6246 16.6251 10.5835 16.543 10.5424C16.5224 10.5322 16.5019 10.5219 16.4814 10.5014C16.389 10.45 16.2966 10.3987 16.2042 10.3576C16.1734 10.3474 16.1529 10.3268 16.1221 10.3166C16.0502 10.2755 15.9681 10.2447 15.8962 10.2037C15.8654 10.1934 15.8449 10.1831 15.8141 10.1626C15.7217 10.1215 15.619 10.0805 15.5266 10.0394C15.5061 10.0291 15.4856 10.0189 15.4548 10.0086C15.3726 9.9778 15.2905 9.947 15.2084 9.9162C15.1776 9.90593 15.1468 9.89567 15.116 9.8854C15.0133 9.84434 14.9107 9.81354 14.808 9.77247C14.7977 9.77247 14.7875 9.76221 14.7772 9.76221C14.6848 9.73141 14.5924 9.70061 14.5 9.66981C14.4692 9.65955 14.4384 9.64928 14.4076 9.63901C14.3152 9.60821 14.2228 9.58768 14.1304 9.55688C14.1202 9.55688 14.0996 9.54662 14.0894 9.54662C13.9867 9.51582 13.8738 9.49529 13.7711 9.47475C13.7403 9.46449 13.7095 9.46449 13.6787 9.45422C13.5863 9.43369 13.5042 9.41316 13.4118 9.40289C13.3913 9.40289 13.3605 9.39262 13.3399 9.39262C13.227 9.37209 13.1243 9.35156 13.0114 9.34129C12.9806 9.34129 12.9601 9.33103 12.9293 9.33103C12.8369 9.32076 12.7445 9.3105 12.6624 9.30023C12.6316 9.30023 12.6008 9.28996 12.5802 9.28996C12.4673 9.2797 12.3544 9.26943 12.2415 9.25916C12.2209 9.25916 12.2004 9.25916 12.1901 9.25916C12.0977 9.2489 11.9951 9.2489 11.9027 9.23863C11.8719 9.23863 11.8411 9.23863 11.8103 9.23863C11.6973 9.23863 11.5844 9.22837 11.4612 9.22837C11.338 9.22837 11.2148 9.22837 11.0916 9.23863C11.0608 9.23863 11.0198 9.23863 10.989 9.23863C10.8761 9.23863 10.7631 9.2489 10.6502 9.25916C10.6091 9.25916 10.5578 9.26943 10.5167 9.26943C10.4551 9.2797 10.3833 9.2797 10.3217 9.28996C10.2601 9.30023 10.1882 9.30023 10.1266 9.3105C10.1164 9.3105 10.1061 9.3105 10.0958 9.3105C9.44906 9.39263 8.81255 9.53635 8.20685 9.73141C11.0403 5.60441 15.7422 3.0584 20.8958 3.0584C26.0494 3.0584 30.7821 5.59414 33.6053 9.73141ZM7.1597 3.31505L10.9274 4.15688C9.49012 5.16296 8.22738 6.36411 7.1597 7.72951V3.31505V3.31505ZM10.1882 11.3637C10.3217 11.3432 10.4449 11.3329 10.5681 11.3124C10.5989 11.3124 10.6194 11.3021 10.6502 11.3021C10.7529 11.2919 10.8658 11.2816 10.9684 11.2816C10.9992 11.2816 11.03 11.2816 11.0711 11.2713C11.2046 11.2611 11.338 11.2611 11.4715 11.2611C16.1118 11.2611 19.8897 15.039 19.8897 19.6793C19.8897 24.3196 16.1118 28.0976 11.4715 28.0976C11.338 28.0976 11.1943 28.0976 11.0608 28.0873C11.0506 28.0873 11.0403 28.0873 11.03 28.0873C10.9069 28.077 10.7939 28.0668 10.6707 28.0565C10.6297 28.0565 10.5886 28.0462 10.5578 28.0462C10.4654 28.036 10.373 28.0257 10.2909 28.0155C10.219 28.0052 10.1472 27.9949 10.065 27.9846C10.0137 27.9744 9.9521 27.9641 9.90077 27.9539C9.78784 27.9333 9.67491 27.9025 9.56198 27.882C9.54145 27.882 9.53118 27.8717 9.51065 27.8717C9.02814 27.7588 8.5559 27.5945 8.09392 27.3892C8.05286 27.3687 8.01179 27.3481 7.97073 27.3379C7.8886 27.3071 7.81673 27.266 7.74487 27.225C7.66274 27.1839 7.59088 27.1428 7.50875 27.1018C7.47795 27.0812 7.44715 27.071 7.41635 27.0504C4.81901 25.6234 3.05323 22.8618 3.05323 19.6896C3.05323 15.4805 6.15362 11.99 10.1882 11.3637ZM13.5247 48.3938C10.065 46.4945 7.41635 43.312 6.21521 39.493C6.20495 39.4725 6.20495 39.4622 6.19468 39.4417C6.16388 39.339 6.13308 39.2261 6.10228 39.1132C6.09202 39.0721 6.08175 39.0413 6.07149 39.0002C6.03042 38.8463 5.98936 38.682 5.94829 38.5177C5.92776 38.4459 5.90723 38.3637 5.89696 38.2919C5.87643 38.22 5.86616 38.1482 5.84563 38.066C5.8251 37.9634 5.80457 37.8607 5.78403 37.7683C5.77377 37.717 5.7635 37.6656 5.75324 37.6143C5.72244 37.4603 5.7019 37.3166 5.68137 37.1626C5.67111 37.1113 5.67111 37.0599 5.66084 37.0086C5.64031 36.8854 5.63004 36.7622 5.60951 36.639C5.60951 36.598 5.59924 36.5569 5.59924 36.5158C5.57871 36.3516 5.56844 36.1976 5.55818 36.0333C5.55818 36.0025 5.55818 35.9615 5.54791 35.9307C5.53765 35.7972 5.52738 35.6637 5.52738 35.5303C5.52738 35.4892 5.52738 35.4379 5.51711 35.3968C5.50685 35.2326 5.50685 35.0683 5.50685 34.8938V29.2166C8.00153 30.0379 10.2395 31.5778 11.9027 33.6413C13.8738 36.0744 14.9517 39.144 14.9517 42.2854C14.962 44.4003 14.4692 46.5048 13.5247 48.3938ZM15.3932 49.2561C16.4608 47.09 17.0152 44.7082 17.0152 42.2752C17.0152 38.6717 15.773 35.1402 13.5042 32.3478C12.8574 31.547 12.1388 30.8181 11.3586 30.1611C11.3996 30.1611 11.4304 30.1611 11.4715 30.1611C11.5844 30.1611 11.6973 30.1611 11.8205 30.1508C11.8513 30.1508 11.8821 30.1508 11.9129 30.1508C12.0156 30.1508 12.108 30.1405 12.2004 30.1303C12.2209 30.1303 12.2415 30.1303 12.2517 30.1303C12.3646 30.12 12.4776 30.1097 12.5905 30.0995C12.6213 30.0995 12.6521 30.0892 12.6726 30.0892C12.765 30.0789 12.8574 30.0687 12.9396 30.0584C12.9704 30.0584 12.9909 30.0481 13.0217 30.0481C13.1346 30.0276 13.2373 30.0174 13.3502 29.9968C13.3707 29.9968 13.4015 29.9866 13.4221 29.9866C13.5145 29.966 13.5966 29.9558 13.689 29.9352C13.7198 29.925 13.7506 29.925 13.7814 29.9147C13.884 29.8942 13.997 29.8634 14.0996 29.8428C14.1099 29.8428 14.1304 29.8326 14.1407 29.8326C14.2331 29.812 14.3255 29.7812 14.4179 29.7504C14.4487 29.7402 14.4795 29.7299 14.5103 29.7196C14.6027 29.6888 14.6951 29.658 14.7875 29.6272C14.7977 29.6272 14.808 29.617 14.8183 29.617C14.9209 29.5862 15.0236 29.5451 15.1262 29.504C15.157 29.4938 15.1878 29.4835 15.2186 29.4732C15.3008 29.4424 15.3829 29.4116 15.465 29.3808C15.4856 29.3706 15.5061 29.3603 15.5369 29.3501C15.6396 29.309 15.7319 29.2679 15.8243 29.2269C15.8551 29.2166 15.8757 29.2063 15.9065 29.1858C15.9783 29.155 16.0605 29.1139 16.1323 29.0729C16.1631 29.0626 16.1837 29.0421 16.2145 29.0318C16.3069 28.9805 16.3992 28.9394 16.4916 28.8881C16.5122 28.8778 16.5327 28.8675 16.5532 28.8573C16.6251 28.8162 16.697 28.7751 16.7791 28.7341C16.8099 28.7135 16.8304 28.7033 16.8612 28.6828C16.9434 28.6314 17.0255 28.5801 17.0973 28.539L20.0745 33.0048C20.2696 33.2923 20.5878 33.4668 20.9266 33.4668C21.2654 33.4668 21.5939 33.2923 21.7787 33.0048L24.7559 28.539C24.838 28.5904 24.9202 28.6417 24.992 28.6828C25.0228 28.7033 25.0434 28.7135 25.0742 28.7341C25.146 28.7751 25.2179 28.8162 25.3 28.8573C25.3205 28.8675 25.3411 28.8778 25.3616 28.8881C25.454 28.9394 25.5464 28.9907 25.6388 29.0318C25.6696 29.0421 25.6901 29.0626 25.7209 29.0729C25.7928 29.1139 25.8749 29.1447 25.9468 29.1858C25.9776 29.1961 25.9981 29.2063 26.0289 29.2269C26.1213 29.2679 26.224 29.309 26.3164 29.3501C26.3369 29.3603 26.3574 29.3706 26.3882 29.3808C26.4704 29.4116 26.5525 29.4424 26.6346 29.4732C26.6654 29.4835 26.6962 29.4938 26.727 29.504C26.8297 29.5451 26.9323 29.5759 27.035 29.617C27.0453 29.617 27.0555 29.6272 27.0658 29.6272C27.1582 29.658 27.2506 29.6888 27.343 29.7196C27.3738 29.7299 27.4046 29.7402 27.4354 29.7504C27.5278 29.7812 27.6202 29.8018 27.7126 29.8326C27.7228 29.8326 27.7434 29.8428 27.7536 29.8428C27.8563 29.8736 27.9692 29.8942 28.0719 29.9147C28.1027 29.925 28.1335 29.925 28.1643 29.9352C28.2567 29.9558 28.3388 29.9763 28.4312 29.9866C28.4517 29.9866 28.4825 29.9968 28.5031 29.9968C28.616 30.0174 28.7186 30.0379 28.8316 30.0481C28.8624 30.0481 28.8829 30.0584 28.9137 30.0584C29.0061 30.0687 29.0985 30.0789 29.1806 30.0892C29.2114 30.0892 29.2422 30.0995 29.2628 30.0995C29.3757 30.1097 29.4886 30.12 29.6015 30.1303C29.6221 30.1303 29.6426 30.1303 29.6529 30.1303C29.7453 30.1405 29.8479 30.1405 29.9403 30.1508C29.9711 30.1508 30.0019 30.1508 30.0327 30.1508C30.1456 30.1508 30.2586 30.1611 30.3818 30.1611C30.4228 30.1611 30.4536 30.1611 30.4947 30.1611C29.7145 30.8181 28.9958 31.547 28.3491 32.3478C26.0905 35.1504 24.838 38.6717 24.838 42.2752C24.838 44.7082 25.4027 47.09 26.4601 49.2561C24.7456 49.9132 22.8772 50.2828 20.9369 50.2828C18.9966 50.2828 17.1076 49.9234 15.3932 49.2561Z" fill="black" stroke="black"/>
<path d="M30.3613 23.3854C32.4025 23.3854 34.0572 21.7307 34.0572 19.6896C34.0572 17.6484 32.4025 15.9938 30.3613 15.9938C28.3202 15.9938 26.6655 17.6484 26.6655 19.6896C26.6655 21.7307 28.3202 23.3854 30.3613 23.3854Z" fill="black" stroke="black"/>
</svg>
