<svg width="62" height="52" viewBox="0 0 62 52" fill="none" xmlns="http://www.w3.org/2000/svg">
<path d="M55.418 19.1531C55.9926 18.7426 56.532 18.2736 57.0246 17.781C60.5191 14.2747 61.8443 9.15015 60.4605 4.38909C60.0618 3.00533 58.9947 1.9382 57.6109 1.53949C52.8498 0.155733 47.7253 1.48086 44.219 4.97543C42.8235 6.37091 41.7563 8.05957 41.0762 9.88894C37.8631 8.85699 34.4623 8.30583 30.9794 8.30583C27.5318 8.30583 24.1779 8.84526 20.9883 9.85376C20.3081 8.02439 19.241 6.35919 17.8572 4.97543C14.3626 1.48086 9.22632 0.155733 4.47698 1.53949C3.09323 1.9382 2.02609 3.00533 1.62738 4.38909C0.243624 9.15015 1.56875 14.2747 5.06332 17.781C5.54412 18.2618 6.06009 18.6957 6.59953 19.1062C4.87569 20.9942 3.36294 23.105 2.10818 25.4034C0.630607 28.0889 0.630607 31.2903 2.10818 33.964C3.32776 36.1803 4.78188 38.2208 6.42362 40.0619C10.0472 44.1311 14.5854 47.2035 19.7218 49.0798C19.7335 49.0798 19.7452 49.0915 19.7569 49.0915C19.9563 49.1618 20.1557 49.2322 20.355 49.3026C20.4606 49.3377 20.5661 49.3729 20.6716 49.4081C20.7889 49.4433 20.9062 49.4902 21.0352 49.5254C21.1993 49.5723 21.3635 49.6309 21.5394 49.6778C21.598 49.6895 21.6567 49.713 21.7153 49.7247C21.9029 49.7834 22.1023 49.8303 22.2899 49.8889C22.3134 49.9006 22.3368 49.9006 22.3603 49.9124C22.5714 49.971 22.7824 50.0296 23.0053 50.0765C23.0404 50.0883 23.0639 50.0883 23.0991 50.1C23.5564 50.2172 24.0138 50.3111 24.4711 50.4049C24.4828 50.4049 24.4946 50.4049 24.5063 50.4166C24.9636 50.5104 25.421 50.5925 25.8783 50.6629H25.89C26.3357 50.7332 26.7813 50.7919 27.2269 50.8388C27.2386 50.8388 27.2503 50.8388 27.2503 50.8388C27.4731 50.8622 27.6842 50.8857 27.907 50.9091C27.9422 50.9091 27.9657 50.9209 28.0009 50.9209C28.0009 50.9209 28.0009 50.9209 28.0126 50.9209C28.2119 50.9443 28.423 50.956 28.6224 50.9678C28.6458 50.9678 28.6576 50.9678 28.681 50.9678C28.7865 50.9795 28.8921 50.9795 28.9976 50.9912C29.1149 51.0029 29.2204 51.0029 29.3377 51.0147C29.3846 51.0147 29.4432 51.0147 29.4902 51.0264C29.5605 51.0264 29.6309 51.0264 29.7012 51.0381C29.8302 51.0381 29.9592 51.0498 30.0765 51.0498C30.0999 51.0498 30.1234 51.0498 30.1468 51.0498C30.2055 51.0498 30.2641 51.0498 30.3228 51.0498C30.5338 51.0498 30.7566 51.0616 30.9677 51.0616C31.1788 51.0616 31.4016 51.0616 31.6127 51.0498C31.6713 51.0498 31.73 51.0498 31.7886 51.0498C31.8121 51.0498 31.8355 51.0498 31.859 51.0498C31.9879 51.0498 32.1169 51.0381 32.2342 51.0381C32.3046 51.0381 32.3749 51.0381 32.4453 51.0264C32.4453 51.0264 32.4453 51.0264 32.457 51.0264C32.4922 51.0264 32.5274 51.0264 32.5626 51.0147C32.6446 51.0147 32.7385 51.0029 32.8206 51.0029C32.9613 50.9912 33.1137 50.9912 33.2544 50.9795C33.2779 50.9795 33.2896 50.9795 33.3131 50.9795C33.5124 50.9678 33.7235 50.9443 33.9229 50.9326C33.9229 50.9326 33.9229 50.9326 33.9346 50.9326C33.9698 50.9326 33.9932 50.9209 34.0284 50.9209C34.2512 50.8974 34.4623 50.874 34.6851 50.8505C34.6968 50.8505 34.7086 50.8505 34.7203 50.8505C35.1659 50.8036 35.6115 50.745 36.0571 50.6746C36.0689 50.6746 36.0806 50.6746 36.0923 50.6746C36.5497 50.6042 36.9953 50.5221 37.4409 50.4401C37.4526 50.4401 37.4643 50.4401 37.4761 50.4283C37.9334 50.3345 38.3908 50.229 38.8481 50.1234C38.8716 50.1117 38.9067 50.1117 38.9302 50.1C39.1413 50.0413 39.3641 49.9944 39.5752 49.9358C39.5986 49.9358 39.6221 49.9241 39.6338 49.9124C39.8332 49.8537 40.0208 49.8068 40.2201 49.7482C40.267 49.7365 40.3139 49.7247 40.3609 49.7013C40.5368 49.6544 40.7127 49.5957 40.8886 49.5371C40.9941 49.5019 41.0996 49.4667 41.2052 49.4316C41.3224 49.3964 41.4514 49.3495 41.5687 49.3143C41.7446 49.2557 41.9205 49.197 42.0964 49.1267C42.1199 49.1149 42.1433 49.1032 42.1785 49.1032C42.1902 49.1032 42.202 49.0915 42.2137 49.0915C47.3735 47.2152 51.9117 44.1311 55.547 40.0502C55.5939 39.9915 55.6525 39.9329 55.6994 39.886C55.6994 39.886 55.6994 39.886 55.6994 39.8743C57.2708 38.0918 58.6546 36.1217 59.839 33.9874C61.3166 31.302 61.3166 28.1006 59.839 25.4269C58.6194 23.1167 57.1184 21.0294 55.418 19.1531ZM45.8842 6.64063C48.7807 3.74412 53.0257 2.65353 56.9659 3.80275C57.564 3.97865 58.0448 4.45945 58.2207 5.05752C59.3582 8.99771 58.2793 13.2428 55.3828 16.1393C54.9138 16.6084 54.3978 17.0423 53.8466 17.4292C53.3541 16.9602 52.8498 16.5028 52.3221 16.0689C52.9554 15.7406 53.53 15.3184 54.046 14.8142C55.8284 13.0317 56.4969 10.4166 55.7933 8.00093C55.547 7.15661 54.8903 6.49991 54.046 6.25365C51.6185 5.55004 49.0152 6.21847 47.2327 8.00093C46.2477 8.98598 45.6027 10.229 45.333 11.5541C44.6646 11.2375 43.9961 10.9443 43.316 10.6629C43.8672 9.15015 44.7467 7.77812 45.8842 6.64063ZM48.8745 9.63095C50.0472 8.45827 51.771 8.01266 53.3776 8.48173C53.4479 8.50518 53.5065 8.56382 53.53 8.63418C53.9991 10.229 53.5535 11.9646 52.3808 13.1373C51.7358 13.7822 50.9267 14.2161 50.0354 14.3803C49.2263 13.8057 48.4054 13.278 47.5494 12.7854C47.5611 11.601 48.0419 10.4753 48.8745 9.63095ZM11.9587 14.3568C11.1026 14.1692 10.3286 13.7588 9.70712 13.1255C8.53444 11.9528 8.08882 10.229 8.55789 8.62245C8.58135 8.55209 8.63998 8.49346 8.71034 8.47C10.3052 8.00093 12.0407 8.44655 13.2134 9.61922C14.0343 10.4401 14.5034 11.5424 14.5385 12.6916C13.659 13.2193 12.7913 13.7705 11.9587 14.3568ZM3.87892 5.04579C4.05482 4.44773 4.53562 3.96693 5.13368 3.79103C6.16564 3.48613 7.22104 3.34541 8.26472 3.34541C11.2081 3.34541 14.0695 4.49463 16.2037 6.6289C17.3412 7.7664 18.2207 9.13843 18.7836 10.6395C18.1035 10.9092 17.4233 11.2023 16.7666 11.5307C16.5086 10.1938 15.8519 8.96253 14.8669 7.97748C13.0844 6.19501 10.4694 5.52659 8.05364 6.23019C7.20932 6.47645 6.55262 7.13315 6.30636 7.97748C5.60275 10.3932 6.27118 13.0083 8.05364 14.7907C8.56962 15.3067 9.14423 15.7289 9.77748 16.0455C9.2615 16.4794 8.74552 16.9367 8.253 17.4058C7.70184 17.0188 7.18586 16.5966 6.71679 16.1158C3.82028 13.2311 2.7297 8.98598 3.87892 5.04579ZM6.71679 36.7549C10.1762 32.2636 14.7613 28.8394 20.0501 26.8106C21.645 26.2009 23.3688 26.4119 24.7877 27.3735C26.2067 28.3586 27.0275 29.9065 27.0275 31.6303V40.0384C25.4327 40.6951 23.8965 41.7388 22.4658 43.146C22.4541 43.1577 22.4541 43.1577 22.4424 43.1695C22.3251 43.275 22.2196 43.3923 22.1023 43.5095C22.0906 43.5213 22.0906 43.5213 22.0788 43.533C21.7739 43.8496 21.4691 44.1897 21.1759 44.5415C21.1172 44.6001 21.0703 44.6705 21.0117 44.7291C20.9413 44.8112 20.871 44.8933 20.8124 44.9754C20.742 45.0575 20.6834 45.1396 20.613 45.2217C20.5544 45.292 20.4957 45.3741 20.4371 45.4445C20.3316 45.5852 20.226 45.7259 20.1205 45.8783C20.0853 45.9253 20.0501 45.9722 20.0149 46.0308C19.9094 46.1715 19.8156 46.324 19.71 46.4647C19.6983 46.4881 19.6866 46.4999 19.6749 46.5233C15.2187 44.7526 11.2199 41.9499 8.01846 38.3263C7.58457 37.8221 7.13896 37.2944 6.71679 36.7549ZM34.9431 40.0384V31.6303C34.9431 29.9065 35.764 28.3469 37.1829 27.3735C38.5901 26.4002 40.3257 26.1891 41.9205 26.8106C47.1976 28.8276 51.7944 32.2636 55.2538 36.7549C54.8317 37.3061 54.3978 37.8338 53.9404 38.3498C50.739 41.9733 46.7402 44.776 42.284 46.5468C42.2723 46.5233 42.2606 46.5116 42.2489 46.4881C42.155 46.3357 42.0495 46.195 41.944 46.0543C41.9088 46.0073 41.8736 45.9487 41.8384 45.9018C41.7329 45.7611 41.6273 45.6086 41.5218 45.4679C41.4632 45.3976 41.4045 45.3155 41.3459 45.2451C41.2755 45.163 41.2169 45.0809 41.1465 44.9988C41.0762 44.9168 41.0058 44.8347 40.9472 44.7409C40.9003 44.6822 40.8416 44.6119 40.783 44.5532C40.4898 44.2014 40.185 43.8613 39.8801 43.5447C39.8683 43.533 39.8683 43.533 39.8566 43.5213C39.7511 43.404 39.6338 43.2985 39.5165 43.1812C39.5048 43.1695 39.5048 43.1695 39.4931 43.1577C38.0741 41.7505 36.5379 40.6951 34.9431 40.0384ZM39.9856 47.3442C37.9686 47.9657 35.8695 48.3879 33.7352 48.5755L34.5327 47.6491C35.5763 46.4295 34.732 44.5415 33.1254 44.518L28.9155 44.4477C27.2738 44.4242 26.3826 46.3474 27.4497 47.5905L28.3057 48.5755C26.148 48.3879 24.0255 47.9657 21.985 47.3442C24.6235 43.6268 27.7898 41.5981 30.9912 41.5981C34.1926 41.5981 37.3471 43.6268 39.9856 47.3442ZM57.8103 32.8265C57.4467 33.4832 57.0598 34.1281 56.661 34.7497C53.0023 30.188 48.2178 26.7051 42.7531 24.6177C40.4547 23.7382 37.8748 24.0431 35.8461 25.4386C33.8056 26.8458 32.586 29.156 32.586 31.6303V39.37C32.0466 39.2879 31.5189 39.241 30.9794 39.241C30.44 39.241 29.9006 39.2879 29.3729 39.37V31.6303C29.3729 29.156 28.1533 26.8458 26.1128 25.4386C24.0841 24.0431 21.5042 23.7382 19.2058 24.6177C13.7411 26.7051 8.96833 30.1997 5.29786 34.7497C4.88742 34.1281 4.51216 33.4832 4.14863 32.8265C3.05805 30.8564 3.05805 28.4993 4.14863 26.5292C5.54412 24.008 7.25622 21.7212 9.22632 19.7277C9.22632 19.7277 9.22632 19.7277 9.23805 19.716C9.80093 19.1413 10.3873 18.6019 10.9971 18.0742C11.0205 18.0508 11.044 18.039 11.0557 18.0273C11.173 17.9218 11.2902 17.828 11.4075 17.7224C11.4544 17.6872 11.5013 17.6403 11.5482 17.6051C11.6303 17.5348 11.7241 17.4644 11.8062 17.3941C11.8766 17.3354 11.9469 17.2768 12.0173 17.2182C12.0525 17.183 12.0994 17.1595 12.1346 17.1243C17.4233 12.9965 24.0255 10.6512 30.956 10.6512C42.1199 10.6512 52.3925 16.7374 57.7868 26.5175C58.9009 28.4993 58.9009 30.8564 57.8103 32.8265Z" fill="black" stroke="black"/>
<path d="M22.5596 32.7444C23.4081 32.7444 24.0958 32.0566 24.0958 31.2082C24.0958 30.3598 23.4081 29.672 22.5596 29.672C21.7112 29.672 21.0234 30.3598 21.0234 31.2082C21.0234 32.0566 21.7112 32.7444 22.5596 32.7444Z" fill="black" stroke="black"/>
<path d="M39.411 32.7444C40.2594 32.7444 40.9472 32.0566 40.9472 31.2082C40.9472 30.3598 40.2594 29.672 39.411 29.672C38.5625 29.672 37.8748 30.3598 37.8748 31.2082C37.8748 32.0566 38.5625 32.7444 39.411 32.7444Z" fill="black" stroke="black"/>
</svg>
