<svg width="62" height="63" viewBox="0 0 62 63" fill="none" xmlns="http://www.w3.org/2000/svg">
<path d="M53.285 53.0402L39.9933 47.503L37.231 40.7957C36.7819 39.703 35.7279 38.9974 34.5462 38.9974H32.0907C29.2965 38.9974 26.871 40.8906 26.1935 43.6025L26.1161 43.9103L26.7771 45.517L8.72157 53.0402C7.55819 53.5261 6.80713 54.6536 6.80713 55.9128C6.80713 56.3948 6.92134 56.8759 7.1362 57.3046L8.21828 59.4707C8.76899 60.5731 9.87817 61.2584 11.1112 61.2584C11.6097 61.2584 12.1091 61.1403 12.5572 60.9167L21.1635 56.6136L20.6592 57.5495C20.4618 57.9153 20.3573 58.3286 20.3573 58.7438C20.3573 60.1308 21.4848 61.2584 22.8718 61.2584H24.854C26.0483 61.2584 27.1062 60.5421 27.5504 59.433L29.9933 53.3257L32.5195 59.4601C32.9685 60.5528 34.0225 61.2584 35.2043 61.2584H38.7467C40.9089 61.2584 42.7227 59.823 43.3412 57.8631L49.4503 60.9177C49.8975 61.1403 50.3979 61.2584 50.8963 61.2584C52.1294 61.2584 53.2386 60.5731 53.7893 59.4707L54.8704 57.3056C55.0862 56.8759 55.2004 56.3948 55.2004 55.9128C55.2004 54.6536 54.4494 53.5261 53.285 53.0402ZM34.5462 40.9332C34.9401 40.9332 35.2924 41.1684 35.4414 41.5323L41.1722 55.4512H38.8658C38.407 55.4512 37.9618 55.5199 37.5282 55.6176L31.5013 40.9806C31.6948 40.9525 31.8913 40.9332 32.0917 40.9332H34.5462ZM11.6929 59.1852C11.0667 59.4968 10.2614 59.2258 9.94979 58.6045L8.86675 56.4384C8.78545 56.2767 8.74286 56.0938 8.74286 55.9128C8.74286 55.4366 9.02741 55.0098 9.46682 54.8269L25.7879 48.0267L22.7585 53.6529L11.6929 59.1852ZM25.7521 58.7138C25.605 59.0836 25.2517 59.3226 24.854 59.3226H22.8718C22.5533 59.3226 22.293 59.0623 22.293 58.7438C22.293 58.648 22.3162 58.5551 22.3627 58.4699L27.8863 48.2106L28.9345 50.757L25.7521 58.7138ZM28.1563 43.7797C28.4399 42.9163 28.9916 42.1962 29.701 41.6939L35.7318 56.3397C35.0553 56.7481 34.4523 57.2736 33.9771 57.9163L28.1563 43.7797ZM38.7467 59.3226H35.3727C36.1189 58.1409 37.4217 57.3869 38.8658 57.3869H41.4703C41.0696 58.5106 40.0069 59.3226 38.7467 59.3226ZM53.1398 56.4393L52.0578 58.6054C51.748 59.2268 50.9408 59.4988 50.3156 59.1862L43.375 55.7164L41.0357 50.034L52.5398 54.8269C52.9801 55.0098 53.2647 55.4357 53.2647 55.9128C53.2647 56.0938 53.2221 56.2767 53.1398 56.4393Z" fill="black" stroke="black" stroke-width="1.5"/>
<path d="M50.1269 11.7027C50.7086 12.4295 50.7521 13.438 50.2372 14.2114C49.6855 15.036 49.3933 15.999 49.3933 16.995C49.3933 18.3354 49.9149 19.5956 50.8634 20.5431L51.6126 21.2923L52.9811 19.9237L52.232 19.1746C51.6493 18.5919 51.329 17.8176 51.329 16.995C51.329 16.3833 51.508 15.7938 51.8468 15.2857C52.833 13.8068 52.7488 11.8807 51.6387 10.4928L50.0659 8.52806C49.6323 7.98509 49.3933 7.30371 49.3933 6.60878C49.3933 5.10085 50.4724 3.82714 51.96 3.57839L52.8059 3.43709L52.6811 3.81262C51.7742 6.52942 52.6608 9.56561 54.9478 11.4162C55.7231 12.0443 56.1683 12.9783 56.1683 13.9762C56.1683 14.854 55.8131 15.7164 55.1946 16.3387L54.5162 17.0191L55.8847 18.3877L56.568 17.7044C57.5591 16.7065 58.104 15.3825 58.104 13.9762C58.104 12.3908 57.3985 10.91 56.1073 9.86468C54.5046 8.56677 53.8658 6.38037 54.5171 4.42528L55.6592 1L51.6416 1.6688C49.2171 2.07433 47.4575 4.15137 47.4575 6.60878C47.4575 7.74215 47.8476 8.85326 48.5551 9.73692L50.1269 11.7027Z" fill="black" stroke="black" stroke-width="1.5"/>
<path d="M8.20588 21.4132L9.27924 19.8027L8.64529 19.3798C7.4945 18.6122 6.80731 17.3279 6.80731 15.9448C6.80731 14.8414 7.23705 13.8049 8.01715 13.0238L8.97727 12.0637C10.0748 10.9661 10.6788 9.50753 10.6788 7.95701V5.12213H8.74305V7.95701C8.74305 8.99069 8.34041 9.9634 7.60871 10.6951L6.64858 11.6552C5.50263 12.8012 4.87158 14.3246 4.87158 15.9448C4.87158 17.9773 5.88107 19.8637 7.57193 20.9913L8.20588 21.4132Z" fill="black" stroke="black" stroke-width="1.5"/>
<path d="M18.6452 27.0356L20.1328 25.7958L17.4063 22.5234C16.1878 21.0619 15.518 19.2104 15.518 17.3085C15.518 14.3256 17.145 11.5855 19.764 10.156L21.8614 9.01199C23.9578 7.867 25.0099 5.56832 24.6334 3.33545C26.6127 3.77003 28.2958 5.13181 29.1175 7.04722L29.3566 7.60568C29.8076 8.65872 30.036 9.77273 30.036 10.9177C30.036 13.1632 29.162 15.2741 27.5737 16.8623L27.416 17.0201L28.7845 18.3887L28.9423 18.2309C30.8964 16.2768 31.9717 13.681 31.9717 10.9177C31.9717 9.5085 31.6901 8.138 31.1355 6.84397L30.8964 6.28551C29.585 3.22705 26.5885 1.25067 23.2609 1.25067H21.6949L22.3957 2.65117C23.2474 4.35365 22.6057 6.40069 20.9342 7.31242L18.8378 8.45643C15.5954 10.2247 13.5823 13.6161 13.5823 17.3085C13.5823 19.6624 14.4117 21.9543 15.9187 23.7632L18.6452 27.0356Z" fill="black" stroke="black" stroke-width="1.5"/>
<path d="M22.2932 40.1269V41.901H24.2289V40.1269C24.2289 39.0332 24.6547 38.0044 25.4281 37.2311C27.1518 35.5083 28.1003 33.2164 28.1003 30.7802C28.1003 27.7237 26.5818 24.885 24.0382 23.1883C22.9455 22.4605 22.2932 21.2419 22.2932 19.9295C22.2932 18.771 22.7626 17.6356 23.5824 16.8159L25.881 14.5172L24.5125 13.1486L22.2138 15.4473C21.034 16.6271 20.3574 18.2599 20.3574 19.9295C20.3574 21.8914 21.3321 23.7119 22.9639 24.7988C24.9683 26.1354 26.1646 28.3712 26.1646 30.7802C26.1646 32.6995 25.4174 34.5056 24.0595 35.8625C22.9203 37.0017 22.2932 38.5164 22.2932 40.1269Z" fill="black" stroke="black" stroke-width="1.5"/>
<path d="M20.1453 30.8915L18.6325 29.6817L16.5748 32.2533C15.2692 33.888 14.55 35.939 14.55 38.0295C14.55 40.1201 15.2692 42.171 16.5758 43.8058L18.6335 46.3774L20.1462 45.1676L18.0886 42.5959C17.0549 41.3048 16.4858 39.6827 16.4858 38.0295C16.4858 36.3764 17.0549 34.7543 18.0876 33.4632L20.1453 30.8915Z" fill="black" stroke="black" stroke-width="1.5"/>
<path d="M14.6517 29.7514L16.3832 28.8852C15.0243 26.1674 12.293 24.4794 9.25389 24.4794H6.80713L7.96857 26.029C9.64878 28.2677 10.2973 31.1287 9.74847 33.8745L8.98096 37.7102C8.82319 38.5019 8.74286 39.312 8.74286 40.1172C8.74286 43.3983 10.0204 46.4829 12.3404 48.8029L12.8979 49.3604L14.2665 47.9918L13.709 47.4343C11.7549 45.4792 10.6786 42.8815 10.6786 40.1172C10.6786 39.4388 10.7454 38.7564 10.8789 38.0886L11.6465 34.2549C12.172 31.6262 11.781 28.9113 10.575 26.5594C12.3259 26.9465 13.8251 28.0973 14.6517 29.7514Z" fill="black" stroke="black" stroke-width="1.5"/>
<path d="M41.6504 29.1426C41.6504 27.1101 40.6409 25.2237 38.9501 24.0962C37.2785 22.9831 36.6068 20.8199 37.354 18.9549L38.4835 16.1258L34.4834 17.4595C31.7985 18.3538 29.7853 20.5286 29.0981 23.2764L30.9748 23.7448C31.5014 21.6436 33.0412 19.9798 35.096 19.2946L35.2499 19.2433C34.7321 21.6891 35.7445 24.2849 37.8767 25.7057C39.0275 26.4752 39.7147 27.7595 39.7147 29.1426C39.7147 29.975 39.4679 30.7696 39.0159 31.4423C38.4748 30.4512 37.6473 29.6217 36.5885 29.0923C35.6177 28.6074 34.5308 28.3509 33.4439 28.3509H30.2615L31.933 31.1355C32.9473 32.8273 32.6822 34.9827 31.2875 36.3774L32.656 37.746C34.6382 35.7638 35.0486 32.7237 33.682 30.2924C34.3885 30.3254 35.0902 30.5083 35.7222 30.8248C36.9911 31.4587 37.7789 32.7324 37.7789 34.1513C37.7789 35.1453 37.3918 36.0793 36.6891 36.783L36.1268 37.3453L37.4953 38.7138L38.0577 38.1515C39.1262 37.083 39.7147 35.6631 39.7147 34.1513C39.7147 33.9732 39.6943 33.799 39.6779 33.6238L39.8734 33.4322C41.0193 32.2863 41.6504 30.7628 41.6504 29.1426Z" fill="black" stroke="black" stroke-width="1.5"/>
<path d="M39.435 10.1976C39.2269 12.234 40.3496 14.191 42.2834 15.0186C44.2511 15.8625 45.5219 17.7895 45.5219 19.9295C45.5219 21.3571 44.9663 22.6986 43.9568 23.708L42.9018 24.763L44.2704 26.1316L45.3254 25.0766C46.7007 23.7013 47.4576 21.8739 47.4576 19.9295C47.4576 17.0143 45.7261 14.3885 43.0451 13.2406C41.7743 12.6957 41.0958 11.3271 41.4317 9.98565L41.9785 7.7973L39.4892 8.21155C36.2555 8.75065 33.9075 11.5217 33.9075 14.8008H35.8432C35.8432 12.5999 37.3327 10.7203 39.435 10.1976Z" fill="black" stroke="black" stroke-width="1.5"/>
<path d="M51.4413 41.3077L51.1828 41.481C49.4813 42.6153 48.2705 44.3323 47.775 46.3164L47.4856 47.474L49.3623 47.9424L49.6517 46.7849C50.0311 45.2701 50.9564 43.9577 52.2562 43.0915L52.5146 42.9182C54.8027 41.3938 56.1683 38.8426 56.1683 36.0938H54.2326C54.2326 38.1941 53.1892 40.1434 51.4413 41.3077Z" fill="black" stroke="black" stroke-width="1.5"/>
<path d="M2.93573 22.0869V19.6401H1V22.0869C1 25.126 2.68796 27.8573 5.40669 29.2162L6.27293 27.4847C4.21428 26.4558 2.93573 24.3875 2.93573 22.0869Z" fill="black" stroke="black" stroke-width="1.5"/>
<path d="M59.0797 19.5201L58.7584 22.0908C58.4031 24.9315 56.5313 27.356 53.8735 28.4197L54.5917 30.217C57.9037 28.892 60.2363 25.8703 60.6786 22.3308L60.9999 19.7602L59.0797 19.5201Z" fill="black" stroke="black" stroke-width="1.5"/>
<path d="M50.3902 34.3923L52.2669 33.9239C51.5904 31.2119 49.1649 29.3188 46.3707 29.3188H43.9549L44.8831 31.1723C45.6699 32.7479 45.2431 34.6904 43.8678 35.7899C42.4586 36.9175 41.6504 38.5997 41.6504 40.4047C41.6504 41.5739 41.993 42.7073 42.6425 43.6829L43.7487 45.3418L45.3593 44.2684L44.253 42.6095C43.8165 41.9543 43.5861 41.1916 43.5861 40.4047C43.5861 39.19 44.1301 38.0596 45.0776 37.3017C46.8778 35.8616 47.6047 33.4671 46.9979 31.3019C48.6297 31.5507 49.9789 32.7518 50.3902 34.3923Z" fill="black" stroke="black" stroke-width="1.5"/>
</svg>
