<svg height='100px' width='100px'  fill="#000000" xmlns="http://www.w3.org/2000/svg" viewBox="0 0 48 48" x="0px" y="0px"><title>Fire</title><g data-name="Layer 1"><path d="M18.38,9.32a16,16,0,0,1,8.4,5.47q2.77,3.74,1.12,9.31a6.32,6.32,0,0,0,2.31-2.9,9.74,9.74,0,0,0,.4-4.3q7.61,6.39,5.53,13.73c-.88,3.12-5,7.8-11.65,8s-12.71-3.35-13.06-10,5.48-8.88,7-12.52A8.41,8.41,0,0,0,18.38,9.32Zm3.56,4.88a12.9,12.9,0,0,1-.84,3.11,10.31,10.31,0,0,1-1.77,2.82l-.42.48-.39.44L16.8,22.87c-1.88,2.09-2.56,3.54-2.44,5.7.23,4.47,4.29,7.36,10,7.15,4.49-.16,8.16-3.12,8.94-5.89a8,8,0,0,0-.62-6l-.25-.45-.27.45a14.93,14.93,0,0,1-6,5.08l-.28,0A1.69,1.69,0,0,1,24,27.51a1.4,1.4,0,0,1,0-.5l0-.24,1-3.52.15-.53c.67-2.61.37-4.58-.81-6.16A10.16,10.16,0,0,0,21.94,14.2Z"></path></g></svg>