<svg width="176" height="271" viewBox="0 0 176 271" fill="none" xmlns="http://www.w3.org/2000/svg">
<path d="M79.5286 138.327C80.2206 137.614 80.9032 136.894 81.5717 136.155C83.1286 134.437 84.5452 132.64 85.901 130.849C87.2545 132.64 88.6735 134.437 90.2303 136.155C91.4903 137.549 92.8111 138.883 94.1295 140.221C95.6957 141.805 97.1754 143.304 98.5406 144.886C100.92 147.64 102.547 150.312 103.377 152.834C104.025 154.8 105.855 156.046 107.816 156.046C108.3 156.046 108.793 155.969 109.28 155.81C111.734 155.001 113.064 152.358 112.255 149.905C111.038 146.21 108.8 142.462 105.614 138.774C104.043 136.957 102.384 135.276 100.78 133.652C99.5551 132.413 98.3279 131.172 97.1591 129.881C95.2609 127.789 93.5614 125.498 91.7568 123.072C91.0461 122.113 90.3355 121.159 89.6108 120.213C88.7272 119.056 87.355 118.378 85.8987 118.378C84.4447 118.378 83.0725 119.056 82.1865 120.21C81.4548 121.167 80.7372 122.132 80.0195 123.097C78.2219 125.515 76.5271 127.796 74.6406 129.879C74.0422 130.538 73.4321 131.183 72.8149 131.821C71.015 133.675 71.0617 136.635 72.9155 138.432C74.7692 140.225 77.7333 140.183 79.5286 138.327Z" fill="black"/>
<path d="M148.236 171.407C148.056 171.29 147.86 171.204 147.675 171.094C147.341 170.83 146.979 170.591 146.565 170.42L129.46 163.41C140.162 152.43 146.775 137.443 146.775 120.933C146.775 118.56 144.066 99.9992 140.031 89.3537C135.821 78.2499 128.479 64.8973 128.168 64.334C127.219 62.6111 125.299 61.6714 123.347 61.973C121.405 62.2769 119.862 63.7659 119.486 65.6968L118.71 69.6755C117.812 74.2666 116.346 78.6847 114.334 82.8667C112.305 74.83 109.034 63.801 105.13 57.6787C93.517 39.4662 79.6267 30.9713 79.0423 30.6183C77.4411 29.6552 75.4213 29.7417 73.9089 30.8263C72.3918 31.9133 71.6648 33.8022 72.0645 35.6278C72.0879 35.7354 74.3928 46.5493 73.5138 63.4059C73.1585 70.2318 69.8788 78.5374 67.5412 83.6755C65.6641 82.128 63.843 80.3818 62.9314 78.9091C61.8701 77.1816 60.7691 74.7785 59.8293 72.1253C57.847 66.5804 56.774 60.8486 57.0359 57.1668C57.2018 54.8128 55.5889 52.7066 53.2746 52.2508C50.9487 51.7949 48.6671 53.1367 47.9331 55.3762C43.6529 68.3757 38.426 81.2958 36.9229 84.9472C36.9088 84.9846 36.8925 85.022 36.8785 85.0594C36.827 85.181 36.7779 85.3072 36.7335 85.4358C33.5286 91.2004 25.0196 109.02 25.0196 120.93L25.036 122.436C25.022 123.259 25.0851 124.077 25.1576 124.946L25.1903 125.456C25.216 125.874 25.2417 126.263 25.2721 126.485C26.5835 140.966 32.7946 153.805 42.1872 163.466L25.2324 170.416C24.8233 170.584 24.4656 170.818 24.1337 171.077C23.9443 171.19 23.748 171.281 23.561 171.4C19.4537 174.074 16.8753 178.74 16.4803 184.205C16.1133 189.271 17.593 194.641 20.6413 199.325C23.6919 204.012 28.0025 207.537 32.7829 209.253C34.8611 209.999 36.9626 210.368 39.001 210.368C41.0254 210.368 42.9727 209.971 44.7843 209.253C44.9807 209.204 45.1654 209.12 45.3547 209.043C45.4108 209.017 45.4669 208.991 45.5254 208.966C45.7404 208.87 45.9648 208.804 46.1682 208.673L46.8274 208.25C47.0027 208.147 47.1898 208.07 47.3581 207.958C47.5404 207.839 47.7064 207.701 47.8817 207.575L85.8939 183.261L124.105 207.703C124.219 207.783 124.315 207.883 124.432 207.958C124.593 208.063 124.769 208.133 124.932 208.232L125.62 208.671C125.832 208.807 126.061 208.874 126.284 208.973C126.335 208.996 126.386 209.019 126.44 209.043C126.63 209.118 126.812 209.202 127.004 209.249C128.808 209.964 130.723 210.343 132.691 210.343C139.393 210.343 146.584 206.333 151.149 199.323C154.202 194.636 155.679 189.266 155.312 184.201C154.924 178.747 152.343 174.081 148.236 171.407ZM34.5291 124.916L34.4754 124.119C34.431 123.612 34.3819 123.104 34.3912 122.574C34.3936 122.31 34.3889 122.045 34.3819 121.781L34.3749 120.935C34.3749 111.369 42.2947 94.6601 45.1887 89.3209C45.3407 89.0638 45.4692 88.7903 45.5698 88.5051L45.5744 88.5074C46.4324 86.4153 48.4918 81.3403 50.9089 74.9375C50.9463 75.0473 50.9837 75.1572 51.0258 75.2671C52.19 78.5538 53.5551 81.5086 54.9764 83.8228C58.3005 89.1947 65.9165 94.1458 66.7744 94.6928C67.8661 95.3894 69.2009 95.5998 70.4539 95.2772C71.7092 94.9546 72.7728 94.1248 73.3946 92.9863C73.7523 92.3271 82.1865 76.7047 82.8527 63.8968C83.2384 56.5216 83.0584 50.2357 82.7007 45.336C87.0207 49.3053 92.3762 55.0676 97.2502 62.7117C101.853 69.9279 106.126 88.0446 107.386 94.417C107.711 96.065 108.896 97.4115 110.488 97.9445C112.08 98.4751 113.838 98.1151 115.089 96.9977L118.749 93.725C119.088 93.4235 119.381 93.0728 119.617 92.6871C122.109 88.6313 124.128 84.3464 125.65 79.8769C127.611 83.914 129.711 88.5098 131.291 92.6754C134.989 102.437 137.35 119.418 137.427 120.94C137.427 140.153 126.856 156.935 111.234 165.797C111.288 165.68 111.353 165.565 111.405 165.448C112.456 163.092 111.4 160.327 109.041 159.275C106.685 158.223 103.919 159.279 102.865 161.638C100.383 167.199 93.9962 171.912 88.283 172.421C87.8786 172.44 87.4695 172.442 87.0627 172.452C86.7308 172.452 86.4012 172.475 86.0716 172.464C85.957 172.459 85.8378 172.459 85.7256 172.464C85.6298 172.466 85.5363 172.457 85.4381 172.461C84.5802 172.454 83.7363 172.391 82.8877 172.342C76.0852 171.388 68.2214 164.789 67.7983 157.117C67.6253 153.942 68.9812 150.422 71.8331 146.651C73.3923 144.592 72.9855 141.661 70.9237 140.101C68.8643 138.542 65.9306 138.949 64.376 141.011C60.1519 146.595 58.1626 152.185 58.4618 157.629C58.6231 160.556 59.4062 163.321 60.6078 165.878C46.2711 157.842 36.1655 143.14 34.5665 125.486C34.5455 125.297 34.5408 125.112 34.5291 124.916ZM35.9434 200.461C33.1149 199.447 30.3939 197.177 28.4793 194.232C26.5648 191.288 25.59 187.883 25.8051 184.886C25.9126 183.404 26.4269 180.699 28.6617 179.243C32.4463 176.776 38.7556 179.481 42.4444 185.143C42.8511 185.767 43.2158 186.412 43.536 187.064C44.6651 189.381 47.4633 190.351 49.7869 189.215C52.1081 188.084 53.0712 185.283 51.9375 182.962C51.4536 181.966 50.8949 180.984 50.2801 180.04C48.4077 177.164 46.0864 174.815 43.5477 173.02L49.2702 170.675C49.5461 170.563 49.8009 170.42 50.044 170.264C56.7694 175.142 64.5373 178.656 72.9575 180.454L53.0642 193.177C52.3863 192.425 51.4723 191.873 50.397 191.688C47.8303 191.249 45.4365 192.965 44.9994 195.508C44.761 196.903 44.1041 198.762 42.4724 199.952L41.8272 200.363C39.6813 201.483 37.2548 200.931 35.9434 200.461ZM143.32 194.232C139.711 199.772 133.603 202.446 129.795 200.246L129.255 199.9C127.062 198.236 126.143 194.774 126.94 190.91C127.462 188.38 125.832 185.91 123.303 185.388C120.776 184.865 118.301 186.494 117.782 189.026C117.555 190.131 117.426 191.218 117.358 192.291L98.8187 180.433C107.197 178.614 114.932 175.068 121.641 170.182C121.917 170.374 122.211 170.542 122.534 170.675L129.657 173.595C128.385 173.457 127.064 173.824 126.036 174.745C125.484 175.241 124.944 175.769 124.427 176.323C122.663 178.209 122.763 181.169 124.652 182.931C125.552 183.775 126.7 184.191 127.843 184.191C129.091 184.191 130.337 183.694 131.258 182.709C131.59 182.356 131.927 182.022 132.28 181.709C134.201 179.986 134.365 177.029 132.64 175.107C132.462 174.909 132.266 174.743 132.065 174.581L136.744 176.498C137.556 177.56 138.795 178.282 140.232 178.347C141.326 178.396 142.306 178.698 143.143 179.245C145.377 180.701 145.892 183.404 145.999 184.888C146.21 187.885 145.235 191.291 143.32 194.232Z" fill="black"/>
<path d="M45.6446 30.4196C49.1046 30.4196 51.9095 27.6147 51.9095 24.1547C51.9095 20.6948 49.1046 17.8899 45.6446 17.8899C42.1846 17.8899 39.3798 20.6948 39.3798 24.1547C39.3798 27.6147 42.1846 30.4196 45.6446 30.4196Z" fill="black"/>
<path d="M168.885 122.326C172.345 122.326 175.149 119.521 175.149 116.061C175.149 112.601 172.345 109.796 168.885 109.796C165.425 109.796 162.62 112.601 162.62 116.061C162.62 119.521 165.425 122.326 168.885 122.326Z" fill="black"/>
<path d="M136.49 43.9101C138.832 43.9101 140.73 42.0115 140.73 39.6696C140.73 37.3277 138.832 35.4291 136.49 35.4291C134.148 35.4291 132.249 37.3277 132.249 39.6696C132.249 42.0115 134.148 43.9101 136.49 43.9101Z" fill="black"/>
<path d="M16.859 151.902C19.2009 151.902 21.0995 150.003 21.0995 147.661C21.0995 145.319 19.2009 143.421 16.859 143.421C14.5171 143.421 12.6185 145.319 12.6185 147.661C12.6185 150.003 14.5171 151.902 16.859 151.902Z" fill="black"/>
<path d="M96.9767 11.7676C100.226 11.7676 102.861 9.13337 102.861 5.88382C102.861 2.63428 100.226 0 96.9767 0C93.7272 0 91.0929 2.63428 91.0929 5.88382C91.0929 9.13337 93.7272 11.7676 96.9767 11.7676Z" fill="black"/>
<path d="M5.88382 101.374C9.13337 101.374 11.7676 98.7395 11.7676 95.49C11.7676 92.2404 9.13337 89.6062 5.88382 89.6062C2.63428 89.6062 0 92.2404 0 95.49C0 98.7395 2.63428 101.374 5.88382 101.374Z" fill="black"/>
<path d="M5.709 227.9H19.856C22.866 227.9 25.317 228.674 27.209 230.222C29.101 231.741 30.047 233.719 30.047 236.156C30.047 237.475 29.7173 238.679 29.058 239.768C28.3987 240.857 27.4957 241.76 26.349 242.477C27.7823 243.165 28.929 244.111 29.789 245.315C30.649 246.49 31.079 247.809 31.079 249.271C31.079 251.88 30.1043 253.987 28.155 255.592C26.2343 257.197 23.6973 258 20.544 258H5.709V227.9ZM19.469 233.06H11.944V240.198H19.469C20.7877 240.198 21.8483 239.883 22.651 239.252C23.4537 238.593 23.855 237.718 23.855 236.629C23.855 235.54 23.4537 234.68 22.651 234.049C21.8483 233.39 20.7877 233.06 19.469 233.06ZM20.071 252.84C21.5043 252.84 22.651 252.496 23.511 251.808C24.371 251.091 24.801 250.131 24.801 248.927C24.801 247.78 24.371 246.849 23.511 246.132C22.651 245.415 21.5043 245.057 20.071 245.057H11.944V252.84H20.071ZM36.1705 246.82C36.1705 245.186 36.4715 243.667 37.0735 242.262C37.7041 240.829 38.5498 239.596 39.6105 238.564C40.6998 237.503 41.9755 236.672 43.4375 236.07C44.8995 235.468 46.4618 235.167 48.1245 235.167C49.7871 235.167 51.3495 235.468 52.8115 236.07C54.2735 236.672 55.5348 237.503 56.5955 238.564C57.6848 239.596 58.5305 240.829 59.1325 242.262C59.7631 243.667 60.0785 245.186 60.0785 246.82C60.0785 248.454 59.7631 249.988 59.1325 251.421C58.5305 252.826 57.6848 254.044 56.5955 255.076C55.5348 256.108 54.2735 256.925 52.8115 257.527C51.3495 258.129 49.7871 258.43 48.1245 258.43C46.4618 258.43 44.8995 258.129 43.4375 257.527C41.9755 256.925 40.6998 256.108 39.6105 255.076C38.5498 254.044 37.7041 252.826 37.0735 251.421C36.4715 249.988 36.1705 248.454 36.1705 246.82ZM48.1245 253.313C49.8445 253.313 51.3065 252.682 52.5105 251.421C53.7145 250.16 54.3165 248.626 54.3165 246.82C54.3165 244.985 53.7145 243.437 52.5105 242.176C51.3065 240.915 49.8445 240.284 48.1245 240.284C46.4045 240.284 44.9425 240.915 43.7385 242.176C42.5345 243.437 41.9325 244.985 41.9325 246.82C41.9325 248.626 42.5345 250.16 43.7385 251.421C44.9425 252.682 46.4045 253.313 48.1245 253.313ZM65.8495 258V235.597H71.7405V237.36C72.6005 236.643 73.5465 236.099 74.5785 235.726C75.6392 235.353 76.7859 235.167 78.0185 235.167C80.5985 235.167 82.7199 235.998 84.3825 237.661C86.0452 239.324 86.8765 241.459 86.8765 244.068V258H80.9855V244.928C80.9855 243.523 80.5555 242.391 79.6955 241.531C78.8642 240.671 77.7462 240.241 76.3415 240.241C75.3669 240.241 74.4782 240.442 73.6755 240.843C72.9015 241.216 72.2565 241.76 71.7405 242.477V258H65.8495ZM91.101 235.597H96.089V233.447C96.089 230.953 96.82 229.032 98.282 227.685C99.744 226.338 101.851 225.664 104.603 225.664C105.205 225.664 105.821 225.707 106.452 225.793C107.083 225.85 107.627 225.936 108.086 226.051V230.996C107.541 230.881 107.054 230.795 106.624 230.738C106.223 230.681 105.793 230.652 105.334 230.652C104.216 230.652 103.37 230.896 102.797 231.383C102.252 231.87 101.98 232.601 101.98 233.576V235.597H108.086V240.542H101.98V258H96.089V240.542H91.101V235.597ZM116.242 232.931C115.324 232.931 114.536 232.601 113.877 231.942C113.217 231.283 112.888 230.494 112.888 229.577C112.888 228.66 113.217 227.871 113.877 227.212C114.536 226.553 115.324 226.223 116.242 226.223C117.159 226.223 117.947 226.553 118.607 227.212C119.266 227.871 119.596 228.66 119.596 229.577C119.596 230.494 119.266 231.283 118.607 231.942C117.947 232.601 117.159 232.931 116.242 232.931ZM119.209 235.597V258H113.318V235.597H119.209ZM125.966 258V235.597H131.857V238.048C132.573 237.073 133.433 236.342 134.437 235.855C135.469 235.339 136.601 235.081 137.834 235.081C138.407 235.11 138.88 235.167 139.253 235.253C139.654 235.31 139.998 235.425 140.285 235.597V240.757C139.855 240.556 139.382 240.413 138.866 240.327C138.35 240.212 137.819 240.155 137.275 240.155C136.128 240.155 135.067 240.442 134.093 241.015C133.147 241.588 132.401 242.42 131.857 243.509V258H125.966ZM164.615 255.205C163.239 256.323 161.82 257.14 160.358 257.656C158.925 258.172 157.32 258.43 155.542 258.43C153.851 258.43 152.26 258.129 150.769 257.527C149.307 256.925 148.032 256.108 146.942 255.076C145.882 254.044 145.036 252.826 144.405 251.421C143.803 249.988 143.502 248.454 143.502 246.82C143.502 245.215 143.789 243.71 144.362 242.305C144.964 240.872 145.781 239.639 146.813 238.607C147.845 237.546 149.064 236.715 150.468 236.113C151.902 235.511 153.421 235.21 155.026 235.21C156.603 235.21 158.065 235.525 159.412 236.156C160.788 236.758 161.964 237.589 162.938 238.65C163.942 239.711 164.716 240.986 165.26 242.477C165.834 243.939 166.12 245.53 166.12 247.25V248.798H149.436C149.838 250.203 150.612 251.335 151.758 252.195C152.905 253.055 154.252 253.485 155.8 253.485C156.775 253.485 157.692 253.327 158.552 253.012C159.412 252.697 160.143 252.252 160.745 251.679L164.615 255.205ZM154.897 240.069C153.55 240.069 152.389 240.485 151.414 241.316C150.44 242.119 149.766 243.208 149.393 244.584H160.358C159.986 243.265 159.298 242.19 158.294 241.359C157.32 240.499 156.187 240.069 154.897 240.069Z" fill="black"/>
</svg>
