<svg width="50" height="48" viewBox="0 0 50 48" fill="none" xmlns="http://www.w3.org/2000/svg">
<path d="M46.5158 0H21.847C19.9277 0 18.3646 1.54109 18.3646 3.43564V10.1691C18.3646 12.0283 19.8704 13.5376 21.7396 13.5959L21.702 22.3458L9.67736 22.3529C6.5584 22.6462 0.52102 24.9773 0 31.838L0.0143234 38.7641C0.0125329 38.787 0 38.8047 0 38.8295C0 38.8542 0.0125329 38.8719 0.0143234 38.8966L0.0286468 46.2362C0.0304372 47.2118 0.830767 48 1.81909 48H45.3108C46.2991 48 47.1013 47.21 47.1013 46.2345L47.1245 13.5464C48.7556 13.2601 50 11.8586 50 10.1691V3.43564C49.9982 1.54109 48.4351 0 46.5158 0ZM46.4173 3.43564V10.0719L45.3556 10.0772C45.3484 10.0772 45.3413 10.0736 45.3341 10.0736C45.3323 10.0736 45.3323 10.0736 45.3323 10.0736C45.3251 10.0736 45.318 10.0772 45.309 10.0772L23.9794 10.1602C23.8362 10.1231 23.6983 10.0719 23.5444 10.0719C23.3814 10.0719 23.2328 10.1231 23.0824 10.1638L21.9455 10.1673L21.847 3.53461L46.4173 3.43564ZM9.84566 25.8786H23.3116C23.3707 25.8839 23.4244 25.914 23.4853 25.914H30.7975C31.7876 25.914 32.5879 25.1222 32.5879 24.1467C32.5879 23.1711 31.7876 22.3794 30.7975 22.3794H25.2829L25.2936 19.9829H30.7975C31.7876 19.9829 32.5879 19.1912 32.5879 18.2156C32.5879 17.2401 31.7876 16.4483 30.7975 16.4483H25.3097L25.3223 13.6082H43.5437L43.5275 37.0622H3.58626L3.57373 31.967C3.9909 26.5555 9.77763 25.8963 9.84566 25.8786ZM17.2868 40.5968L17.3047 44.4654H11.9548L11.9405 40.5968H17.2868ZM20.8676 40.5968H26.2175L26.2354 44.4654H20.8856L20.8676 40.5968ZM29.8002 40.5968H35.1465L35.1608 44.4654H29.8181L29.8002 40.5968ZM3.59522 40.5968H8.35959L8.37392 44.4654H3.60417L3.59522 40.5968ZM38.7417 44.4654L38.7273 40.5968H43.524L43.5204 44.4654H38.7417Z" fill="black"/>
</svg>
