<svg height='100px' width='100px'  fill="#000000" xmlns="http://www.w3.org/2000/svg" xmlns:xlink="http://www.w3.org/1999/xlink" version="1.1" x="0px" y="0px" viewBox="0 0 100 100" style="enable-background:new 0 0 100 100;" xml:space="preserve"><g><path d="M46.558,64.174c0.296-0.305,0.588-0.613,0.874-0.929c0.666-0.735,1.272-1.504,1.852-2.27   c0.579,0.766,1.186,1.535,1.852,2.27c0.539,0.596,1.104,1.167,1.668,1.739c0.67,0.678,1.303,1.319,1.887,1.996   c1.018,1.178,1.714,2.321,2.069,3.4c0.277,0.841,1.06,1.374,1.899,1.374c0.207,0,0.418-0.033,0.626-0.101   c1.05-0.346,1.619-1.477,1.273-2.526c-0.521-1.581-1.478-3.184-2.841-4.762c-0.672-0.777-1.382-1.496-2.068-2.191   c-0.524-0.53-1.049-1.061-1.549-1.613c-0.812-0.895-1.539-1.875-2.311-2.913c-0.304-0.41-0.608-0.818-0.918-1.223   c-0.378-0.495-0.965-0.785-1.588-0.785c-0.622,0-1.209,0.29-1.588,0.784c-0.313,0.409-0.62,0.822-0.927,1.235   c-0.769,1.034-1.494,2.01-2.301,2.901c-0.256,0.282-0.517,0.558-0.781,0.831c-0.77,0.793-0.75,2.059,0.043,2.828   C44.522,64.986,45.79,64.968,46.558,64.174z"></path><path d="M75.95,78.325c-0.077-0.05-0.161-0.087-0.24-0.134c-0.143-0.113-0.298-0.215-0.475-0.288l-7.317-2.999   c4.578-4.697,7.407-11.108,7.407-18.171c0-1.015-1.159-8.955-2.885-13.509c-1.801-4.75-4.942-10.462-5.075-10.703   c-0.406-0.737-1.227-1.139-2.062-1.01c-0.831,0.13-1.491,0.767-1.652,1.593l-0.332,1.702c-0.384,1.964-1.011,3.854-1.872,5.643   c-0.868-3.438-2.267-8.156-3.937-10.775c-4.968-7.791-10.91-11.425-11.16-11.576c-0.685-0.412-1.549-0.375-2.196,0.089   c-0.649,0.465-0.96,1.273-0.789,2.054c0.01,0.046,0.996,4.672,0.62,11.883c-0.152,2.92-1.555,6.473-2.555,8.671   c-0.803-0.662-1.582-1.409-1.972-2.039c-0.454-0.739-0.925-1.767-1.327-2.902c-0.848-2.372-1.307-4.824-1.195-6.399   c0.071-1.007-0.619-1.908-1.609-2.103c-0.995-0.195-1.971,0.379-2.285,1.337c-1.831,5.561-4.067,11.088-4.71,12.65   c-0.006,0.016-0.013,0.032-0.019,0.048c-0.022,0.052-0.043,0.106-0.062,0.161c-1.371,2.466-5.011,10.089-5.011,15.184l0.007,0.644   c-0.006,0.352,0.021,0.702,0.052,1.074l0.014,0.218c0.011,0.179,0.022,0.345,0.035,0.44c0.561,6.195,3.218,11.687,7.236,15.82   l-7.253,2.973c-0.175,0.072-0.328,0.172-0.47,0.283c-0.081,0.048-0.165,0.087-0.245,0.138c-1.757,1.144-2.86,3.14-3.029,5.478   c-0.157,2.167,0.476,4.464,1.78,6.468c1.305,2.005,3.149,3.513,5.194,4.247c0.889,0.319,1.788,0.477,2.66,0.477   c0.866,0,1.699-0.17,2.474-0.477c0.084-0.021,0.163-0.057,0.244-0.09c0.024-0.011,0.048-0.022,0.073-0.033   c0.092-0.041,0.188-0.069,0.275-0.125l0.282-0.181c0.075-0.044,0.155-0.077,0.227-0.125c0.078-0.051,0.149-0.11,0.224-0.164   l16.261-10.401l16.346,10.456c0.049,0.034,0.09,0.077,0.14,0.109c0.069,0.045,0.144,0.075,0.214,0.117l0.294,0.188   c0.091,0.058,0.189,0.087,0.284,0.129c0.022,0.01,0.044,0.02,0.067,0.03c0.081,0.032,0.159,0.068,0.241,0.088   c0.772,0.306,1.591,0.468,2.433,0.468c2.867,0,5.943-1.715,7.896-4.714c1.306-2.005,1.938-4.302,1.781-6.469   C78.811,81.465,77.707,79.469,75.95,78.325z M27.308,58.437l-0.023-0.341c-0.019-0.217-0.04-0.434-0.036-0.661   c0.001-0.113-0.001-0.226-0.004-0.339l-0.003-0.362c0-4.092,3.388-11.24,4.626-13.524c0.065-0.11,0.12-0.227,0.163-0.349   l0.002,0.001c0.367-0.895,1.248-3.066,2.282-5.805c0.016,0.047,0.032,0.094,0.05,0.141c0.498,1.406,1.082,2.67,1.69,3.66   c1.422,2.298,4.68,4.416,5.047,4.65c0.467,0.298,1.038,0.388,1.574,0.25c0.537-0.138,0.992-0.493,1.258-0.98   c0.153-0.282,3.761-6.965,4.046-12.444c0.165-3.155,0.088-5.844-0.065-7.94c1.848,1.698,4.139,4.163,6.224,7.433   c1.969,3.087,3.797,10.837,4.336,13.563c0.139,0.705,0.646,1.281,1.327,1.509c0.681,0.227,1.433,0.073,1.968-0.405l1.566-1.4   c0.145-0.129,0.27-0.279,0.371-0.444c1.066-1.735,1.93-3.568,2.581-5.48c0.839,1.727,1.737,3.693,2.413,5.475   c1.582,4.176,2.592,11.44,2.625,12.091c0,8.219-4.522,15.398-11.205,19.189c0.023-0.05,0.051-0.099,0.073-0.149   c0.45-1.008-0.002-2.191-1.011-2.641c-1.008-0.45-2.191,0.002-2.642,1.011c-1.062,2.379-3.794,4.395-6.238,4.613   c-0.173,0.008-0.348,0.009-0.522,0.013c-0.142,0-0.283,0.01-0.424,0.005c-0.049-0.002-0.1-0.002-0.148,0   c-0.041,0.001-0.081-0.003-0.123-0.001c-0.367-0.003-0.728-0.03-1.091-0.051c-2.91-0.408-6.274-3.231-6.455-6.513   c-0.074-1.358,0.506-2.864,1.726-4.477c0.667-0.881,0.493-2.135-0.389-2.802c-0.881-0.667-2.136-0.493-2.801,0.389   c-1.807,2.389-2.658,4.78-2.53,7.109c0.069,1.252,0.404,2.435,0.918,3.529c-6.133-3.438-10.456-9.727-11.14-17.279   C27.315,58.6,27.313,58.521,27.308,58.437z M27.913,90.754c-1.21-0.434-2.374-1.405-3.193-2.665   c-0.819-1.259-1.236-2.716-1.144-3.998c0.046-0.634,0.266-1.791,1.222-2.414c1.619-1.055,4.318,0.102,5.896,2.524   c0.174,0.267,0.33,0.543,0.467,0.822c0.483,0.991,1.68,1.406,2.674,0.92c0.993-0.484,1.405-1.682,0.92-2.675   c-0.207-0.426-0.446-0.846-0.709-1.25c-0.801-1.23-1.794-2.235-2.88-3.003l2.448-1.003c0.118-0.048,0.227-0.109,0.331-0.176   c2.877,2.087,6.2,3.59,9.802,4.359l-8.51,5.443c-0.29-0.322-0.681-0.558-1.141-0.637c-1.098-0.188-2.122,0.546-2.309,1.634   c-0.102,0.597-0.383,1.392-1.081,1.901l-0.276,0.176C29.512,91.191,28.474,90.955,27.913,90.754z M73.847,88.089   c-1.544,2.37-4.157,3.514-5.786,2.573l-0.231-0.148c-0.938-0.712-1.331-2.193-0.99-3.846c0.223-1.082-0.474-2.139-1.556-2.362   c-1.081-0.224-2.14,0.473-2.362,1.556c-0.097,0.473-0.152,0.938-0.181,1.397l-7.931-5.073c3.584-0.778,6.893-2.295,9.763-4.385   c0.118,0.082,0.244,0.154,0.382,0.211l3.047,1.249c-0.544-0.059-1.109,0.098-1.549,0.492c-0.236,0.212-0.467,0.438-0.688,0.675   c-0.755,0.807-0.712,2.073,0.096,2.827c0.385,0.361,0.876,0.539,1.365,0.539c0.534,0,1.067-0.213,1.461-0.634   c0.142-0.151,0.286-0.294,0.437-0.428c0.822-0.737,0.892-2.002,0.154-2.824c-0.076-0.085-0.16-0.156-0.246-0.225l2.002,0.82   c0.347,0.454,0.877,0.763,1.492,0.791c0.468,0.021,0.887,0.15,1.245,0.384c0.956,0.623,1.176,1.779,1.222,2.414   C75.083,85.374,74.666,86.831,73.847,88.089z"></path><circle cx="32.063" cy="15.333" r="2.68"></circle><circle cx="84.783" cy="54.649" r="2.68"></circle><circle cx="70.925" cy="21.97" r="1.814"></circle><circle cx="19.749" cy="68.167" r="1.814"></circle><circle cx="54.022" cy="7.517" r="2.517"></circle><circle cx="15.054" cy="45.849" r="2.517"></circle></g></svg>