<svg width="62" height="62" viewBox="0 0 62 62" fill="none" xmlns="http://www.w3.org/2000/svg">
<path d="M20.8237 7.56061C20.1261 7.56061 19.5605 8.12612 19.5605 8.82376V10.0869C19.5605 10.7846 20.1261 11.3501 20.8237 11.3501C21.5213 11.3501 22.0869 10.7846 22.0869 10.0869V8.82376C22.0869 8.12612 21.5213 7.56061 20.8237 7.56061Z" fill="black" stroke="black"/>
<path d="M40.4028 6.92906H43.6241C43.9175 8.36868 45.1935 9.45537 46.7185 9.45537H56.8238C58.565 9.45537 59.9817 8.03874 59.9817 6.29748C59.9817 4.55622 58.565 3.13959 56.8238 3.13959H53.6025C53.309 1.69997 52.033 0.613281 50.508 0.613281H40.4028C38.6615 0.613281 37.2449 2.02991 37.2449 3.77117C37.2449 5.51243 38.6615 6.92906 40.4028 6.92906ZM40.4028 3.13959H50.508C50.9296 3.13959 51.2523 3.55593 51.1019 3.98098C50.8112 4.8014 51.4203 5.6659 52.2926 5.6659H56.8238C57.172 5.6659 57.4554 5.94923 57.4554 6.29748C57.4554 6.64573 57.172 6.92906 56.8238 6.92906H46.7185C46.2969 6.92906 45.9743 6.51272 46.1246 6.08767C46.4154 5.26725 45.8063 4.40275 44.934 4.40275H40.4028C40.0545 4.40275 39.7712 4.11942 39.7712 3.77117C39.7712 3.42292 40.0545 3.13959 40.4028 3.13959Z" fill="black" stroke="black"/>
<path d="M8.95022 39.1395H23.8555C25.6663 39.1395 27.1397 37.6663 27.1397 35.8553V27.2658C27.1397 25.455 25.6663 23.9816 23.8555 23.9816C21.3093 23.9816 19.1974 23.9816 16.6555 23.9816C10.5959 23.9816 5.66602 28.9115 5.66602 34.9711V35.8553C5.66602 37.6663 7.13936 39.1395 8.95022 39.1395ZM8.19233 34.9711C8.19233 30.3045 11.9889 26.5079 16.6555 26.5079H17.7742L13.6148 30.6674C13.1215 31.1606 13.1215 31.9605 13.6148 32.4539C14.1082 32.9471 14.9079 32.947 15.4013 32.4539L21.3471 26.5081H23.8555C24.2734 26.5081 24.6133 26.848 24.6133 27.266V35.8554C24.6133 36.2734 24.2734 36.6133 23.8555 36.6133H16.2946L20.454 32.4539C20.9473 31.9606 20.9473 31.1608 20.454 30.6674C19.9608 30.1742 19.1609 30.1742 18.6675 30.6674L12.7216 36.6132H8.95022C8.53224 36.6132 8.19233 36.2733 8.19233 35.8553V34.9711Z" fill="black" stroke="black"/>
<path d="M32.95 39.1395H44.0657C45.8767 39.1395 47.3499 37.6663 47.3499 35.8553V34.2763C47.3499 28.5999 42.7317 23.9816 37.0552 23.9816H32.95C31.139 23.9816 29.6658 25.455 29.6658 27.2658V35.8553C29.6658 37.6663 31.139 39.1395 32.95 39.1395ZM32.1921 27.2658C32.1921 26.8479 32.532 26.5079 32.95 26.5079H37.0552C41.3387 26.5079 44.8236 29.9929 44.8236 34.2763V35.8553C44.8236 36.2733 44.4837 36.6132 44.0657 36.6132H32.95C32.532 36.6132 32.1921 36.2733 32.1921 35.8553V27.2658Z" fill="black" stroke="black"/>
<path d="M14.508 47.9816C12.4185 47.9816 10.7185 49.6816 10.7185 51.7711C10.7185 53.8606 12.4185 55.5606 14.508 55.5606C16.5975 55.5606 18.2974 53.8606 18.2974 51.7711C18.2974 49.6816 16.5975 47.9816 14.508 47.9816ZM14.508 53.0342C13.8115 53.0342 13.2448 52.4676 13.2448 51.7711C13.2448 51.0746 13.8115 50.5079 14.508 50.5079C15.2045 50.5079 15.7711 51.0746 15.7711 51.7711C15.7711 52.4676 15.2045 53.0342 14.508 53.0342Z" fill="black" stroke="black"/>
<path d="M56.1921 44.1921H52.4026V32.8237C52.4026 27.0827 48.9027 22.1439 43.9246 20.0285L45.8747 17.1034C46.1331 16.7158 46.1571 16.2174 45.9373 15.8066C45.7175 15.396 45.2894 15.1395 44.8237 15.1395H39.7212C39.7534 14.9618 39.7711 14.779 39.7711 14.5922V11.8975C39.7711 10.2028 38.3922 8.8239 36.6975 8.8239H26.4238C26.237 8.8239 26.0542 8.84158 25.8765 8.87367V5.58163C25.8765 3.88686 24.4977 2.508 22.8029 2.508H18.845C17.1503 2.508 15.7714 3.88686 15.7714 5.58163V14.5921C15.7714 14.7789 15.7891 14.9617 15.8212 15.1394H8.19221C7.72636 15.1394 7.29828 15.3958 7.07849 15.8065C6.8587 16.2173 6.88283 16.7156 7.14127 17.1032L9.09133 20.0285C4.11323 22.1439 0.613281 27.0827 0.613281 32.8237V48.6132C0.613281 51.0509 2.59656 53.0342 5.03432 53.0342H5.75761C6.04018 55.0006 6.97188 56.7592 8.32838 58.0868H5.6659C4.96826 58.0868 4.40275 58.6525 4.40275 59.35C4.40275 60.0475 4.96826 60.6131 5.6659 60.6131H52.4026C53.1002 60.6131 53.6658 60.0475 53.6658 59.35C53.6658 58.6525 53.1002 58.0868 52.4026 58.0868H20.6877C22.0441 56.7592 22.9758 55.0006 23.2585 53.0342C30.5405 53.0342 48.8549 53.0342 56.1922 53.0342C58.63 53.0342 60.6133 51.0509 60.6133 48.6132C60.6133 46.1754 58.6299 44.1921 56.1921 44.1921ZM26.4237 11.3501H36.6973C36.9992 11.3501 37.2447 11.5956 37.2447 11.8974V14.5921C37.2447 14.894 36.9992 15.1394 36.6973 15.1394H26.4237C26.1218 15.1394 25.8764 14.8939 25.8764 14.5921V11.8974C25.8764 11.5956 26.1219 11.3501 26.4237 11.3501ZM18.2975 14.5922V5.58163C18.2975 5.27974 18.543 5.03431 18.8448 5.03431H22.8026C23.1045 5.03431 23.3499 5.27986 23.3499 5.58163C23.3499 8.60045 23.3499 11.8662 23.3499 14.5921C23.3499 14.894 23.1044 15.1394 22.8026 15.1394H18.8448C18.543 15.1395 18.2975 14.894 18.2975 14.5922ZM11.3946 18.929L10.5524 17.6659C10.8633 17.6659 42.1513 17.6659 42.4634 17.6659L41.6214 18.929C40.3831 18.929 12.1238 18.929 11.3946 18.929ZM3.13959 48.6132V32.8237C3.13959 26.5552 8.23945 21.4553 14.508 21.4553H38.5079C44.7765 21.4553 49.8763 26.5552 49.8763 32.8237C49.8763 34.5532 49.8763 48.7349 49.8763 50.5079H46.0869V45.4553C46.0869 43.3658 44.3869 41.6658 42.2974 41.6658H32.1922C30.1026 41.6658 28.4027 43.3658 28.4027 45.4553V50.5079H23.2601C22.891 47.9237 21.3725 45.6043 19.0796 44.2053C15.0355 41.7561 9.81057 42.9325 7.17083 46.8421C6.40573 47.9773 5.9342 49.2595 5.75584 50.5079H5.03432C3.98957 50.5079 3.13959 49.6579 3.13959 48.6132ZM14.508 58.0868C11.0255 58.0868 8.19221 55.2536 8.19221 51.771C8.19221 48.2885 11.0255 45.4553 14.508 45.4553C17.9905 45.4553 20.8238 48.2885 20.8238 51.771C20.8238 55.2536 17.9905 58.0868 14.508 58.0868ZM30.929 50.5079V45.4553C30.929 44.7588 31.4957 44.1921 32.1922 44.1921H42.2974C42.9939 44.1921 43.5606 44.7588 43.5606 45.4553V50.5079H30.929ZM56.1921 50.5079H52.4026V46.7184H56.1921C57.2369 46.7184 58.0868 47.5684 58.0868 48.6132C58.0868 49.6579 57.2369 50.5079 56.1921 50.5079Z" fill="black" stroke="black"/>
<path d="M34.7184 45.4553H33.4553C32.7578 45.4553 32.1921 46.021 32.1921 46.7185C32.1921 47.416 32.7578 47.9816 33.4553 47.9816H34.7184C35.416 47.9816 35.9816 47.416 35.9816 46.7185C35.9816 46.021 35.416 45.4553 34.7184 45.4553Z" fill="black" stroke="black"/>
</svg>
