<svg height='100px' width='100px'  fill="#000000" xmlns="http://www.w3.org/2000/svg" xmlns:xlink="http://www.w3.org/1999/xlink" version="1.1" x="0px" y="0px" viewBox="0 0 100 100" style="enable-background:new 0 0 100 100;" xml:space="preserve"><path d="M86.9,13L86.9,13c-1-1-2.5-1.3-4-0.8L14.3,39.7c-1.4,0.5-2.4,2-2.4,3.5c0,1.6,1.1,3,2.5,3.4l29,10l10,29  c0.5,1.4,1.7,2.3,3.2,2.5l0.2,0c1.5,0,3-1,3.5-2.4L87.8,17C88.4,15.6,88,14.1,86.9,13z M57.9,47.3c0.7-0.7,1.1-1.6,1.1-2.6  s-0.4-1.9-1.1-2.6c-1.4-1.4-3.8-1.4-5.2,0l-7.3,7.3l-19-6.5l51.4-20.6L57.1,73.6l-6.5-19.1L57.9,47.3z"></path><path d="M19.8,60.2l-8.4,7.9c-1.5,1.4-3.9,1.3-5.3-0.2h0c-1.4-1.5-1.3-3.9,0.2-5.3l8.4-7.9c1.5-1.4,3.9-1.3,5.3,0.2  l0,0C21.3,56.4,21.3,58.8,19.8,60.2z"></path><path d="M29.4,74.9L16.3,87.2c-1.5,1.4-3.9,1.3-5.3-0.2h0c-1.4-1.5-1.3-3.9,0.2-5.3l13.1-12.3  c1.5-1.4,3.9-1.3,5.3,0.2l0,0C31,71.1,30.9,73.5,29.4,74.9z"></path><path d="M44.6,84.1l-8.4,7.9c-1.5,1.4-3.9,1.3-5.3-0.2l0,0c-1.4-1.5-1.3-3.9,0.2-5.3l8.4-7.9c1.5-1.4,3.9-1.3,5.3,0.2  h0C46.2,80.3,46.1,82.7,44.6,84.1z"></path></svg>