<svg width="48" height="49" viewBox="0 0 48 49" fill="none" xmlns="http://www.w3.org/2000/svg">
<path fill-rule="evenodd" clip-rule="evenodd" d="M24.0784 45.2593C20.3165 45.2593 17.1817 41.9677 16.0845 37.2654C13.5766 35.2277 13.5766 29.8985 16.2412 28.0176C17.4952 23.6288 20.4733 20.8074 24.0784 20.6507C27.5267 20.8074 30.5048 23.6288 31.7588 28.0176C34.4234 29.8985 34.5801 35.2277 32.0723 37.2654C30.8183 41.9677 27.6835 45.2593 24.0784 45.2593ZM22.3542 42.7514C21.1003 41.9677 20.3165 40.557 20.3165 38.8328C20.3165 36.4817 22.0407 34.444 24.0784 34.444C26.116 34.444 27.6835 36.4817 27.6835 38.8328C27.6835 40.557 26.8997 41.9677 25.6458 42.7514C28.1537 41.6542 29.4076 38.3626 30.0346 36.0114C32.229 34.2873 32.229 30.9957 29.8779 29.2715C29.0941 26.6069 27.37 22.8451 24.0784 22.8451C20.63 22.8451 18.9059 26.6069 18.1221 29.2715C15.771 30.9957 15.771 34.2873 17.9654 36.0114C18.5924 38.3626 19.8463 41.6542 22.3542 42.7514ZM21.7272 26.9204C20.7868 26.9204 19.5328 27.8608 20.63 28.958L23.2947 31.6227C23.7649 32.0929 24.3919 32.0929 24.7053 31.6227L27.5267 28.958C28.6239 27.8608 27.2132 26.9204 26.4295 26.9204H21.7272ZM24.0784 48.0806C19.8463 48.0806 16.398 45.416 14.8305 41.6542C7.77712 38.0491 2.91809 30.8389 2.91809 22.5316C2.91809 19.7102 3.54507 16.8888 4.48552 14.3809C3.07484 13.4405 1.97764 11.7163 1.35067 9.67866C0.253467 5.76009 1.82089 1.99826 4.79901 1.21455C7.46363 0.587579 10.285 2.31175 11.6957 5.28986C19.0626 -0.039392 28.9374 -0.039392 36.4611 5.28986C37.715 2.31175 40.5364 0.587579 43.201 1.21455C46.1791 1.99826 47.7465 5.76009 46.6493 9.67866C46.1791 11.7163 44.9252 13.4405 43.5145 14.3809C44.6117 16.8888 45.0819 19.7102 45.0819 22.5316C45.0819 30.8389 40.2229 38.0491 33.3262 41.6542C31.602 45.416 28.1537 48.0806 24.0784 48.0806ZM16.5547 40.8705C17.9654 43.8486 20.7868 46.043 23.9216 46.043C27.37 46.043 30.1913 43.8486 31.4453 40.8705L31.7588 40.0868L32.3857 39.7733C38.9689 36.4817 43.0442 29.8985 43.0442 22.5316C43.0442 20.0237 42.574 17.5158 41.6336 15.1647L41.0066 13.754L42.4173 12.8135C43.5145 12.0298 44.2982 10.6191 44.7684 9.20843C45.2386 7.32752 45.0819 3.72243 42.574 3.09546C40.6931 2.62524 38.9689 4.66289 38.1852 6.23032L37.2448 8.42472L35.2071 7.01403C28.4672 1.99826 19.5328 1.99826 12.7929 7.01403L10.7552 8.42472L9.81478 6.23032C9.03106 4.66289 7.30689 2.62524 5.42598 3.09546C3.07484 3.72243 2.76135 7.32752 3.23158 9.20843C3.70181 10.6191 4.48552 12.0298 5.73946 12.8135L6.99341 13.754L6.36644 15.1647C5.42598 17.5158 4.95575 20.0237 4.95575 22.5316C4.95575 29.8985 9.03106 36.4817 15.6143 39.7733L16.398 40.0868L16.5547 40.8705Z" fill="black" stroke="black" stroke-width="0.8"/>
<path d="M29.011 17.1953C29.6615 17.1953 30.1888 16.668 30.1888 16.0175C30.1888 15.3671 29.6615 14.8398 29.011 14.8398C28.3606 14.8398 27.8333 15.3671 27.8333 16.0175C27.8333 16.668 28.3606 17.1953 29.011 17.1953Z" fill="black" stroke="black" stroke-width="0.8"/>
<path d="M18.2779 17.1953C18.9283 17.1953 19.4556 16.668 19.4556 16.0175C19.4556 15.3671 18.9283 14.8398 18.2779 14.8398C17.6274 14.8398 17.1001 15.3671 17.1001 16.0175C17.1001 16.668 17.6274 17.1953 18.2779 17.1953Z" fill="black" stroke="black" stroke-width="0.8"/>
</svg>
