<svg width="62" height="47" viewBox="0 0 62 47" fill="none" xmlns="http://www.w3.org/2000/svg">
<mask id="path-1-outside-1" maskUnits="userSpaceOnUse" x="0" y="0" width="62" height="47" fill="black">
<rect fill="white" width="62" height="47"/>
<path d="M57.129 1H50.559C49.601 1 48.6729 1.28161 47.8755 1.8129L47.0132 2.38774C46.5013 1.55839 45.5926 1 44.5484 1H42.6129C41.5687 1 40.66 1.55839 40.1481 2.38774L39.2868 1.8129C38.4884 1.28161 37.5603 1 36.6023 1H25.3977C24.4397 1 23.5116 1.28161 22.7142 1.8129L21.8519 2.38774C21.34 1.55839 20.4313 1 19.3871 1H17.4516C16.4074 1 15.4987 1.55839 14.9868 2.38774L14.1255 1.8129C13.3271 1.28161 12.399 1 11.441 1H4.87097C2.73613 1 1 2.73613 1 4.87097V41.6452C1 43.78 2.73613 45.5161 4.87097 45.5161H10.2081C12.0177 45.5161 13.7181 44.8116 14.9984 43.5323L15.6197 42.911C16.121 43.3232 16.7529 43.5806 17.4516 43.5806H19.3871C20.0858 43.5806 20.7177 43.3232 21.22 42.911L21.8413 43.5323C23.1206 44.8116 24.8219 45.5161 26.6316 45.5161H35.3694C37.179 45.5161 38.8794 44.8116 40.1597 43.5323L40.781 42.911C41.2823 43.3232 41.9142 43.5806 42.6129 43.5806H44.5484C45.2471 43.5806 45.879 43.3232 46.3813 42.911L47.0026 43.5323C48.2819 44.8116 49.9832 45.5161 51.7929 45.5161H57.129C59.2639 45.5161 61 43.78 61 41.6452V4.87097C61 2.73613 59.2639 1 57.129 1ZM48.9487 3.42323C49.4277 3.10387 49.9842 2.93548 50.559 2.93548H57.129C58.1964 2.93548 59.0645 3.80355 59.0645 4.87097V37.7742H52.8758C50.9539 37.7742 49.091 37.2506 47.4516 36.2665V30.0323H48.4194C50.02 30.0323 51.3226 28.7297 51.3226 27.129V19.3871C51.3226 17.7865 50.02 16.4839 48.4194 16.4839H47.4516V4.42097L48.9487 3.42323ZM45.5161 28.0968H41.6452V22.2903H45.5161V28.0968ZM39.7097 20.3548V28.0968H38.7419C38.2087 28.0968 37.7742 27.6623 37.7742 27.129V19.3871C37.7742 18.8539 38.2087 18.4194 38.7419 18.4194H48.4194C48.9526 18.4194 49.3871 18.8539 49.3871 19.3871V27.129C49.3871 27.6623 48.9526 28.0968 48.4194 28.0968H47.4516V20.3548H39.7097ZM42.6129 2.93548H44.5484C45.0816 2.93548 45.5161 3.37 45.5161 3.90323V16.4839H41.6452V3.90323C41.6452 3.37 42.0797 2.93548 42.6129 2.93548ZM23.7874 3.42323C24.2665 3.10387 24.8229 2.93548 25.3977 2.93548H36.6023C37.1771 2.93548 37.7335 3.10387 38.2126 3.42323L39.7097 4.42097V16.4839H38.7419C37.1413 16.4839 35.8387 17.7865 35.8387 19.3871V27.129C35.8387 28.7297 37.1413 30.0323 38.7419 30.0323H39.7097V36.2665C38.0694 37.2506 36.2065 37.7742 34.2855 37.7742H27.7155C25.7935 37.7742 23.9306 37.2506 22.2913 36.2665V30.0323H23.259C24.8597 30.0323 26.1623 28.7297 26.1623 27.129V19.3871C26.1623 17.7865 24.8597 16.4839 23.259 16.4839H22.2913V4.42097L23.7874 3.42323ZM20.3548 28.0968H16.4839V22.2903H20.3548V28.0968ZM14.5484 20.3548V28.0968H13.5806C13.0474 28.0968 12.6129 27.6623 12.6129 27.129V19.3871C12.6129 18.8539 13.0474 18.4194 13.5806 18.4194H23.2581C23.7913 18.4194 24.2258 18.8539 24.2258 19.3871V27.129C24.2258 27.6623 23.7913 28.0968 23.2581 28.0968H22.2903V20.3548H14.5484ZM17.4516 2.93548H19.3871C19.9203 2.93548 20.3548 3.37 20.3548 3.90323V16.4839H16.4839V3.90323C16.4839 3.37 16.9184 2.93548 17.4516 2.93548ZM4.87097 2.93548H11.441C12.0158 2.93548 12.5723 3.10387 13.0513 3.42323L14.5484 4.42097V16.4839H13.5806C11.98 16.4839 10.6774 17.7865 10.6774 19.3871V27.129C10.6774 28.7297 11.98 30.0323 13.5806 30.0323H14.5484V36.2665C12.9081 37.2506 11.0452 37.7742 9.12419 37.7742H2.93548V4.87097C2.93548 3.80355 3.80355 2.93548 4.87097 2.93548ZM10.2081 43.5806H4.87097C3.80355 43.5806 2.93548 42.7126 2.93548 41.6452V39.7097H9.12419C11.0171 39.7097 12.8635 39.2819 14.5484 38.4671V40.6774C14.5484 40.8535 14.5706 41.0248 14.6006 41.1923L13.63 42.1629C12.7155 43.0774 11.5 43.5806 10.2081 43.5806ZM19.3871 41.6452H17.4516C16.9184 41.6452 16.4839 41.2106 16.4839 40.6774V30.0323H20.3548V40.6774C20.3548 41.2106 19.9203 41.6452 19.3871 41.6452ZM35.3694 43.5806H26.6316C25.3397 43.5806 24.1242 43.0774 23.2097 42.1639L22.239 41.1932C22.2681 41.0248 22.2903 40.8535 22.2903 40.6774V38.4671C23.9761 39.2819 25.8216 39.7097 27.7145 39.7097H34.2845C36.1774 39.7097 38.0239 39.2819 39.7087 38.4671V40.6774C39.7087 40.8535 39.731 41.0248 39.761 41.1923L38.7903 42.1629C37.8768 43.0774 36.6613 43.5806 35.3694 43.5806ZM44.5484 41.6452H42.6129C42.0797 41.6452 41.6452 41.2106 41.6452 40.6774V30.0323H45.5161V40.6774C45.5161 41.2106 45.0816 41.6452 44.5484 41.6452ZM57.129 43.5806H51.7919C50.5 43.5806 49.2845 43.0774 48.37 42.1639L47.3994 41.1932C47.4294 41.0248 47.4516 40.8535 47.4516 40.6774V38.4671C49.1374 39.2819 50.9829 39.7097 52.8758 39.7097H59.0645V41.6452C59.0645 42.7126 58.1964 43.5806 57.129 43.5806Z"/>
</mask>
<path d="M57.129 1H50.559C49.601 1 48.6729 1.28161 47.8755 1.8129L47.0132 2.38774C46.5013 1.55839 45.5926 1 44.5484 1H42.6129C41.5687 1 40.66 1.55839 40.1481 2.38774L39.2868 1.8129C38.4884 1.28161 37.5603 1 36.6023 1H25.3977C24.4397 1 23.5116 1.28161 22.7142 1.8129L21.8519 2.38774C21.34 1.55839 20.4313 1 19.3871 1H17.4516C16.4074 1 15.4987 1.55839 14.9868 2.38774L14.1255 1.8129C13.3271 1.28161 12.399 1 11.441 1H4.87097C2.73613 1 1 2.73613 1 4.87097V41.6452C1 43.78 2.73613 45.5161 4.87097 45.5161H10.2081C12.0177 45.5161 13.7181 44.8116 14.9984 43.5323L15.6197 42.911C16.121 43.3232 16.7529 43.5806 17.4516 43.5806H19.3871C20.0858 43.5806 20.7177 43.3232 21.22 42.911L21.8413 43.5323C23.1206 44.8116 24.8219 45.5161 26.6316 45.5161H35.3694C37.179 45.5161 38.8794 44.8116 40.1597 43.5323L40.781 42.911C41.2823 43.3232 41.9142 43.5806 42.6129 43.5806H44.5484C45.2471 43.5806 45.879 43.3232 46.3813 42.911L47.0026 43.5323C48.2819 44.8116 49.9832 45.5161 51.7929 45.5161H57.129C59.2639 45.5161 61 43.78 61 41.6452V4.87097C61 2.73613 59.2639 1 57.129 1ZM48.9487 3.42323C49.4277 3.10387 49.9842 2.93548 50.559 2.93548H57.129C58.1964 2.93548 59.0645 3.80355 59.0645 4.87097V37.7742H52.8758C50.9539 37.7742 49.091 37.2506 47.4516 36.2665V30.0323H48.4194C50.02 30.0323 51.3226 28.7297 51.3226 27.129V19.3871C51.3226 17.7865 50.02 16.4839 48.4194 16.4839H47.4516V4.42097L48.9487 3.42323ZM45.5161 28.0968H41.6452V22.2903H45.5161V28.0968ZM39.7097 20.3548V28.0968H38.7419C38.2087 28.0968 37.7742 27.6623 37.7742 27.129V19.3871C37.7742 18.8539 38.2087 18.4194 38.7419 18.4194H48.4194C48.9526 18.4194 49.3871 18.8539 49.3871 19.3871V27.129C49.3871 27.6623 48.9526 28.0968 48.4194 28.0968H47.4516V20.3548H39.7097ZM42.6129 2.93548H44.5484C45.0816 2.93548 45.5161 3.37 45.5161 3.90323V16.4839H41.6452V3.90323C41.6452 3.37 42.0797 2.93548 42.6129 2.93548ZM23.7874 3.42323C24.2665 3.10387 24.8229 2.93548 25.3977 2.93548H36.6023C37.1771 2.93548 37.7335 3.10387 38.2126 3.42323L39.7097 4.42097V16.4839H38.7419C37.1413 16.4839 35.8387 17.7865 35.8387 19.3871V27.129C35.8387 28.7297 37.1413 30.0323 38.7419 30.0323H39.7097V36.2665C38.0694 37.2506 36.2065 37.7742 34.2855 37.7742H27.7155C25.7935 37.7742 23.9306 37.2506 22.2913 36.2665V30.0323H23.259C24.8597 30.0323 26.1623 28.7297 26.1623 27.129V19.3871C26.1623 17.7865 24.8597 16.4839 23.259 16.4839H22.2913V4.42097L23.7874 3.42323ZM20.3548 28.0968H16.4839V22.2903H20.3548V28.0968ZM14.5484 20.3548V28.0968H13.5806C13.0474 28.0968 12.6129 27.6623 12.6129 27.129V19.3871C12.6129 18.8539 13.0474 18.4194 13.5806 18.4194H23.2581C23.7913 18.4194 24.2258 18.8539 24.2258 19.3871V27.129C24.2258 27.6623 23.7913 28.0968 23.2581 28.0968H22.2903V20.3548H14.5484ZM17.4516 2.93548H19.3871C19.9203 2.93548 20.3548 3.37 20.3548 3.90323V16.4839H16.4839V3.90323C16.4839 3.37 16.9184 2.93548 17.4516 2.93548ZM4.87097 2.93548H11.441C12.0158 2.93548 12.5723 3.10387 13.0513 3.42323L14.5484 4.42097V16.4839H13.5806C11.98 16.4839 10.6774 17.7865 10.6774 19.3871V27.129C10.6774 28.7297 11.98 30.0323 13.5806 30.0323H14.5484V36.2665C12.9081 37.2506 11.0452 37.7742 9.12419 37.7742H2.93548V4.87097C2.93548 3.80355 3.80355 2.93548 4.87097 2.93548ZM10.2081 43.5806H4.87097C3.80355 43.5806 2.93548 42.7126 2.93548 41.6452V39.7097H9.12419C11.0171 39.7097 12.8635 39.2819 14.5484 38.4671V40.6774C14.5484 40.8535 14.5706 41.0248 14.6006 41.1923L13.63 42.1629C12.7155 43.0774 11.5 43.5806 10.2081 43.5806ZM19.3871 41.6452H17.4516C16.9184 41.6452 16.4839 41.2106 16.4839 40.6774V30.0323H20.3548V40.6774C20.3548 41.2106 19.9203 41.6452 19.3871 41.6452ZM35.3694 43.5806H26.6316C25.3397 43.5806 24.1242 43.0774 23.2097 42.1639L22.239 41.1932C22.2681 41.0248 22.2903 40.8535 22.2903 40.6774V38.4671C23.9761 39.2819 25.8216 39.7097 27.7145 39.7097H34.2845C36.1774 39.7097 38.0239 39.2819 39.7087 38.4671V40.6774C39.7087 40.8535 39.731 41.0248 39.761 41.1923L38.7903 42.1629C37.8768 43.0774 36.6613 43.5806 35.3694 43.5806ZM44.5484 41.6452H42.6129C42.0797 41.6452 41.6452 41.2106 41.6452 40.6774V30.0323H45.5161V40.6774C45.5161 41.2106 45.0816 41.6452 44.5484 41.6452ZM57.129 43.5806H51.7919C50.5 43.5806 49.2845 43.0774 48.37 42.1639L47.3994 41.1932C47.4294 41.0248 47.4516 40.8535 47.4516 40.6774V38.4671C49.1374 39.2819 50.9829 39.7097 52.8758 39.7097H59.0645V41.6452C59.0645 42.7126 58.1964 43.5806 57.129 43.5806Z" fill="black"/>
<path d="M57.129 1H50.559C49.601 1 48.6729 1.28161 47.8755 1.8129L47.0132 2.38774C46.5013 1.55839 45.5926 1 44.5484 1H42.6129C41.5687 1 40.66 1.55839 40.1481 2.38774L39.2868 1.8129C38.4884 1.28161 37.5603 1 36.6023 1H25.3977C24.4397 1 23.5116 1.28161 22.7142 1.8129L21.8519 2.38774C21.34 1.55839 20.4313 1 19.3871 1H17.4516C16.4074 1 15.4987 1.55839 14.9868 2.38774L14.1255 1.8129C13.3271 1.28161 12.399 1 11.441 1H4.87097C2.73613 1 1 2.73613 1 4.87097V41.6452C1 43.78 2.73613 45.5161 4.87097 45.5161H10.2081C12.0177 45.5161 13.7181 44.8116 14.9984 43.5323L15.6197 42.911C16.121 43.3232 16.7529 43.5806 17.4516 43.5806H19.3871C20.0858 43.5806 20.7177 43.3232 21.22 42.911L21.8413 43.5323C23.1206 44.8116 24.8219 45.5161 26.6316 45.5161H35.3694C37.179 45.5161 38.8794 44.8116 40.1597 43.5323L40.781 42.911C41.2823 43.3232 41.9142 43.5806 42.6129 43.5806H44.5484C45.2471 43.5806 45.879 43.3232 46.3813 42.911L47.0026 43.5323C48.2819 44.8116 49.9832 45.5161 51.7929 45.5161H57.129C59.2639 45.5161 61 43.78 61 41.6452V4.87097C61 2.73613 59.2639 1 57.129 1ZM48.9487 3.42323C49.4277 3.10387 49.9842 2.93548 50.559 2.93548H57.129C58.1964 2.93548 59.0645 3.80355 59.0645 4.87097V37.7742H52.8758C50.9539 37.7742 49.091 37.2506 47.4516 36.2665V30.0323H48.4194C50.02 30.0323 51.3226 28.7297 51.3226 27.129V19.3871C51.3226 17.7865 50.02 16.4839 48.4194 16.4839H47.4516V4.42097L48.9487 3.42323ZM45.5161 28.0968H41.6452V22.2903H45.5161V28.0968ZM39.7097 20.3548V28.0968H38.7419C38.2087 28.0968 37.7742 27.6623 37.7742 27.129V19.3871C37.7742 18.8539 38.2087 18.4194 38.7419 18.4194H48.4194C48.9526 18.4194 49.3871 18.8539 49.3871 19.3871V27.129C49.3871 27.6623 48.9526 28.0968 48.4194 28.0968H47.4516V20.3548H39.7097ZM42.6129 2.93548H44.5484C45.0816 2.93548 45.5161 3.37 45.5161 3.90323V16.4839H41.6452V3.90323C41.6452 3.37 42.0797 2.93548 42.6129 2.93548ZM23.7874 3.42323C24.2665 3.10387 24.8229 2.93548 25.3977 2.93548H36.6023C37.1771 2.93548 37.7335 3.10387 38.2126 3.42323L39.7097 4.42097V16.4839H38.7419C37.1413 16.4839 35.8387 17.7865 35.8387 19.3871V27.129C35.8387 28.7297 37.1413 30.0323 38.7419 30.0323H39.7097V36.2665C38.0694 37.2506 36.2065 37.7742 34.2855 37.7742H27.7155C25.7935 37.7742 23.9306 37.2506 22.2913 36.2665V30.0323H23.259C24.8597 30.0323 26.1623 28.7297 26.1623 27.129V19.3871C26.1623 17.7865 24.8597 16.4839 23.259 16.4839H22.2913V4.42097L23.7874 3.42323ZM20.3548 28.0968H16.4839V22.2903H20.3548V28.0968ZM14.5484 20.3548V28.0968H13.5806C13.0474 28.0968 12.6129 27.6623 12.6129 27.129V19.3871C12.6129 18.8539 13.0474 18.4194 13.5806 18.4194H23.2581C23.7913 18.4194 24.2258 18.8539 24.2258 19.3871V27.129C24.2258 27.6623 23.7913 28.0968 23.2581 28.0968H22.2903V20.3548H14.5484ZM17.4516 2.93548H19.3871C19.9203 2.93548 20.3548 3.37 20.3548 3.90323V16.4839H16.4839V3.90323C16.4839 3.37 16.9184 2.93548 17.4516 2.93548ZM4.87097 2.93548H11.441C12.0158 2.93548 12.5723 3.10387 13.0513 3.42323L14.5484 4.42097V16.4839H13.5806C11.98 16.4839 10.6774 17.7865 10.6774 19.3871V27.129C10.6774 28.7297 11.98 30.0323 13.5806 30.0323H14.5484V36.2665C12.9081 37.2506 11.0452 37.7742 9.12419 37.7742H2.93548V4.87097C2.93548 3.80355 3.80355 2.93548 4.87097 2.93548ZM10.2081 43.5806H4.87097C3.80355 43.5806 2.93548 42.7126 2.93548 41.6452V39.7097H9.12419C11.0171 39.7097 12.8635 39.2819 14.5484 38.4671V40.6774C14.5484 40.8535 14.5706 41.0248 14.6006 41.1923L13.63 42.1629C12.7155 43.0774 11.5 43.5806 10.2081 43.5806ZM19.3871 41.6452H17.4516C16.9184 41.6452 16.4839 41.2106 16.4839 40.6774V30.0323H20.3548V40.6774C20.3548 41.2106 19.9203 41.6452 19.3871 41.6452ZM35.3694 43.5806H26.6316C25.3397 43.5806 24.1242 43.0774 23.2097 42.1639L22.239 41.1932C22.2681 41.0248 22.2903 40.8535 22.2903 40.6774V38.4671C23.9761 39.2819 25.8216 39.7097 27.7145 39.7097H34.2845C36.1774 39.7097 38.0239 39.2819 39.7087 38.4671V40.6774C39.7087 40.8535 39.731 41.0248 39.761 41.1923L38.7903 42.1629C37.8768 43.0774 36.6613 43.5806 35.3694 43.5806ZM44.5484 41.6452H42.6129C42.0797 41.6452 41.6452 41.2106 41.6452 40.6774V30.0323H45.5161V40.6774C45.5161 41.2106 45.0816 41.6452 44.5484 41.6452ZM57.129 43.5806H51.7919C50.5 43.5806 49.2845 43.0774 48.37 42.1639L47.3994 41.1932C47.4294 41.0248 47.4516 40.8535 47.4516 40.6774V38.4671C49.1374 39.2819 50.9829 39.7097 52.8758 39.7097H59.0645V41.6452C59.0645 42.7126 58.1964 43.5806 57.129 43.5806Z" stroke="black" stroke-width="1.4" mask="url(#path-1-outside-1)"/>
</svg>
