<svg width="60" height="60" viewBox="0 0 60 60" fill="none" xmlns="http://www.w3.org/2000/svg">
<path d="M22.9688 31.7578C23.9396 31.7578 24.7266 30.9708 24.7266 30C24.7266 29.0292 23.9396 28.2422 22.9688 28.2422C21.9979 28.2422 21.2109 29.0292 21.2109 30C21.2109 30.9708 21.9979 31.7578 22.9688 31.7578Z" fill="black"/>
<path d="M37.0312 31.7578C38.0021 31.7578 38.7891 30.9708 38.7891 30C38.7891 29.0292 38.0021 28.2422 37.0312 28.2422C36.0604 28.2422 35.2734 29.0292 35.2734 30C35.2734 30.9708 36.0604 31.7578 37.0312 31.7578Z" fill="black"/>
<path d="M60 22.9688C60 18.1102 55.9535 14.1797 51.0938 14.1797C49.7025 14.1765 48.3306 14.5064 47.093 15.1418C46.6806 14.8512 46.2287 14.6212 45.7512 14.4586C45.0082 6.36094 38.2289 0 30 0C21.7711 0 14.9918 6.36094 14.2488 14.4586C13.7713 14.6212 13.3194 14.8512 12.907 15.1418C11.6693 14.5064 10.2975 14.1765 8.90625 14.1797C4.04766 14.1797 0 18.109 0 22.9688C0 27.4863 3.48047 31.1414 7.77891 31.684C7.35973 33.4355 7.14812 35.2303 7.14844 37.0312C7.14844 49.6969 17.4 60 30 60C42.6 60 52.8516 49.6969 52.8516 37.0312C52.8512 35.2306 52.6388 33.4362 52.2188 31.6852C56.5078 31.1449 60 27.498 60 22.9688ZM30 3.51562C36.1934 3.51562 41.3332 8.15977 42.1875 14.1797H17.8184C18.6668 8.15977 23.8066 3.51562 30 3.51562ZM15.9375 17.6953H44.0625C44.5287 17.6953 44.9758 17.8805 45.3055 18.2102C45.6351 18.5398 45.8203 18.9869 45.8203 19.4531C45.8203 19.9193 45.6351 20.3664 45.3055 20.6961C44.9758 21.0257 44.5287 21.2109 44.0625 21.2109H15.9375C15.4713 21.2109 15.0242 21.0257 14.6945 20.6961C14.3649 20.3664 14.1797 19.9193 14.1797 19.4531C14.1797 18.9869 14.3649 18.5398 14.6945 18.2102C15.0242 17.8805 15.4713 17.6953 15.9375 17.6953V17.6953ZM3.51562 22.9688C3.51562 20.1117 5.98359 17.6953 8.90625 17.6953C9.57182 17.6942 10.2316 17.8194 10.8504 18.0645C10.6192 18.9107 10.6031 19.8013 10.8037 20.6554C11.0042 21.5094 11.4151 22.2998 11.9988 22.9547C10.7342 24.5696 9.69392 26.3483 8.90625 28.2422C5.97656 28.2422 3.51562 25.8258 3.51562 22.9688ZM30 56.4844C19.3359 56.4844 10.6641 47.7574 10.6641 37.0312C10.6584 32.5125 12.2413 28.1355 15.1359 24.6656C15.4012 24.7064 15.6691 24.7268 15.9375 24.7266H44.0625C44.3309 24.7268 44.5988 24.7064 44.8641 24.6656C47.7561 28.137 49.3386 32.513 49.3359 37.0312C49.3359 47.7574 40.6641 56.4844 30 56.4844ZM51.0938 28.2422C50.3048 26.3484 49.2637 24.5699 47.9988 22.9547C48.5826 22.2998 48.9934 21.5094 49.194 20.6554C49.3946 19.8013 49.3785 18.9107 49.1473 18.0645C49.7669 17.8195 50.4274 17.6943 51.0938 17.6953C54.0152 17.6953 56.4844 20.1105 56.4844 22.9688C56.4844 25.827 54.0164 28.2422 51.0938 28.2422Z" fill="black"/>
<path d="M30 31.7578C23.2148 31.7578 17.6953 36.4887 17.6953 42.3047C17.6953 48.1207 23.2148 52.8516 30 52.8516C36.7852 52.8516 42.3047 48.1207 42.3047 42.3047C42.3047 36.4887 36.7852 31.7578 30 31.7578ZM28.2422 49.1941C24.2355 48.5414 21.2109 45.7031 21.2109 42.3047C21.2109 40.0043 22.5984 37.9582 24.7395 36.6797C24.6628 37.8275 24.9636 38.9689 25.596 39.9299C26.2284 40.8908 27.1577 41.6186 28.2422 42.0023V49.1941ZM30 38.7891C29.6523 38.7891 29.3125 38.686 29.0234 38.4928C28.7343 38.2997 28.509 38.0251 28.376 37.7039C28.2429 37.3827 28.2081 37.0293 28.276 36.6883C28.3438 36.3473 28.5112 36.0341 28.757 35.7883C29.0029 35.5425 29.3161 35.375 29.6571 35.3072C29.998 35.2394 30.3515 35.2742 30.6727 35.4072C30.9939 35.5403 31.2684 35.7656 31.4616 36.0547C31.6547 36.3437 31.7578 36.6836 31.7578 37.0312C31.7578 37.4975 31.5726 37.9446 31.243 38.2742C30.9133 38.6039 30.4662 38.7891 30 38.7891ZM31.7578 49.1941V42.0023C32.8423 41.6186 33.7716 40.8908 34.404 39.9299C35.0364 38.9689 35.3372 37.8275 35.2605 36.6797C37.4016 37.9688 38.7891 40.009 38.7891 42.3047C38.7891 45.7031 35.7645 48.5414 31.7578 49.1941Z" fill="black"/>
</svg>
