<svg width="58" height="48" viewBox="0 0 58 48" fill="none" xmlns="http://www.w3.org/2000/svg">
<path d="M44.1401 14.29L44.3173 14.1136L44.1391 13.9346L44.1393 13.9344L44.1305 13.9263L30.1323 1.13908L30.1323 1.13902L30.1276 1.13489C29.8418 0.886717 29.4765 0.75 29.0983 0.75C28.7202 0.75 28.3549 0.886717 28.0691 1.13489L28.069 1.13483L28.0644 1.13908L14.0804 13.9133C14.0011 13.9674 13.9318 14.0346 13.8754 14.1121C13.7368 14.2142 13.6163 14.3391 13.5191 14.4816L13.4965 14.5148L13.4854 14.5534C10.9867 23.2584 7.68464 31.7095 3.62242 39.7966C3.55156 39.6602 3.45997 39.5341 3.34967 39.4233C3.06423 39.1365 2.67683 38.9751 2.27263 38.9751C1.86843 38.9751 1.48103 39.1365 1.19559 39.4233C0.910183 39.7101 0.750063 40.0988 0.750063 40.5039V45.6176C0.746995 45.954 0.856421 46.2818 1.06103 46.5486C1.26519 46.8147 1.55236 47.0046 1.8768 47.0878C2.19872 47.1786 2.54168 47.1586 2.85099 47.031C3.1614 46.9029 3.41975 46.6738 3.58485 46.3809L3.58628 46.3783C5.82653 42.2896 7.8799 38.1011 9.7402 33.826C8.98707 36.2864 8.22572 38.5386 7.57898 40.3661C7.08023 41.7754 6.64983 42.9316 6.34421 43.7353C6.1914 44.1371 6.0698 44.4508 5.98645 44.6638C5.94478 44.7703 5.91268 44.8517 5.89102 44.9064L5.86648 44.9681L5.86442 44.9733C5.74357 45.19 5.68007 45.4343 5.68007 45.6827C5.68007 45.9358 5.74595 46.1845 5.87121 46.4042C6.01461 46.6751 6.23857 46.8947 6.51219 47.0321C6.78105 47.1672 7.08455 47.2163 7.38184 47.1731L14.9983 47.1731L14.9994 47.1731C15.2398 47.172 15.4765 47.1128 15.6892 47.0006C15.9009 46.8889 16.0828 46.728 16.2197 46.5315C17.281 45.09 18.2715 43.5971 19.1874 42.0582H38.8056C39.7216 43.5971 40.712 45.09 41.7734 46.5315C41.9103 46.728 42.0921 46.8889 42.3038 47.0006C42.5166 47.1128 42.7532 47.172 42.9937 47.1731H42.9948H50.6285C50.8777 47.1762 51.1235 47.1157 51.3429 46.9974C51.5607 46.88 51.7453 46.7095 51.88 46.5017C52.0284 46.2962 52.1205 46.0553 52.1472 45.803C52.174 45.5502 52.1341 45.2947 52.0317 45.0622L52.0316 45.0618L52.0254 45.0461L52.0011 44.9837C51.9936 44.9645 51.9849 44.942 51.9749 44.9164C51.9563 44.8682 51.9333 44.8089 51.9063 44.7387C51.8236 44.5236 51.7029 44.2072 51.551 43.8023C51.2473 42.9925 50.8192 41.8289 50.322 40.4146C49.682 38.5943 48.9278 36.3596 48.177 33.9298C50.0538 38.2052 52.124 42.3932 54.3813 46.4805C54.5099 46.717 54.7006 46.9139 54.9328 47.0495C55.1646 47.1849 55.4289 47.2542 55.6971 47.2498H56.0258H56.0537L56.0808 47.2437C56.4396 47.1628 56.756 46.9522 56.9699 46.6524C57.1811 46.3564 57.278 45.9937 57.243 45.6317V40.5294C57.243 40.1244 57.0829 39.7357 56.7975 39.4489C56.512 39.1621 56.1246 39.0007 55.7205 39.0007C55.3215 39.0006 54.9386 39.1578 54.654 39.438C54.5424 39.548 54.4494 39.6734 54.3771 39.8094C50.3129 31.7203 47.0092 23.267 44.5094 14.5596C44.4773 14.4231 44.4267 14.2917 44.3589 14.169L44.1401 14.29ZM37.0259 39.0007H20.9672C24.2058 33.017 26.8934 26.7487 28.9965 20.274C31.0996 26.7487 33.7872 33.017 37.0259 39.0007ZM44.3477 31.7922C45.7762 36.9462 47.4056 41.5563 48.4051 44.1156H43.817C37.8702 35.0284 33.3645 25.0676 30.4614 14.5897C30.3896 14.2416 30.2011 13.9285 29.9269 13.7029C29.6503 13.4752 29.3036 13.3507 28.9456 13.3507C28.5877 13.3507 28.2409 13.4752 27.9643 13.7029C27.69 13.9286 27.5015 14.2419 27.4297 14.5901C24.566 25.0604 20.1032 35.0206 14.2009 44.1156H9.61175C10.5994 41.5571 12.2229 36.9467 13.6485 31.792C15.128 26.4426 16.3996 20.4888 16.5184 15.6301L28.9965 4.24511L41.4747 15.6301C41.5935 20.4888 42.865 26.4426 44.3477 31.7922Z" fill="black" stroke="black" stroke-width="0.5"/>
</svg>
