<svg width="60" height="71" viewBox="0 0 60 71" fill="none" xmlns="http://www.w3.org/2000/svg">
<path d="M15.8442 16.3543C16.8862 16.3543 17.7315 15.5098 17.7315 14.4671V6.07996C17.7315 5.03726 16.8862 4.19275 15.8442 4.19275C14.8023 4.19275 13.957 5.03726 13.957 6.07996V14.4671C13.9578 15.5098 14.8023 16.3543 15.8442 16.3543Z" fill="black"/>
<path d="M24.1133 16.3543C25.1552 16.3543 26.0005 15.5098 26.0005 14.4671V1.88722C26.0005 0.844508 25.1552 0 24.1133 0C23.0714 0 22.2261 0.844508 22.2261 1.88722V14.4679C22.2261 15.5098 23.0706 16.3543 24.1133 16.3543Z" fill="black"/>
<path d="M31.6614 16.3543C32.7033 16.3543 33.5486 15.5098 33.5486 14.4671V6.07996C33.5486 5.03726 32.7033 4.19275 31.6614 4.19275C30.6195 4.19275 29.7742 5.03726 29.7742 6.07996V14.4671C29.7742 15.5098 30.6187 16.3543 31.6614 16.3543Z" fill="black"/>
<path d="M60 44.8701C60 37.814 54.5209 32.0247 47.5956 31.5029V21.3868C47.5956 20.3441 46.7503 19.4996 45.7084 19.4996H1.88722C0.845291 19.4996 0 20.3441 0 21.3868V62.4207C0 66.7325 3.50808 70.2406 7.82071 70.2406H39.7757C44.0875 70.2406 47.5964 66.7325 47.5964 62.4207V58.2373C54.5217 57.7148 60 51.9262 60 44.8701ZM43.822 62.4199C43.822 64.651 42.0068 66.4654 39.7757 66.4654H7.82071C5.58958 66.4654 3.77443 64.651 3.77443 62.4199V23.2733H15.2152V29.1441H11.6327C9.88419 29.1441 8.46153 30.5668 8.46153 32.3153V47.7789C8.46153 49.5274 9.88419 50.9501 11.6327 50.9501H22.5722C24.3207 50.9501 25.7434 49.5274 25.7434 47.7789V32.3153C25.7434 30.5668 24.3207 29.1441 22.5722 29.1441H18.9897V23.2733H43.822V62.4199V62.4199ZM21.969 32.9185V47.1765H12.236V32.9185H21.969V32.9185ZM47.5964 54.4613V35.2781C52.4394 35.7874 56.2263 39.8947 56.2263 44.8701C56.2263 49.8455 52.4394 53.9521 47.5964 54.4613Z" fill="black"/>
</svg>
