<svg width="54" height="54" viewBox="0 0 54 54" fill="none" xmlns="http://www.w3.org/2000/svg">
<path d="M44.8759 43.2567H38.3758C37.9448 43.2567 37.5314 43.0855 37.2267 42.7807C36.9219 42.476 36.7507 42.0626 36.7507 41.6317C36.7507 41.2007 36.9219 40.7873 37.2267 40.4826C37.5314 40.1778 37.9448 40.0066 38.3758 40.0066H44.8759C46.1688 40.0066 47.4088 39.493 48.3231 38.5787C49.2373 37.6645 49.751 36.4245 49.751 35.1315V28.6314C49.751 27.3385 49.2373 26.0985 48.3231 25.1842C47.4088 24.27 46.1688 23.7563 44.8759 23.7563H38.3758C37.9448 23.7563 37.5314 23.5851 37.2267 23.2804C36.9219 22.9756 36.7507 22.5623 36.7507 22.1313C36.7507 21.7003 36.9219 21.287 37.2267 20.9822C37.5314 20.6775 37.9448 20.5063 38.3758 20.5063H44.8759C47.0308 20.5063 49.0975 21.3623 50.6212 22.8861C52.145 24.4098 53.001 26.4765 53.001 28.6314V35.1315C53.001 37.2865 52.145 39.3531 50.6212 40.8769C49.0975 42.4006 47.0308 43.2567 44.8759 43.2567Z" fill="black" stroke="black" stroke-width="0.5"/>
<path d="M33.5006 53.0068H7.50011C5.77618 53.0068 4.12285 52.322 2.90384 51.103C1.68483 49.884 1 48.2307 1 46.5067V15.6312C1 15.2002 1.17121 14.7869 1.47596 14.4821C1.78071 14.1774 2.19404 14.0062 2.62503 14.0062H38.3757C38.8066 14.0062 39.22 14.1774 39.5247 14.4821C39.8295 14.7869 40.0007 15.2002 40.0007 15.6312V46.5067C40.0007 48.2307 39.3159 49.884 38.0968 51.103C36.8778 52.322 35.2245 53.0068 33.5006 53.0068ZM4.25006 17.2562V46.5067C4.25006 47.3687 4.59247 48.1954 5.20198 48.8049C5.81148 49.4144 6.63815 49.7568 7.50011 49.7568H33.5006C34.3625 49.7568 35.1892 49.4144 35.7987 48.8049C36.4082 48.1954 36.7506 47.3687 36.7506 46.5067V17.2562H4.25006Z" fill="black" stroke="black" stroke-width="0.5"/>
<path d="M34.248 17.2562C33.9622 17.2555 33.6816 17.1794 33.4345 17.0356C33.1875 16.8917 32.9827 16.6853 32.841 16.437C32.6992 16.1888 32.6255 15.9076 32.6271 15.6217C32.6288 15.3358 32.7059 15.0555 32.8505 14.8089C33.2761 14.0678 33.4994 13.2279 33.498 12.3733C33.4966 11.5187 33.2707 10.6795 32.8427 9.9398C32.4147 9.20009 31.7998 8.58587 31.0597 8.15872C30.3195 7.73156 29.48 7.50649 28.6254 7.50605C28.0573 7.49608 27.4928 7.59881 26.9646 7.80831C26.5837 7.96421 26.1577 7.96972 25.7729 7.82374C25.388 7.67775 25.0729 7.39114 24.8911 7.02179C24.4117 6.02804 23.6094 5.2263 22.6152 4.74763C21.6211 4.26896 20.494 4.14167 19.4182 4.38657C18.3424 4.63148 17.3814 5.23408 16.6925 6.09589C16.0035 6.95769 15.6272 8.02773 15.6252 9.13108C15.6277 9.40148 15.5708 9.66914 15.4585 9.91513C15.3462 10.1611 15.1812 10.3794 14.9752 10.5546C14.7777 10.7212 14.5445 10.8401 14.2937 10.902C14.043 10.964 13.7813 10.9675 13.5289 10.9121C13.1544 10.8023 12.7654 10.7497 12.3751 10.7561C11.0822 10.7561 9.84219 11.2697 8.92794 12.184C8.01368 13.0982 7.50006 14.3382 7.50006 15.6312C7.50006 16.0622 7.32885 16.4755 7.0241 16.7803C6.71935 17.085 6.30601 17.2562 5.87503 17.2562C5.44404 17.2562 5.03071 17.085 4.72596 16.7803C4.42121 16.4755 4.25 16.0622 4.25 15.6312C4.2541 14.5488 4.47354 13.4781 4.89555 12.4814C5.31756 11.4847 5.9337 10.582 6.70806 9.82576C7.48242 9.06955 8.39953 8.47499 9.40596 8.07674C10.4124 7.67848 11.488 7.48448 12.5701 7.50605C12.8802 5.95776 13.6363 4.53394 14.7453 3.4099C15.8543 2.28586 17.2679 1.51067 18.8118 1.17976C20.3558 0.848861 21.9629 0.976696 23.4351 1.54753C24.9074 2.11836 26.1805 3.10727 27.0979 4.3925C28.6285 4.0991 30.2111 4.25207 31.6572 4.83315C33.1032 5.41424 34.3516 6.39894 35.2536 7.66983C36.1556 8.94073 36.673 10.4442 36.7442 12.001C36.8154 13.5578 36.4375 15.1023 35.6553 16.4502C35.5119 16.696 35.3064 16.8999 35.0594 17.0413C34.8124 17.1828 34.5326 17.2569 34.248 17.2562V17.2562Z" fill="black" stroke="black" stroke-width="0.5"/>
</svg>
