<svg width="48" height="47" viewBox="0 0 48 47" fill="none" xmlns="http://www.w3.org/2000/svg">
<path d="M47.0348 0.59664C46.4597 0.0215763 45.5971 -0.150943 44.7345 0.136589L5.28518 15.9508C4.48009 16.2384 3.90503 17.101 3.90503 17.9636C3.90503 18.8837 4.5376 19.6888 5.34269 19.9188L22.0195 25.6694L27.7702 42.3463C28.0577 43.1513 28.7478 43.6689 29.6104 43.7839H29.7254C30.588 43.7839 31.4506 43.2089 31.7381 42.4038L47.5524 2.89689C47.8974 2.09181 47.6674 1.22921 47.0348 0.59664ZM30.358 20.3213C30.7605 19.9188 30.9905 19.4012 30.9905 18.8262C30.9905 18.2511 30.7605 17.7335 30.358 17.331C29.5529 16.5259 28.1727 16.5259 27.3676 17.331L23.1697 21.529L12.2435 17.791L41.8017 5.94473L29.8979 35.4455L26.16 24.4618L30.358 20.3213Z" fill="black"/>
<path d="M8.44792 27.7397L3.61738 32.2827C2.75479 33.0878 1.37464 33.0302 0.569547 32.1677C-0.235542 31.3051 -0.178035 29.9249 0.68456 29.1198L5.51509 24.5768C6.37769 23.7717 7.75784 23.8292 8.56293 24.6918C9.31051 25.5544 9.31051 26.9346 8.44792 27.7397Z" fill="black"/>
<path d="M13.9686 36.1931L6.43526 43.2664C5.57266 44.0715 4.19251 44.014 3.38742 43.1514C2.58233 42.2888 2.63984 40.9086 3.50243 40.1035L11.0358 33.0302C11.8984 32.2252 13.2785 32.2827 14.0836 33.1453C14.8887 34.0078 14.8312 35.388 13.9686 36.1931Z" fill="black"/>
<path d="M22.7094 41.4836L17.8789 46.0266C17.0163 46.8317 15.6361 46.7742 14.831 45.9116C14.0259 45.049 14.0834 43.6689 14.946 42.8638L19.7766 38.3208C20.6392 37.5157 22.0193 37.5732 22.8244 38.4358C23.6295 39.2984 23.572 40.6785 22.7094 41.4836Z" fill="black"/>
</svg>
