<svg width="60" height="73" viewBox="0 0 60 73" fill="none" xmlns="http://www.w3.org/2000/svg">
<path d="M36.6003 18.6255C35.8929 18.6255 35.2 18.2811 34.7823 17.6453C34.1232 16.6425 34.4016 15.2961 35.4044 14.637C35.4849 14.5839 35.8969 14.2805 36.0458 13.5361C36.2558 12.4842 35.8124 11.0791 34.7976 9.57818C33.4689 7.61211 33.4753 5.85447 33.7143 4.72697C34.289 2.02452 36.6301 0.495437 36.8956 0.329652C37.9153 -0.305319 39.2545 0.00452085 39.8894 1.02257C40.5212 2.03579 40.217 3.3677 39.2118 4.00669C38.9333 4.19018 38.1173 4.87585 37.962 5.64361C37.929 5.80698 37.8292 6.30353 38.3974 7.14292C40.5389 10.3105 40.6186 12.8303 40.3071 14.3875C39.9812 16.0164 39.0637 17.4312 37.7898 18.2674C37.4236 18.5096 37.0099 18.6255 36.6003 18.6255Z" fill="black"/>
<path d="M46.0167 21.0045C45.3093 21.0045 44.6164 20.66 44.1987 20.025C43.5396 19.0223 43.8173 17.6751 44.8208 17.016C44.9013 16.9628 45.3134 16.6603 45.4622 15.9158C45.6723 14.8648 45.2289 13.4588 44.2132 11.9579C42.8845 9.99265 42.8902 8.23582 43.13 7.10752C43.703 4.40426 46.0465 2.87518 46.3121 2.70939C47.3317 2.07362 48.6709 2.38507 49.3051 3.40231C49.9376 4.41553 49.6334 5.74744 48.6274 6.38643C48.349 6.56912 47.5329 7.25479 47.3776 8.02416C47.3454 8.18753 47.2448 8.68327 47.813 9.52346C49.9545 12.6911 50.0342 15.2108 49.7227 16.7673C49.3968 18.3954 48.4802 19.8102 47.2062 20.6471C46.84 20.8894 46.4264 21.0045 46.0167 21.0045Z" fill="black"/>
<path d="M26.4608 21.0045C25.7534 21.0045 25.0605 20.66 24.6428 20.025C23.9837 19.0223 24.2621 17.6751 25.2649 17.016C25.3462 16.9628 25.7574 16.6603 25.9063 15.9158C26.1164 14.8648 25.6729 13.4588 24.6581 11.9579C23.3286 9.99265 23.3342 8.23582 23.5741 7.10752C24.1479 4.40426 26.4914 2.87518 26.7562 2.70939C27.775 2.07362 29.1158 2.38507 29.7499 3.40231C30.3825 4.41553 30.0783 5.74744 29.0723 6.38643C28.7939 6.56912 27.977 7.25479 27.8225 8.02416C27.7895 8.18753 27.6897 8.68327 28.2579 9.52346C30.401 12.6911 30.4791 15.2108 30.1676 16.7673C29.8425 18.3954 28.925 19.8102 27.6519 20.6471C27.2849 20.8894 26.8696 21.0045 26.4608 21.0045Z" fill="black"/>
<path d="M46.9635 72.4299H24.5101C24.391 72.4299 24.2711 72.4195 24.1528 72.4001C15.0282 70.8791 11.4727 66.8262 11.4727 57.9439V33.3176C11.4727 32.1169 12.4456 31.1447 13.6456 31.1447H57.828C59.0279 31.1447 60.0001 32.1169 60.0001 33.3176V57.9439C60.0001 66.8262 56.4454 70.8791 47.32 72.4001C47.2025 72.4195 47.0834 72.4299 46.9635 72.4299ZM24.692 68.0841H46.7816C53.0363 67.0202 55.6551 65.3334 55.6551 57.9439V35.4905H15.8185V57.9439C15.8185 65.3334 18.4372 67.0194 24.692 68.0841Z" fill="black"/>
<path d="M9.86305 61.4777C6.66244 61.4777 4.57967 60.128 3.3049 58.8034C-0.483202 54.8632 -0.495274 47.6218 0.706263 43.7403C1.73236 40.4238 3.45378 38.4384 5.82386 37.8397C9.70853 36.8538 13.3204 40.2669 13.7196 40.6588C14.5766 41.499 14.5895 42.8744 13.7493 43.7307C12.9107 44.5853 11.5386 44.5998 10.6815 43.7653C9.96365 43.0732 8.09334 41.742 6.88375 42.0535C5.83754 42.3223 5.16555 44.0308 4.85732 45.0239C3.98494 47.8455 4.04529 53.3011 6.43791 55.7903C7.75453 57.16 9.69163 57.4803 12.3619 56.7689C13.52 56.4583 14.7118 57.1488 15.0217 58.3076C15.3307 59.4673 14.641 60.6584 13.4813 60.9674C12.1414 61.3248 10.939 61.4777 9.86305 61.4777Z" fill="black"/>
<path d="M43.3418 47.8036C42.1411 47.8036 41.1689 46.8306 41.1689 45.6307V34.0419C41.1689 32.8419 42.1411 31.869 43.3418 31.869C44.5418 31.869 45.5148 32.8419 45.5148 34.0419V45.6307C45.5148 46.8306 44.5418 47.8036 43.3418 47.8036Z" fill="black"/>
<path d="M49.1355 53.598C47.9356 53.598 46.9634 52.6258 46.9634 51.4259V34.0419C46.9634 32.8419 47.9356 31.869 49.1355 31.869C50.3362 31.869 51.3084 32.8419 51.3084 34.0419V51.4251C51.3092 52.6258 50.337 53.598 49.1355 53.598Z" fill="black"/>
<path d="M55.6517 35.4905C54.5605 35.4905 53.6189 34.6688 53.4949 33.5582C53.4346 33.11 52.7119 28.9718 46.9633 28.9718H44.0653C43.3024 28.9718 42.595 28.5718 42.2031 27.9167C42.1532 27.8403 40.4889 25.3503 36.0988 25.3503C32.363 25.3503 30.7341 27.891 30.7189 27.9167C30.3261 28.5718 29.6187 28.9718 28.8558 28.9718H25.2343C19.4857 28.9718 18.7622 33.11 18.6987 33.5816C18.5401 34.7614 17.4601 35.608 16.2795 35.4615C15.0981 35.3159 14.2514 34.2608 14.3834 33.0778C14.7078 30.1548 17.3941 24.626 25.2343 24.626H27.7975C29.0256 23.245 31.6967 21.0045 36.0988 21.0045C41.0064 21.0045 43.8295 23.245 45.1043 24.626H46.9633C54.8035 24.626 57.4891 30.1548 57.8142 33.0778C57.947 34.2704 57.0867 35.3448 55.894 35.4768C55.8127 35.4865 55.7322 35.4905 55.6517 35.4905Z" fill="black"/>
</svg>
