<svg width="311" height="374" viewBox="0 0 311 374" fill="none" xmlns="http://www.w3.org/2000/svg">
<path d="M141.213 245.617C142.442 244.351 143.654 243.073 144.841 241.761C147.605 238.71 150.121 235.518 152.528 232.339C154.931 235.518 157.451 238.71 160.215 241.761C162.453 244.235 164.798 246.605 167.139 248.979C169.92 251.794 172.547 254.454 174.971 257.264C179.197 262.154 182.086 266.898 183.559 271.377C184.709 274.868 187.959 277.08 191.441 277.08C192.301 277.08 193.176 276.943 194.04 276.661C198.398 275.225 200.76 270.53 199.324 266.176C197.161 259.614 193.189 252.96 187.531 246.41C184.742 243.185 181.795 240.2 178.948 237.316C176.773 235.116 174.593 232.912 172.518 230.62C169.148 226.906 166.13 222.838 162.926 218.529C161.664 216.827 160.402 215.134 159.115 213.453C157.546 211.398 155.11 210.195 152.524 210.195C149.942 210.195 147.506 211.398 145.932 213.449C144.633 215.146 143.359 216.861 142.085 218.575C138.893 222.867 135.883 226.918 132.534 230.616C131.471 231.787 130.388 232.932 129.292 234.066C126.096 237.357 126.179 242.612 129.471 245.804C132.762 248.988 138.025 248.913 141.213 245.617Z" fill="#F9F9F9"/>
<path d="M263.212 304.355C262.893 304.147 262.544 303.994 262.216 303.798C261.623 303.329 260.979 302.906 260.245 302.603L229.873 290.155C248.876 270.659 260.618 244.048 260.618 214.731C260.618 210.518 255.807 177.561 248.643 158.659C241.168 138.943 228.13 115.233 227.578 114.233C225.893 111.174 222.485 109.505 219.019 110.041C215.57 110.58 212.83 113.224 212.162 116.653L210.784 123.718C209.19 131.87 206.588 139.715 203.014 147.14C199.411 132.87 193.604 113.287 186.672 102.416C166.051 70.0773 141.387 54.9934 140.35 54.3666C137.506 52.6565 133.92 52.8101 131.235 54.7361C128.541 56.6662 127.25 60.02 127.96 63.2617C128.001 63.4527 132.094 82.6541 130.533 112.585C129.902 124.705 124.079 139.453 119.928 148.576C116.595 145.829 113.361 142.728 111.743 140.113C109.858 137.046 107.903 132.779 106.235 128.068C102.715 118.222 100.81 108.044 101.274 101.507C101.569 97.327 98.7051 93.5872 94.5959 92.7778C90.4659 91.9684 86.4147 94.3509 85.1114 98.3274C77.5113 121.41 68.2302 144.351 65.5613 150.835C65.5364 150.901 65.5073 150.967 65.4824 151.034C65.3911 151.25 65.3039 151.474 65.2251 151.702C59.5344 161.938 44.4256 193.579 44.4256 214.727L44.4547 217.4C44.4298 218.861 44.5418 220.314 44.6705 221.858L44.7286 222.763C44.7743 223.506 44.8199 224.195 44.8739 224.589C47.2025 250.303 58.231 273.099 74.9088 290.255L44.8033 302.595C44.0769 302.894 43.4419 303.309 42.8525 303.769C42.5163 303.969 42.1676 304.13 41.8355 304.342C34.5426 309.091 29.9644 317.376 29.2629 327.08C28.6112 336.075 31.2386 345.609 36.6512 353.927C42.068 362.249 49.722 368.509 58.2103 371.555C61.9003 372.88 65.6319 373.535 69.2513 373.535C72.8459 373.535 76.3035 372.83 79.5203 371.555C79.869 371.468 80.1969 371.319 80.5331 371.182C80.6327 371.136 80.7323 371.091 80.8361 371.045C81.218 370.875 81.6164 370.759 81.9776 370.526L83.1481 369.775C83.4594 369.592 83.7914 369.455 84.0903 369.256C84.4141 369.044 84.7088 368.799 85.0201 368.575L152.516 325.403L220.364 368.803C220.567 368.945 220.738 369.123 220.945 369.256C221.231 369.443 221.543 369.567 221.833 369.742L223.054 370.522C223.431 370.763 223.838 370.883 224.232 371.057C224.324 371.099 224.415 371.14 224.511 371.182C224.847 371.315 225.171 371.464 225.511 371.547C228.715 372.817 232.115 373.49 235.61 373.49C247.51 373.49 260.278 366.371 268.384 353.923C273.805 345.601 276.428 336.066 275.777 327.072C275.088 317.388 270.505 309.103 263.212 304.355ZM61.3109 221.804L61.2154 220.389C61.1366 219.488 61.0494 218.587 61.066 217.645C61.0702 217.176 61.0619 216.707 61.0494 216.238L61.037 214.736C61.037 197.751 75.0997 168.081 80.2384 158.601C80.5082 158.144 80.7365 157.658 80.915 157.152L80.9233 157.156C82.4466 153.441 86.1034 144.43 90.3953 133.061C90.4617 133.256 90.5281 133.451 90.6028 133.646C92.6699 139.482 95.094 144.729 97.6176 148.838C103.52 158.376 117.043 167.168 118.567 168.139C120.505 169.376 122.875 169.75 125.1 169.177C127.329 168.604 129.217 167.13 130.321 165.109C130.957 163.938 145.933 136.199 147.115 113.457C147.8 100.361 147.481 89.1998 146.846 80.4998C154.516 87.5478 164.026 97.7795 172.68 111.352C180.853 124.166 188.44 156.334 190.678 167.649C191.255 170.576 193.359 172.966 196.186 173.913C199.012 174.855 202.134 174.216 204.354 172.232L210.855 166.421C211.456 165.885 211.975 165.263 212.395 164.578C216.819 157.376 220.406 149.768 223.108 141.832C226.59 149 230.318 157.16 233.123 164.557C239.69 181.891 243.882 212.042 244.019 214.744C244.019 248.859 225.249 278.657 197.51 294.393C197.605 294.185 197.722 293.982 197.813 293.774C199.681 289.59 197.805 284.68 193.616 282.812C189.432 280.944 184.522 282.82 182.65 287.009C178.242 296.883 166.902 305.251 156.758 306.156C156.04 306.189 155.313 306.193 154.591 306.21C154.002 306.21 153.416 306.252 152.831 306.231C152.628 306.222 152.416 306.222 152.217 306.231C152.047 306.235 151.881 306.218 151.706 306.227C150.183 306.214 148.684 306.102 147.178 306.015C135.099 304.321 121.136 292.604 120.385 278.981C120.077 273.344 122.485 267.093 127.549 260.398C130.317 256.741 129.595 251.536 125.934 248.768C122.277 245.999 117.068 246.721 114.308 250.382C106.807 260.298 103.275 270.223 103.806 279.89C104.093 285.087 105.483 289.997 107.617 294.538C82.1602 280.268 64.2164 254.164 61.3773 222.817C61.34 222.481 61.3317 222.153 61.3109 221.804ZM63.8221 355.944C58.7997 354.143 53.9682 350.113 50.5687 344.883C47.1693 339.657 45.4384 333.609 45.8203 328.288C46.0112 325.656 46.9244 320.854 50.8925 318.268C57.6126 313.889 68.8155 318.691 75.3654 328.745C76.0876 329.853 76.7351 330.998 77.3038 332.156C79.3086 336.27 84.2771 337.992 88.4029 335.975C92.5246 333.966 94.2348 328.994 92.2216 324.872C91.3624 323.104 90.3704 321.36 89.2788 319.683C85.954 314.578 81.8323 310.406 77.3246 307.219L87.4856 303.055C87.9754 302.856 88.4278 302.603 88.8595 302.325C100.801 310.988 114.594 317.226 129.545 320.418L94.2223 343.011C93.0186 341.674 91.3956 340.695 89.4863 340.367C84.9288 339.586 80.6784 342.633 79.9022 347.149C79.4788 349.627 78.3124 352.927 75.4152 355.04L74.2696 355.77C70.4592 357.758 66.1507 356.779 63.8221 355.944ZM254.483 344.883C248.074 354.72 237.229 359.468 230.467 355.563L229.508 354.948C225.615 351.993 223.983 345.846 225.399 338.984C226.324 334.493 223.431 330.106 218.94 329.18C214.453 328.251 210.058 331.144 209.136 335.639C208.734 337.602 208.505 339.532 208.385 341.438L175.465 320.381C190.342 317.151 204.076 310.855 215.989 302.18C216.479 302.52 217.002 302.819 217.575 303.055L230.222 308.24C227.964 307.995 225.619 308.647 223.793 310.282C222.813 311.162 221.854 312.1 220.937 313.084C217.803 316.433 217.981 321.688 221.335 324.818C222.933 326.316 224.971 327.055 227.001 327.055C229.218 327.055 231.43 326.171 233.065 324.424C233.655 323.797 234.252 323.203 234.879 322.647C238.291 319.588 238.582 314.337 235.518 310.925C235.203 310.572 234.854 310.278 234.497 309.991L242.807 313.395C244.247 315.279 246.447 316.562 249 316.678C250.943 316.765 252.682 317.301 254.168 318.272C258.136 320.858 259.049 325.656 259.24 328.292C259.614 333.613 257.883 339.661 254.483 344.883Z" fill="#F9F9F9"/>
<path d="M81.0478 54.0139C87.1914 54.0139 92.1718 49.0335 92.1718 42.8899C92.1718 36.7462 87.1914 31.7658 81.0478 31.7658C74.9041 31.7658 69.9237 36.7462 69.9237 42.8899C69.9237 49.0335 74.9041 54.0139 81.0478 54.0139Z" fill="#F9F9F9"/>
<path d="M299.876 217.205C306.02 217.205 311 212.225 311 206.081C311 199.938 306.02 194.957 299.876 194.957C293.732 194.957 288.752 199.938 288.752 206.081C288.752 212.225 293.732 217.205 299.876 217.205Z" fill="#F9F9F9"/>
<path d="M242.355 77.9679C246.513 77.9679 249.884 74.5968 249.884 70.4384C249.884 66.28 246.513 62.9089 242.355 62.9089C238.196 62.9089 234.825 66.28 234.825 70.4384C234.825 74.5968 238.196 77.9679 242.355 77.9679Z" fill="#F9F9F9"/>
<path d="M29.9353 269.721C34.0937 269.721 37.4648 266.35 37.4648 262.191C37.4648 258.033 34.0937 254.662 29.9353 254.662C25.7769 254.662 22.4058 258.033 22.4058 262.191C22.4058 266.35 25.7769 269.721 29.9353 269.721Z" fill="#F9F9F9"/>
<path d="M172.194 20.8949C177.964 20.8949 182.642 16.2174 182.642 10.4475C182.642 4.67749 177.964 0 172.194 0C166.424 0 161.747 4.67749 161.747 10.4475C161.747 16.2174 166.424 20.8949 172.194 20.8949Z" fill="#F9F9F9"/>
<path d="M10.4475 180.002C16.2174 180.002 20.8949 175.324 20.8949 169.554C20.8949 163.785 16.2174 159.107 10.4475 159.107C4.67749 159.107 0 163.785 0 169.554C0 175.324 4.67749 180.002 10.4475 180.002Z" fill="#F9F9F9"/>
</svg>
