<svg width="128" height="128" viewBox="0 0 128 128" fill="none" xmlns="http://www.w3.org/2000/svg">
<path d="M64.4455 116.32C62.0745 113.817 59.7036 111.315 57.3326 108.812C53.5915 104.864 49.8436 100.908 46.1025 96.9594C45.2226 96.0307 44.2935 95.1353 43.4632 94.1596C43.7162 94.5118 43.9759 94.8711 44.2289 95.2233C44.1491 95.1107 44.0965 95.0125 44.0375 94.8935C44.1857 95.2912 44.3338 95.689 44.4823 96.0729C44.4372 95.9543 44.4125 95.8431 44.3954 95.7114C44.4394 96.127 44.4768 96.5356 44.5208 96.9513C44.5103 96.8266 44.5204 96.7095 44.5309 96.5785C44.4645 96.9912 44.4052 97.3972 44.3388 97.8098C44.363 97.6792 44.4003 97.5766 44.4451 97.4535C44.2757 97.8427 44.1063 98.2318 43.9373 98.6072C43.9959 98.4845 44.0675 98.3897 44.1533 98.2815C43.8817 98.6195 43.603 98.9643 43.3314 99.3024C44.3794 98.0942 45.4275 96.8859 46.4759 95.6639C48.9429 92.8153 51.4028 89.9735 53.8698 87.1249C56.7576 83.7835 59.6592 80.4424 62.5471 77.1009C64.8502 74.4345 67.1531 71.7818 69.4562 69.1153C70.0767 68.3929 70.711 67.6709 71.3315 66.9485C71.4527 66.8067 71.5811 66.6582 71.7023 66.5164C72.0732 66.0843 72.4717 65.653 72.775 65.1638C73.685 63.6962 73.9256 61.9481 73.6117 60.268C73.3889 59.0531 72.6978 57.7841 71.8235 56.904C70.9358 56.0096 69.7679 55.2597 68.5317 54.9915C66.8631 54.6218 65.0978 54.7607 63.5961 55.632C63.1259 55.9025 62.695 56.257 62.2648 56.5839C61.7991 56.9443 61.3335 57.3048 60.8679 57.6653C58.4408 59.5478 56.0066 61.437 53.5795 63.3196C50.1435 65.9831 46.7075 68.6466 43.2786 71.3034C40.0613 73.8002 36.8439 76.2969 33.6199 78.7865C31.8349 80.1683 30.0499 81.5501 28.2579 82.9385C28.1732 83.0053 28.0885 83.0721 28.0109 83.1322C28.3631 82.8792 28.7224 82.6195 29.0746 82.3665C28.9619 82.4464 28.8638 82.499 28.7377 82.5646C29.1354 82.4165 29.5332 82.2684 29.9171 82.1198C29.7917 82.1579 29.6873 82.1896 29.5556 82.2068C29.9712 82.1627 30.3798 82.1254 30.7954 82.0814C30.6641 82.0847 30.5537 82.0817 30.4227 82.0713C30.8354 82.1377 31.2413 82.197 31.654 82.2634C31.5234 82.2392 31.4208 82.2018 31.2977 82.1571C31.6869 82.3265 32.076 82.4958 32.4514 82.6648C32.3357 82.5996 32.2339 82.5346 32.1324 82.4559C32.4704 82.7275 32.8152 83.0062 33.1533 83.2779C32.3992 82.5529 31.7021 81.7604 30.9835 81.0019C29.3245 79.2509 27.6655 77.4999 26.0065 75.7489C22.2452 71.779 18.4772 67.802 14.7159 63.8322C13.836 62.9035 12.914 62.0013 12.0766 61.0324C12.3296 61.3846 12.5894 61.7439 12.8423 62.0961C12.7692 61.9905 12.7028 61.892 12.6576 61.7734C12.8058 62.1711 12.9539 62.5688 13.1025 62.9528C13.0573 62.8341 13.0256 62.7297 13.0151 62.605C13.0592 63.0207 13.0965 63.4293 13.1406 63.8449C13.1301 63.7203 13.126 63.6166 13.1432 63.4927C13.0768 63.9054 13.0174 64.3113 12.951 64.724C12.9749 64.6072 12.9984 64.5042 13.0361 64.3878C12.8667 64.777 12.6973 65.1662 12.5283 65.5416C12.5944 65.3983 12.6738 65.2692 12.7671 65.1404C12.4955 65.4785 12.2168 65.8233 11.9452 66.1613C12.0306 66.0669 12.1153 66.0001 12.2209 65.927C11.8687 66.18 11.5094 66.4397 11.1572 66.6927C11.2273 66.6532 11.3045 66.6069 11.3814 66.5744C10.9837 66.7226 10.5859 66.8707 10.202 67.0192C10.9695 66.736 11.756 66.5154 12.5362 66.274C14.5637 65.631 16.5846 64.9809 18.605 64.3447C21.5941 63.396 24.5764 62.4403 27.5655 61.4917C31.2026 60.3326 34.8536 59.1739 38.4908 58.0148C42.4974 56.7344 46.5035 55.4678 50.5101 54.1875C54.5514 52.9011 58.5926 51.6148 62.6339 50.3284C66.3826 49.1309 70.1381 47.9404 73.8868 46.7429C77.071 45.7305 80.2414 44.7177 83.4256 43.7052C85.6972 42.979 87.9825 42.2532 90.2541 41.527C91.3201 41.1896 92.3727 40.8381 93.4383 40.5145C93.5637 40.4765 93.6681 40.4448 93.7931 40.4205C93.3775 40.4645 92.9689 40.5019 92.5532 40.5459C92.7126 40.5295 92.8506 40.5332 93.0021 40.5511C92.5894 40.4847 92.1835 40.4254 91.7708 40.359C91.8805 40.3896 91.9764 40.4198 92.079 40.4571C91.6898 40.2878 91.3006 40.1184 90.9253 39.9494C91.0275 40.0005 91.1021 40.0509 91.1973 40.1087C90.8592 39.8371 90.5144 39.5584 90.1764 39.2867C90.2913 39.3796 90.3853 39.4789 90.4652 39.5916C90.2122 39.2394 89.9525 38.88 89.6995 38.5278C89.7592 38.6192 89.8051 38.7103 89.8439 38.808C89.6958 38.4103 89.5476 38.0125 89.3991 37.6286C89.4308 37.7331 89.4558 37.8305 89.4804 37.9417C89.4364 37.526 89.3991 37.1174 89.355 36.7018C89.3647 36.854 89.3677 36.9991 89.336 37.1503C89.4024 36.7376 89.4617 36.3316 89.5281 35.9189C89.3337 36.7219 88.9394 37.5126 88.6491 38.2853C87.8981 40.2614 87.1471 42.2376 86.4028 44.2208C85.2948 47.1405 84.1863 50.0741 83.0783 52.9938C81.7248 56.5632 80.3712 60.1326 79.0177 63.702C77.5302 67.6269 76.0357 71.5586 74.5549 75.4907C73.0525 79.4567 71.5501 83.4227 70.0406 87.3955C68.6494 91.0813 67.2444 94.7667 65.8532 98.4525C64.6705 101.577 63.4879 104.702 62.2981 107.834C61.4501 110.077 60.6021 112.32 59.7541 114.563C59.3526 115.616 58.965 116.669 58.5569 117.715C58.527 117.797 58.4972 117.879 58.4535 117.961C58.6229 117.572 58.7923 117.183 58.9613 116.807C58.9247 116.882 58.8815 116.95 58.8311 117.025C59.1027 116.687 59.3814 116.342 59.653 116.004C59.5743 116.105 59.4963 116.179 59.4042 116.267C59.7564 116.014 60.1157 115.754 60.4679 115.501C60.3411 115.594 60.2079 115.667 60.0545 115.718C60.4522 115.569 60.85 115.421 61.2339 115.273C61.1157 115.304 61.0115 115.322 60.8936 115.34C61.3093 115.296 61.7179 115.258 62.1335 115.214C62.016 115.218 61.9056 115.215 61.7817 115.198C62.1944 115.264 62.6003 115.323 63.013 115.39C62.8895 115.359 62.7869 115.322 62.6705 115.284C63.0596 115.453 63.4488 115.623 63.8242 115.792C63.7085 115.726 63.6134 115.669 63.5119 115.59C63.8499 115.861 64.1947 116.14 64.5328 116.412C64.5059 116.383 64.4791 116.355 64.4455 116.32C63.5163 115.424 62.3372 114.833 61.0328 114.791C59.8317 114.758 58.3885 115.251 57.5426 116.133C56.6684 117.042 56.0006 118.24 56.0137 119.546C56.0351 120.804 56.4138 122.127 57.3564 123.036C58.5952 124.23 60.021 124.897 61.7523 124.992C63.3869 125.085 65.0783 124.357 66.2484 123.235C67.0923 122.422 67.4874 121.603 67.896 120.544C67.9627 120.373 68.0299 120.188 68.0967 120.017C68.4388 119.115 68.7809 118.212 69.123 117.309C70.484 113.719 71.845 110.13 73.206 106.54C75.1691 101.37 77.1185 96.2005 79.0816 91.0312C81.2903 85.2122 83.4922 79.3861 85.7008 73.5671C87.7684 68.1104 89.836 62.6537 91.8966 57.2038C93.4732 53.0463 95.0498 48.8889 96.6265 44.7315C97.348 42.8236 98.0901 40.9233 98.7978 39.0151C99.7741 36.3681 98.5341 33.1708 96.1345 31.7314C94.6729 30.8561 92.8166 30.5297 91.1655 31.0447C90.4898 31.2545 89.8137 31.478 89.1309 31.6944C85.8351 32.7453 82.5394 33.7962 79.2436 34.8471C74.1781 36.4581 69.1056 38.0758 64.0401 39.6868C58.1597 41.5452 52.2648 43.4309 46.3702 45.3028C40.6846 47.1112 35.0058 48.9267 29.3202 50.7352C24.7912 52.1741 20.269 53.6202 15.7401 55.0592C13.3432 55.8235 10.9533 56.581 8.55641 57.3453C8.40306 57.3964 8.2568 57.4408 8.10344 57.4919C8.06165 57.5046 8.01278 57.524 7.9639 57.5434C6.85536 57.9211 6.20427 58.242 5.30582 59.026C4.56296 59.676 3.9466 60.7577 3.64516 61.6891C2.95759 63.8741 3.5506 66.2181 5.08758 67.8829C5.93312 68.8037 6.81374 69.7048 7.67346 70.6122C11.6362 74.7947 15.5923 78.9702 19.5551 83.1527C21.2007 84.8896 22.8462 86.6264 24.4918 88.3632C24.9149 88.8098 25.3314 89.2493 25.7545 89.696C25.8284 89.7739 25.8955 89.8448 25.9694 89.9228C27.9393 91.9309 31.0672 92.4919 33.5503 91.0944C34.6095 90.4944 35.63 89.541 36.5893 88.807C38.2403 87.5253 39.8913 86.2435 41.5423 84.9618C46.2484 81.3101 50.9541 77.6723 55.6601 74.0207C59.5196 71.0232 63.3858 68.0328 67.2382 65.042C67.859 64.5614 68.4665 64.0666 69.1008 63.6002C68.7485 63.8532 68.3892 64.1129 68.037 64.3659C68.1777 64.273 68.3251 64.1871 68.4788 64.1222C68.081 64.2704 67.6833 64.4185 67.2994 64.567C67.4807 64.5029 67.6475 64.4659 67.8348 64.4364C67.4191 64.4805 67.0106 64.5178 66.5949 64.5618C66.74 64.5589 66.8852 64.5559 67.0296 64.5805C66.6169 64.5141 66.2109 64.4548 65.7983 64.3884C65.9632 64.4205 66.1277 64.4663 66.2848 64.5328C65.8956 64.3634 65.5065 64.194 65.1311 64.025C65.2811 64.0981 65.4307 64.185 65.5591 64.2921C65.221 64.0205 64.8762 63.7418 64.5382 63.4702C64.6934 63.6056 64.821 63.7403 64.9479 63.9026C64.6949 63.5504 64.4352 63.1911 64.1822 62.8389C64.2751 62.9795 64.3609 63.1269 64.4259 63.2806C64.2777 62.8829 64.1296 62.4851 63.981 62.1012C64.0389 62.2616 64.0829 62.4217 64.099 62.5948C64.0549 62.1792 64.0176 61.7706 63.9735 61.355C63.9903 61.5005 63.9795 61.6452 63.9687 61.79C64.0351 61.3773 64.0944 60.9714 64.1608 60.5587C64.1351 60.7445 64.0821 60.9158 64.0015 61.0863C64.1709 60.6971 64.3403 60.3079 64.5093 59.9326C64.4362 60.0826 64.3425 60.2251 64.2422 60.3606C64.5138 60.0225 64.7925 59.6777 65.0641 59.3397C64.35 60.2046 63.5952 61.0408 62.8609 61.8845C61.0711 63.9569 59.2675 66.0289 57.4777 68.1014C55.1533 70.788 52.8288 73.4746 50.5044 76.1612C48.2012 78.8276 45.8984 81.4803 43.5952 84.1468C41.8696 86.1449 40.1373 88.136 38.4117 90.1342C37.9341 90.6808 37.4703 91.2278 36.9928 91.7745C36.8786 91.9096 36.7648 92.0308 36.6506 92.1659C36.6294 92.1861 36.6148 92.2133 36.5935 92.2335C36.2727 92.6047 35.9234 93.0029 35.65 93.41C35.3836 93.8103 35.1758 94.3435 35.0254 94.7954C34.853 95.295 34.7684 95.873 34.7404 96.3972C34.6383 98.1353 35.3462 99.8053 36.5141 101.066C36.6619 101.222 36.8163 101.385 36.9641 101.541C37.6223 102.236 38.2738 102.924 38.9321 103.619C41.1418 105.951 43.3449 108.276 45.5546 110.608C47.9726 113.16 50.3906 115.712 52.8085 118.265C54.2526 119.789 55.6899 121.306 57.134 122.83C57.2012 122.901 57.2751 122.979 57.3422 123.05C58.2019 123.957 59.5057 124.538 60.7549 124.579C61.956 124.611 63.3992 124.118 64.245 123.236C65.1192 122.327 65.7871 121.129 65.774 119.823C65.7608 118.517 65.3589 117.284 64.4455 116.32Z" fill="black"/>
</svg>
