<svg width="82" height="82" viewBox="0 0 82 82" fill="none" xmlns="http://www.w3.org/2000/svg">
<path fill-rule="evenodd" clip-rule="evenodd" d="M16.1077 53.166C13.1514 47.5223 10.2045 37.8191 15.9858 26.7098C18.7577 21.3816 22.792 17.9848 26.642 14.3066C29.8764 11.2191 32.9639 7.88477 34.4952 2.29727C34.7358 1.41289 35.3577 0.678517 36.1889 0.291017C37.0233 -0.0964829 37.9858 -0.0964835 38.8202 0.287892C38.8202 0.287892 49.5327 5.22852 58.1795 14.7098C66.3889 23.7098 72.767 36.6816 67.0764 53.2816C72.1514 54.1285 75.4795 56.0723 77.6514 58.566C80.0295 61.2973 81.0858 64.7723 81.2545 68.641C81.4483 73.1098 79.0983 75.966 76.3858 77.7316C74.1014 79.2191 71.5826 79.8441 70.7545 80.0504C66.2545 81.1816 58.2202 82.7379 49.5108 78.7504C47.0327 80.2473 44.0327 81.241 41.1483 81.241C37.4702 81.241 34.7827 80.5973 32.8108 79.716C24.467 81.8566 15.9889 81.5879 10.4858 80.0535C7.57016 79.241 5.40141 78.0129 4.17328 76.7035C0.217031 72.4816 -0.667344 67.8879 0.442031 63.9129C2.00453 58.3316 7.85766 53.6473 16.1077 53.166ZM54.4108 73.966C60.5202 75.9754 66.0077 74.8004 69.2327 73.991C69.7795 73.8535 71.4639 73.4816 72.9733 72.4973C74.0577 71.791 75.0889 70.7004 75.0108 68.916C74.9077 66.5348 74.4014 64.3504 72.9389 62.6723C71.4202 60.9285 68.9389 59.8129 65.2264 59.3254C59.2108 58.5379 54.767 62.1598 53.117 63.7785C54.5139 65.3598 55.1639 67.2129 55.4545 69.2316C55.6733 70.7316 55.3077 72.3816 54.4108 73.966ZM30.092 62.4285C28.192 61.0441 24.1483 59.0785 16.742 59.391C11.4952 59.616 7.44828 62.0754 6.46391 65.5941C5.86391 67.7441 6.59516 70.1473 8.73578 72.4316C9.67328 73.4348 11.7139 74.0504 14.2733 74.5098C17.9108 75.1629 22.5233 75.2379 27.3077 74.4816C27.0202 73.8129 26.917 73.3223 26.8827 73.1566C26.8608 73.0535 26.8514 72.9973 26.8514 72.9848L26.8108 72.4816C26.8108 69.7004 27.0639 65.5223 29.8483 62.6691C29.9264 62.5879 30.0077 62.5098 30.092 62.4285ZM33.0514 71.9504C33.392 72.4785 35.3108 74.991 41.1483 74.991C43.7077 74.991 46.4014 73.6785 48.067 72.0348C48.442 71.666 48.7639 71.2785 48.9952 70.8816C49.1483 70.6191 49.3045 70.3785 49.2702 70.1254C48.8764 67.4035 47.0389 65.9316 39.7733 65.666C37.0233 65.566 35.3108 66.0223 34.3202 67.0348C32.9733 68.416 33.0264 70.4504 33.0514 71.9504ZM60.4202 53.241C66.3702 38.3754 60.7764 26.8316 53.5608 18.9191C48.5295 13.4035 42.7233 9.59414 39.2608 7.59414C37.2233 12.4098 34.1889 15.741 30.9608 18.8254C27.5889 22.0473 23.9577 24.9316 21.5295 29.5973C15.5514 41.0848 21.5233 50.6473 23.5702 53.3941C31.317 54.3629 34.817 57.5379 36.3077 59.6004C37.4014 59.4379 38.6264 59.3691 40.0014 59.4191C43.1702 59.5348 45.6514 59.9379 47.6077 60.5254C47.8014 60.3004 52.7108 54.566 60.4202 53.241ZM31.2577 46.9035C31.2577 46.9035 31.2577 56.2785 40.6327 56.2785C46.1202 56.2785 50.0077 51.591 50.0077 46.9035C50.0077 34.866 42.6108 28.0723 42.6108 28.0723C41.9764 27.4816 41.1264 27.1785 40.2608 27.2379C39.3952 27.2973 38.592 27.716 38.0483 28.391C31.2327 36.8098 31.2577 46.9035 31.2577 46.9035ZM40.6514 35.6848C37.5233 41.3723 37.5077 46.9035 37.5077 46.9035C37.5077 46.9035 37.5077 50.0285 40.6327 50.0285C42.4608 50.0285 43.7577 48.466 43.7577 46.9035C43.7577 41.9191 42.1264 38.1066 40.6514 35.6848Z" fill="black"/>
</svg>
