<svg width="176" height="265" viewBox="0 0 176 265" fill="none" xmlns="http://www.w3.org/2000/svg">
<path d="M79.5286 138.327C80.2206 137.614 80.9032 136.894 81.5717 136.155C83.1286 134.437 84.5452 132.64 85.901 130.849C87.2545 132.64 88.6735 134.437 90.2303 136.155C91.4903 137.549 92.8111 138.883 94.1295 140.221C95.6957 141.805 97.1754 143.304 98.5406 144.886C100.92 147.64 102.547 150.312 103.377 152.834C104.025 154.8 105.855 156.046 107.816 156.046C108.3 156.046 108.793 155.969 109.28 155.81C111.734 155.001 113.064 152.358 112.255 149.905C111.038 146.21 108.8 142.462 105.614 138.774C104.043 136.957 102.384 135.276 100.78 133.652C99.5551 132.413 98.3279 131.172 97.159 129.881C95.2609 127.789 93.5614 125.498 91.7568 123.072C91.0461 122.113 90.3355 121.159 89.6108 120.213C88.7272 119.056 87.355 118.378 85.8987 118.378C84.4447 118.378 83.0725 119.056 82.1865 120.21C81.4548 121.167 80.7372 122.132 80.0195 123.097C78.2219 125.515 76.5271 127.796 74.6406 129.879C74.0422 130.538 73.4321 131.183 72.8149 131.821C71.015 133.675 71.0617 136.635 72.9155 138.432C74.7692 140.225 77.7333 140.183 79.5286 138.327Z" fill="white"/>
<path d="M148.236 171.407C148.056 171.29 147.86 171.204 147.675 171.094C147.341 170.83 146.979 170.591 146.565 170.42L129.46 163.41C140.162 152.43 146.775 137.443 146.775 120.933C146.775 118.56 144.066 99.9992 140.031 89.3537C135.821 78.2499 128.479 64.8973 128.168 64.334C127.219 62.6111 125.299 61.6714 123.348 61.973C121.405 62.2769 119.862 63.7659 119.486 65.6968L118.71 69.6755C117.812 74.2666 116.346 78.6847 114.334 82.8667C112.305 74.83 109.034 63.801 105.13 57.6787C93.517 39.4662 79.6268 30.9713 79.0424 30.6183C77.4411 29.6552 75.4214 29.7417 73.909 30.8263C72.3918 31.9133 71.6648 33.8022 72.0646 35.6278C72.0879 35.7354 74.3928 46.5493 73.5139 63.4059C73.1586 70.2318 69.8789 78.5374 67.5412 83.6755C65.6641 82.128 63.8431 80.3818 62.9314 78.9091C61.8701 77.1816 60.7691 74.7785 59.8294 72.1253C57.8471 66.5804 56.7741 60.8486 57.0359 57.1668C57.2019 54.8128 55.5889 52.7066 53.2747 52.2507C50.9487 51.7949 48.6672 53.1367 47.9332 55.3762C43.653 68.3757 38.426 81.2958 36.9229 84.9472C36.9089 84.9846 36.8925 85.022 36.8785 85.0594C36.8271 85.181 36.778 85.3072 36.7336 85.4358C33.5287 91.2004 25.0197 109.02 25.0197 120.93L25.0361 122.436C25.022 123.259 25.0852 124.077 25.1576 124.946L25.1904 125.456C25.2161 125.874 25.2418 126.263 25.2722 126.485C26.5836 140.966 32.7947 153.805 42.1873 163.466L25.2324 170.416C24.8233 170.584 24.4657 170.818 24.1337 171.077C23.9444 171.19 23.748 171.281 23.561 171.4C19.4538 174.074 16.8754 178.74 16.4803 184.205C16.1133 189.271 17.593 194.641 20.6413 199.325C23.6919 204.012 28.0025 207.537 32.783 209.253C34.8611 209.999 36.9627 210.368 39.0011 210.368C41.0255 210.368 42.9727 209.971 44.7844 209.253C44.9807 209.204 45.1654 209.12 45.3548 209.043C45.4109 209.017 45.467 208.991 45.5254 208.966C45.7405 208.87 45.9649 208.804 46.1683 208.673L46.8275 208.25C47.0028 208.147 47.1898 208.07 47.3581 207.958C47.5405 207.839 47.7064 207.701 47.8818 207.575L85.894 183.261L124.105 207.703C124.219 207.783 124.315 207.883 124.432 207.958C124.594 208.063 124.769 208.133 124.932 208.232L125.62 208.671C125.832 208.807 126.062 208.874 126.284 208.973C126.335 208.996 126.386 209.019 126.44 209.043C126.63 209.118 126.812 209.202 127.004 209.249C128.808 209.964 130.723 210.343 132.691 210.343C139.393 210.343 146.584 206.333 151.149 199.323C154.202 194.636 155.679 189.266 155.312 184.201C154.924 178.747 152.344 174.081 148.236 171.407ZM34.5292 124.916L34.4754 124.119C34.431 123.612 34.3819 123.104 34.3913 122.574C34.3936 122.31 34.3889 122.045 34.3819 121.781L34.3749 120.935C34.3749 111.369 42.2948 94.6601 45.1888 89.3209C45.3407 89.0638 45.4693 88.7903 45.5698 88.5051L45.5745 88.5074C46.4324 86.4153 48.4919 81.3403 50.909 74.9375C50.9464 75.0473 50.9838 75.1572 51.0259 75.2671C52.19 78.5538 53.5552 81.5086 54.9765 83.8228C58.3006 89.1947 65.9166 94.1458 66.7745 94.6928C67.8662 95.3894 69.201 95.5998 70.4539 95.2772C71.7092 94.9546 72.7729 94.1248 73.3947 92.9863C73.7523 92.3271 82.1865 76.7047 82.8527 63.8968C83.2384 56.5216 83.0584 50.2357 82.7008 45.336C87.0207 49.3053 92.3763 55.0676 97.2502 62.7117C101.853 69.9279 106.126 88.0446 107.386 94.417C107.711 96.065 108.896 97.4115 110.488 97.9445C112.08 98.4751 113.838 98.1151 115.089 96.9977L118.749 93.725C119.088 93.4235 119.381 93.0728 119.617 92.6871C122.109 88.6313 124.128 84.3464 125.65 79.8769C127.611 83.914 129.711 88.5098 131.291 92.6754C134.989 102.437 137.35 119.418 137.427 120.94C137.427 140.153 126.856 156.935 111.234 165.797C111.288 165.68 111.353 165.565 111.405 165.448C112.457 163.092 111.4 160.327 109.041 159.275C106.685 158.223 103.919 159.279 102.865 161.638C100.383 167.199 93.9962 171.912 88.2831 172.421C87.8787 172.44 87.4696 172.442 87.0628 172.452C86.7309 172.452 86.4013 172.475 86.0717 172.464C85.9571 172.459 85.8379 172.459 85.7257 172.464C85.6298 172.466 85.5363 172.457 85.4382 172.461C84.5802 172.454 83.7364 172.391 82.8878 172.342C76.0853 171.388 68.2215 164.789 67.7984 157.117C67.6254 153.942 68.9812 150.422 71.8331 146.651C73.3923 144.592 72.9856 141.661 70.9238 140.101C68.8643 138.542 65.9306 138.949 64.3761 141.011C60.152 146.595 58.1627 152.185 58.4619 157.629C58.6232 160.556 59.4063 163.321 60.6078 165.878C46.2711 157.842 36.1655 143.14 34.5666 125.486C34.5456 125.297 34.5409 125.112 34.5292 124.916ZM35.9435 200.461C33.1149 199.447 30.3939 197.177 28.4794 194.232C26.5649 191.288 25.5901 187.883 25.8052 184.886C25.9127 183.404 26.427 180.699 28.6617 179.243C32.4464 176.776 38.7556 179.481 42.4444 185.143C42.8512 185.767 43.2158 186.412 43.5361 187.064C44.6652 189.381 47.4633 190.351 49.7869 189.215C52.1082 188.084 53.0713 185.283 51.9375 182.962C51.4537 181.966 50.895 180.984 50.2802 180.04C48.4077 177.165 46.0865 174.815 43.5478 173.02L49.2703 170.675C49.5461 170.563 49.8009 170.42 50.0441 170.264C56.7694 175.142 64.5374 178.656 72.9575 180.454L53.0643 193.177C52.3864 192.425 51.4724 191.873 50.397 191.688C47.8303 191.249 45.4366 192.965 44.9995 195.508C44.761 196.903 44.1041 198.762 42.4725 199.952L41.8273 200.363C39.6813 201.483 37.2549 200.931 35.9435 200.461ZM143.32 194.232C139.711 199.772 133.603 202.446 129.795 200.246L129.255 199.9C127.062 198.236 126.143 194.774 126.94 190.91C127.462 188.38 125.832 185.91 123.303 185.388C120.776 184.865 118.301 186.494 117.782 189.026C117.555 190.131 117.426 191.218 117.359 192.291L98.8188 180.433C107.197 178.614 114.932 175.068 121.641 170.182C121.917 170.374 122.211 170.542 122.534 170.675L129.657 173.595C128.385 173.457 127.064 173.824 126.036 174.745C125.484 175.241 124.944 175.769 124.428 176.323C122.663 178.209 122.763 181.169 124.652 182.931C125.552 183.775 126.7 184.191 127.843 184.191C129.091 184.191 130.337 183.694 131.258 182.709C131.59 182.356 131.927 182.022 132.28 181.709C134.201 179.986 134.365 177.029 132.64 175.107C132.462 174.909 132.266 174.743 132.065 174.581L136.745 176.498C137.556 177.56 138.795 178.282 140.232 178.347C141.326 178.396 142.306 178.698 143.143 179.245C145.377 180.701 145.892 183.404 145.999 184.888C146.21 187.885 145.235 191.291 143.32 194.232Z" fill="white"/>
<path d="M45.6446 30.4196C49.1046 30.4196 51.9095 27.6147 51.9095 24.1547C51.9095 20.6948 49.1046 17.8899 45.6446 17.8899C42.1846 17.8899 39.3798 20.6948 39.3798 24.1547C39.3798 27.6147 42.1846 30.4196 45.6446 30.4196Z" fill="white"/>
<path d="M168.885 122.326C172.345 122.326 175.149 119.521 175.149 116.061C175.149 112.601 172.345 109.796 168.885 109.796C165.425 109.796 162.62 112.601 162.62 116.061C162.62 119.521 165.425 122.326 168.885 122.326Z" fill="white"/>
<path d="M136.49 43.9101C138.832 43.9101 140.73 42.0115 140.73 39.6696C140.73 37.3277 138.832 35.4291 136.49 35.4291C134.148 35.4291 132.249 37.3277 132.249 39.6696C132.249 42.0115 134.148 43.9101 136.49 43.9101Z" fill="white"/>
<path d="M16.8591 151.902C19.201 151.902 21.0995 150.003 21.0995 147.661C21.0995 145.319 19.201 143.421 16.8591 143.421C14.5171 143.421 12.6186 145.319 12.6186 147.661C12.6186 150.003 14.5171 151.902 16.8591 151.902Z" fill="white"/>
<path d="M96.9767 11.7676C100.226 11.7676 102.861 9.13337 102.861 5.88382C102.861 2.63428 100.226 0 96.9767 0C93.7272 0 91.0929 2.63428 91.0929 5.88382C91.0929 9.13337 93.7272 11.7676 96.9767 11.7676Z" fill="white"/>
<path d="M5.88382 101.374C9.13337 101.374 11.7676 98.7395 11.7676 95.49C11.7676 92.2404 9.13337 89.6061 5.88382 89.6061C2.63428 89.6061 0 92.2404 0 95.49C0 98.7395 2.63428 101.374 5.88382 101.374Z" fill="white"/>
<path d="M18.455 249.66C19.7383 249.66 20.94 249.392 22.06 248.855C23.18 248.318 24.1717 247.548 25.035 246.545L28.36 249.835C27.1933 251.212 25.7 252.308 23.88 253.125C22.0833 253.942 20.2283 254.35 18.315 254.35C16.4717 254.35 14.745 254.023 13.135 253.37C11.5483 252.717 10.1717 251.83 9.005 250.71C7.83833 249.59 6.91667 248.26 6.24 246.72C5.58667 245.18 5.26 243.523 5.26 241.75C5.26 239.977 5.59833 238.32 6.275 236.78C6.95167 235.217 7.87333 233.875 9.04 232.755C10.2067 231.635 11.5833 230.748 13.17 230.095C14.78 229.442 16.495 229.115 18.315 229.115C20.275 229.115 22.1767 229.535 24.02 230.375C25.8633 231.192 27.3567 232.3 28.5 233.7L25.07 237.095C24.2067 236.022 23.1917 235.205 22.025 234.645C20.8583 234.062 19.6217 233.77 18.315 233.77C17.2183 233.77 16.18 233.98 15.2 234.4C14.2433 234.797 13.415 235.357 12.715 236.08C12.015 236.78 11.4667 237.62 11.07 238.6C10.6733 239.557 10.475 240.607 10.475 241.75C10.475 242.87 10.6733 243.92 11.07 244.9C11.49 245.857 12.05 246.685 12.75 247.385C13.4733 248.085 14.3133 248.645 15.27 249.065C16.25 249.462 17.3117 249.66 18.455 249.66ZM38.5371 254.315C36.5771 254.315 34.9787 253.802 33.7421 252.775C32.5054 251.725 31.8871 250.372 31.8871 248.715C31.8871 246.988 32.5521 245.635 33.8821 244.655C35.2121 243.675 37.0437 243.185 39.3771 243.185C40.1237 243.185 40.8704 243.243 41.6171 243.36C42.3637 243.477 43.0987 243.652 43.8221 243.885V242.59C43.8221 241.54 43.4954 240.747 42.8421 240.21C42.1887 239.673 41.2321 239.405 39.9721 239.405C39.2021 239.405 38.3621 239.533 37.4521 239.79C36.5654 240.023 35.5504 240.397 34.4071 240.91L32.6571 237.375C34.0804 236.722 35.4571 236.232 36.7871 235.905C38.1404 235.578 39.4704 235.415 40.7771 235.415C43.2271 235.415 45.1287 236.01 46.4821 237.2C47.8587 238.367 48.5471 240.023 48.5471 242.17V254H43.8221V252.74C43.0521 253.277 42.2354 253.673 41.3721 253.93C40.5321 254.187 39.5871 254.315 38.5371 254.315ZM36.4721 248.61C36.4721 249.31 36.7754 249.87 37.3821 250.29C37.9887 250.687 38.7937 250.885 39.7971 250.885C40.5904 250.885 41.3137 250.792 41.9671 250.605C42.6437 250.395 43.2621 250.103 43.8221 249.73V247C43.2387 246.767 42.6204 246.603 41.9671 246.51C41.3371 246.393 40.6721 246.335 39.9721 246.335C38.8754 246.335 38.0121 246.545 37.3821 246.965C36.7754 247.362 36.4721 247.91 36.4721 248.61ZM53.9261 254V235.765H58.7211V237.13C59.3745 236.57 60.0978 236.15 60.8911 235.87C61.6845 235.567 62.5478 235.415 63.4811 235.415C64.6478 235.415 65.6978 235.66 66.6311 236.15C67.5878 236.617 68.3695 237.282 68.9761 238.145C69.6995 237.258 70.5745 236.582 71.6011 236.115C72.6278 235.648 73.7595 235.415 74.9961 235.415C77.0261 235.415 78.6945 236.092 80.0011 237.445C81.3078 238.798 81.9611 240.537 81.9611 242.66V254H77.1661V243.36C77.1661 242.217 76.8511 241.295 76.2211 240.595C75.6145 239.895 74.7861 239.545 73.7361 239.545C73.0128 239.545 72.3478 239.708 71.7411 240.035C71.1578 240.338 70.6561 240.782 70.2361 241.365C70.2595 241.575 70.2828 241.785 70.3061 241.995C70.3295 242.205 70.3411 242.427 70.3411 242.66V254H65.5461V243.36C65.5461 242.217 65.2311 241.295 64.6011 240.595C63.9945 239.895 63.1661 239.545 62.1161 239.545C61.3928 239.545 60.7511 239.685 60.1911 239.965C59.6311 240.245 59.1411 240.653 58.7211 241.19V254H53.9261ZM87.3949 261.315V235.765H92.1199V237.27C92.8432 236.687 93.6482 236.255 94.5349 235.975C95.4215 235.672 96.3432 235.52 97.2999 235.52C98.5832 235.52 99.7849 235.765 100.905 236.255C102.048 236.745 103.04 237.41 103.88 238.25C104.72 239.09 105.373 240.082 105.84 241.225C106.33 242.368 106.575 243.593 106.575 244.9C106.575 246.207 106.33 247.432 105.84 248.575C105.35 249.718 104.685 250.71 103.845 251.55C103.005 252.39 102.002 253.055 100.835 253.545C99.6916 254.012 98.4666 254.245 97.1599 254.245C96.2732 254.245 95.3982 254.128 94.5349 253.895C93.6949 253.638 92.9132 253.277 92.1899 252.81V261.315H87.3949ZM96.5299 239.615C95.6666 239.615 94.8616 239.767 94.1149 240.07C93.3682 240.35 92.7266 240.77 92.1899 241.33V248.505C92.7032 249.018 93.3332 249.427 94.0799 249.73C94.8499 250.033 95.6666 250.185 96.5299 250.185C98.0232 250.185 99.2832 249.683 100.31 248.68C101.337 247.653 101.85 246.393 101.85 244.9C101.85 243.407 101.325 242.158 100.275 241.155C99.2482 240.128 97.9999 239.615 96.5299 239.615ZM109.11 235.765H113.17V234.015C113.17 231.985 113.765 230.422 114.955 229.325C116.145 228.228 117.86 227.68 120.1 227.68C120.59 227.68 121.092 227.715 121.605 227.785C122.119 227.832 122.562 227.902 122.935 227.995V232.02C122.492 231.927 122.095 231.857 121.745 231.81C121.419 231.763 121.069 231.74 120.695 231.74C119.785 231.74 119.097 231.938 118.63 232.335C118.187 232.732 117.965 233.327 117.965 234.12V235.765H122.935V239.79H117.965V254H113.17V239.79H109.11V235.765ZM129.574 233.595C128.827 233.595 128.185 233.327 127.649 232.79C127.112 232.253 126.844 231.612 126.844 230.865C126.844 230.118 127.112 229.477 127.649 228.94C128.185 228.403 128.827 228.135 129.574 228.135C130.32 228.135 130.962 228.403 131.499 228.94C132.035 229.477 132.304 230.118 132.304 230.865C132.304 231.612 132.035 232.253 131.499 232.79C130.962 233.327 130.32 233.595 129.574 233.595ZM131.989 235.765V254H127.194V235.765H131.989ZM137.489 254V235.765H142.284V237.76C142.867 236.967 143.567 236.372 144.384 235.975C145.224 235.555 146.145 235.345 147.149 235.345C147.615 235.368 148 235.415 148.304 235.485C148.63 235.532 148.91 235.625 149.144 235.765V239.965C148.794 239.802 148.409 239.685 147.989 239.615C147.569 239.522 147.137 239.475 146.694 239.475C145.76 239.475 144.897 239.708 144.104 240.175C143.334 240.642 142.727 241.318 142.284 242.205V254H137.489ZM168.948 251.725C167.828 252.635 166.673 253.3 165.483 253.72C164.316 254.14 163.01 254.35 161.563 254.35C160.186 254.35 158.891 254.105 157.678 253.615C156.488 253.125 155.45 252.46 154.563 251.62C153.7 250.78 153.011 249.788 152.498 248.645C152.008 247.478 151.763 246.23 151.763 244.9C151.763 243.593 151.996 242.368 152.463 241.225C152.953 240.058 153.618 239.055 154.458 238.215C155.298 237.352 156.29 236.675 157.433 236.185C158.6 235.695 159.836 235.45 161.143 235.45C162.426 235.45 163.616 235.707 164.713 236.22C165.833 236.71 166.79 237.387 167.583 238.25C168.4 239.113 169.03 240.152 169.473 241.365C169.94 242.555 170.173 243.85 170.173 245.25V246.51H156.593C156.92 247.653 157.55 248.575 158.483 249.275C159.416 249.975 160.513 250.325 161.773 250.325C162.566 250.325 163.313 250.197 164.013 249.94C164.713 249.683 165.308 249.322 165.798 248.855L168.948 251.725ZM161.038 239.405C159.941 239.405 158.996 239.743 158.203 240.42C157.41 241.073 156.861 241.96 156.558 243.08H165.483C165.18 242.007 164.62 241.132 163.803 240.455C163.01 239.755 162.088 239.405 161.038 239.405Z" fill="white"/>
</svg>
